<?xml version="1.0" encoding="UTF-8" standalone="no"?><svg xmlns="http://www.w3.org/2000/svg" xmlns:xlink="http://www.w3.org/1999/xlink" contentScriptType="application/ecmascript" contentStyleType="text/css" height="422px" preserveAspectRatio="none" style="width:2157px;height:422px;background:#FFFFFF;" version="1.1" viewBox="0 0 2157 422" width="2157px" zoomAndPan="magnify"><defs/><g><text fill="#000000" font-family="sans-serif" font-size="18" lengthAdjust="spacing" textLength="792" x="682" y="30.6855">RDCU CU05a - createQuestionnaire(cours : Cours, nom : string, description : string, etatActif : bool)</text><line style="stroke:#A80036;stroke-width:1.0;stroke-dasharray:5.0,5.0;" x1="594" x2="594" y1="74.25" y2="415.375"/><line style="stroke:#A80036;stroke-width:1.0;stroke-dasharray:5.0,5.0;" x1="1104" x2="1104" y1="74.25" y2="415.375"/><line style="stroke:#A80036;stroke-width:1.0;stroke-dasharray:5.0,5.0;" x1="1613.5" x2="1613.5" y1="74.25" y2="415.375"/><line style="stroke:#A80036;stroke-width:1.0;stroke-dasharray:5.0,5.0;" x1="2054" x2="2054" y1="333.3672" y2="415.375"/><rect fill="#FEFECE" height="31.6094" style="stroke:#A80036;stroke-width:1.5;" width="170" x="509" y="41.6406"/><text fill="#000000" font-family="sans-serif" font-size="14" lengthAdjust="spacing" textLength="156" x="516" y="63.1738">ControleurQuestionnaire</text><rect fill="#FEFECE" height="31.6094" style="stroke:#A80036;stroke-width:1.5;" width="150" x="1029" y="41.6406"/><text fill="#000000" font-family="sans-serif" font-size="14" lengthAdjust="spacing" textLength="136" x="1036" y="63.1738">utilisateur:Enseignant</text><rect fill="#FEFECE" height="31.6094" style="stroke:#A80036;stroke-width:1.5;" width="91" x="1568.5" y="41.6406"/><text fill="#000000" font-family="sans-serif" font-size="14" lengthAdjust="spacing" textLength="77" x="1575.5" y="63.1738">cours:Cours</text><polygon fill="#A80036" points="582,105.6016,592,109.6016,582,113.6016" style="stroke:#A80036;stroke-width:1.0;"/><line style="stroke:#A80036;stroke-width:1.0;" x1="0" x2="588" y1="109.6016" y2="109.6016"/><text fill="#000000" font-family="sans-serif" font-size="13" lengthAdjust="spacing" textLength="570" x="7" y="104.7451">createQuestionnaire(cours : Cours, nom : string, description : string, etatActif : bool, token : string)</text><path d="M599,89.25 L599,115.25 L714,115.25 L714,99.25 L704,89.25 L599,89.25 " fill="#FBFB77" style="stroke:#A80036;stroke-width:1.0;"/><path d="M704,89.25 L704,99.25 L714,99.25 L704,89.25 " fill="#FBFB77" style="stroke:#A80036;stroke-width:1.0;"/><text fill="#000000" font-family="sans-serif" font-size="13" lengthAdjust="spacing" textLength="94" x="605" y="107.7451">selon Contrôleur</text><line style="stroke:#A80036;stroke-width:1.0;" x1="594" x2="636" y1="142.9531" y2="142.9531"/><line style="stroke:#A80036;stroke-width:1.0;" x1="636" x2="636" y1="142.9531" y2="155.9531"/><line style="stroke:#A80036;stroke-width:1.0;" x1="595" x2="636" y1="155.9531" y2="155.9531"/><polygon fill="#A80036" points="605,151.9531,595,155.9531,605,159.9531" style="stroke:#A80036;stroke-width:1.0;"/><text fill="#000000" font-family="sans-serif" font-size="13" lengthAdjust="spacing" textLength="266" x="601" y="138.0967">recupererEnseignantAvecToken(token : string)</text><path d="M879,129.1016 L879,155.1016 L1068,155.1016 L1068,139.1016 L1058,129.1016 L879,129.1016 " fill="#FBFB77" style="stroke:#A80036;stroke-width:1.0;"/><path d="M1058,129.1016 L1058,139.1016 L1068,139.1016 L1058,129.1016 " fill="#FBFB77" style="stroke:#A80036;stroke-width:1.0;"/><text fill="#000000" font-family="sans-serif" font-size="13" lengthAdjust="spacing" textLength="168" x="885" y="147.5967">etape de verification de token</text><polygon fill="#A80036" points="1092,201.6563,1102,205.6563,1092,209.6563" style="stroke:#A80036;stroke-width:1.0;"/><line style="stroke:#A80036;stroke-width:1.0;" x1="594" x2="1098" y1="205.6563" y2="205.6563"/><text fill="#000000" font-family="sans-serif" font-size="13" lengthAdjust="spacing" textLength="486" x="601" y="200.7998">createQuestionnaire(cours : Cours, nom : string, description : string, etatActif : bool)</text><path d="M1109,168.9531 L1109,227.9531 L1315,227.9531 L1315,178.9531 L1305,168.9531 L1109,168.9531 " fill="#FBFB77" style="stroke:#A80036;stroke-width:1.0;"/><path d="M1305,168.9531 L1305,178.9531 L1315,178.9531 L1305,168.9531 " fill="#FBFB77" style="stroke:#A80036;stroke-width:1.0;"/><text fill="#000000" font-family="sans-serif" font-size="13" lengthAdjust="spacing" textLength="73" x="1115" y="187.4482">selon Expert</text><text fill="#000000" font-family="sans-serif" font-size="13" lengthAdjust="spacing" textLength="185" x="1115" y="203.7998">ControleurQuestionnaire connait</text><text fill="#000000" font-family="sans-serif" font-size="13" lengthAdjust="spacing" textLength="61" x="1115" y="220.1514">l'utilisateur</text><polygon fill="#A80036" points="1602,270.7109,1612,274.7109,1602,278.7109" style="stroke:#A80036;stroke-width:1.0;"/><line style="stroke:#A80036;stroke-width:1.0;" x1="1104" x2="1608" y1="274.7109" y2="274.7109"/><text fill="#000000" font-family="sans-serif" font-size="13" lengthAdjust="spacing" textLength="486" x="1111" y="269.8545">createQuestionnaire(cours : Cours, nom : string, description : string, etatActif : bool)</text><path d="M1619,238.0078 L1619,297.0078 L1751,297.0078 L1751,248.0078 L1741,238.0078 L1619,238.0078 " fill="#FBFB77" style="stroke:#A80036;stroke-width:1.0;"/><path d="M1741,238.0078 L1741,248.0078 L1751,248.0078 L1741,238.0078 " fill="#FBFB77" style="stroke:#A80036;stroke-width:1.0;"/><text fill="#000000" font-family="sans-serif" font-size="13" lengthAdjust="spacing" textLength="84" x="1625" y="256.5029">selon Créateur</text><text fill="#000000" font-family="sans-serif" font-size="13" lengthAdjust="spacing" textLength="111" x="1625" y="272.8545">l'utilisateur contient</text><text fill="#000000" font-family="sans-serif" font-size="13" lengthAdjust="spacing" textLength="53" x="1625" y="289.2061">les cours</text><polygon fill="#A80036" points="1946,320.4141,1956,324.4141,1946,328.4141" style="stroke:#A80036;stroke-width:1.0;"/><line style="stroke:#A80036;stroke-width:1.0;" x1="1614" x2="1952" y1="324.4141" y2="324.4141"/><text fill="#000000" font-family="sans-serif" font-size="13" lengthAdjust="spacing" textLength="320" x="1621" y="319.5576">create(nom : string, description : string, etatActif : bool)</text><rect fill="#FEFECE" height="31.6094" style="stroke:#A80036;stroke-width:1.5;" width="193" x="1958" y="302.0625"/><text fill="#000000" font-family="sans-serif" font-size="14" lengthAdjust="spacing" textLength="179" x="1965" y="323.5957">questionnaire:Questionnaire</text><polygon fill="#A80036" points="1115,363.0234,1105,367.0234,1115,371.0234" style="stroke:#A80036;stroke-width:1.0;"/><line style="stroke:#A80036;stroke-width:1.0;stroke-dasharray:2.0,2.0;" x1="1109" x2="1613" y1="367.0234" y2="367.0234"/><text fill="#000000" font-family="sans-serif" font-size="13" lengthAdjust="spacing" textLength="119" x="1121" y="362.167">"Questionnaire créé"</text><polygon fill="#A80036" points="605,393.375,595,397.375,605,401.375" style="stroke:#A80036;stroke-width:1.0;"/><line style="stroke:#A80036;stroke-width:1.0;stroke-dasharray:2.0,2.0;" x1="599" x2="1103" y1="397.375" y2="397.375"/><text fill="#000000" font-family="sans-serif" font-size="13" lengthAdjust="spacing" textLength="119" x="611" y="392.5186">"Questionnaire créé"</text><!--MD5=[d10e5676798cb241059982bb4d0a7e78]
@startuml RDCU CU05a
skinparam style strictuml
hide empty members
title RDCU CU05a - createQuestionnaire(cours : Cours, nom : string, description : string, etatActif : bool)

participant "ControleurQuestionnaire" as cq
participant "utilisateur:Enseignant" as e
participant "cours:Cours" as c
participant "questionnaire:Questionnaire" as q

->cq : createQuestionnaire(cours : Cours, nom : string, description : string, etatActif : bool, token : string)
note right : selon Contrôleur
cq->cq : recupererEnseignantAvecToken(token : string)
note right : etape de verification de token
cq->e : createQuestionnaire(cours : Cours, nom : string, description : string, etatActif : bool)
note right : selon Expert\nControleurQuestionnaire connait\nl'utilisateur
e->c : createQuestionnaire(cours : Cours, nom : string, description : string, etatActif : bool)
note right : selon Créateur\nl'utilisateur contient\nles cours
create q
c->q : create(nom : string, description : string, etatActif : bool)
c- ->e : "Questionnaire créé"
e- ->cq : "Questionnaire créé"
@enduml

PlantUML version 1.2021.14(Fri Nov 12 11:46:50 EST 2021)
(GPL source distribution)
Java Runtime: OpenJDK Runtime Environment
JVM: OpenJDK 64-Bit Server VM
Default Encoding: Cp1252
Language: fr
Country: CA
--></g></svg>