<?xml version="1.0" encoding="UTF-8" standalone="no"?><svg xmlns="http://www.w3.org/2000/svg" xmlns:xlink="http://www.w3.org/1999/xlink" contentScriptType="application/ecmascript" contentStyleType="text/css" height="663px" preserveAspectRatio="none" style="width:2262px;height:663px;background:#FFFFFF;" version="1.1" viewBox="0 0 2262 663" width="2262px" zoomAndPan="magnify"><defs/><g><text fill="#000000" font-family="Verdana" font-size="18" lengthAdjust="spacing" textLength="1303" x="481.75" y="30.0967">RDCU CU05c - modifierQuestionnaire(group_id : string, nomQuestionnaire : string, nouveauNomQuestionnaire : string, ... (autres paramètres))</text><rect fill="#FFFFFF" height="85.1973" style="stroke:#000000;stroke-width:2.0;" width="906" x="1350.5" y="425.4971"/><rect fill="#FFFFFF" height="85.1973" style="stroke:#000000;stroke-width:2.0;" width="906" x="1350.5" y="524.6943"/><line style="stroke:#A80036;stroke-width:1.0;stroke-dasharray:5.0,5.0;" x1="722" x2="722" y1="89.9053" y2="656.6909"/><line style="stroke:#A80036;stroke-width:1.0;stroke-dasharray:5.0,5.0;" x1="1443.5" x2="1443.5" y1="89.9053" y2="656.6909"/><line style="stroke:#A80036;stroke-width:1.0;stroke-dasharray:5.0,5.0;" x1="1614.5" x2="1614.5" y1="89.9053" y2="656.6909"/><line style="stroke:#A80036;stroke-width:1.0;stroke-dasharray:5.0,5.0;" x1="1805.5" x2="1805.5" y1="89.9053" y2="656.6909"/><line style="stroke:#A80036;stroke-width:1.0;stroke-dasharray:5.0,5.0;" x1="2026.5" x2="2026.5" y1="89.9053" y2="656.6909"/><rect fill="#FEFECE" height="31.0146" style="stroke:#A80036;stroke-width:1.5;" width="186" x="629" y="57.8906"/><text fill="#000000" font-family="Verdana" font-size="14" lengthAdjust="spacing" textLength="172" x="636" y="78.9658">ControleurQuestionnaire</text><rect fill="#FEFECE" height="31.0146" style="stroke:#A80036;stroke-width:1.5;" width="167" x="1360.5" y="57.8906"/><text fill="#000000" font-family="Verdana" font-size="14" lengthAdjust="spacing" textLength="153" x="1367.5" y="78.9658">utilisateur:Enseignant</text><rect fill="#FEFECE" height="48.0293" style="stroke:#A80036;stroke-width:1.5;" width="154" x="1537.5" y="40.876"/><text fill="#000000" font-family="Verdana" font-size="14" lengthAdjust="spacing" textLength="48" x="1590.5" y="61.9512">Cours:</text><text fill="#000000" font-family="Verdana" font-size="14" lengthAdjust="spacing" textLength="140" x="1544.5" y="78.9658">Map&lt;String,Cours&gt;</text><rect fill="#FEFECE" height="48.0293" style="stroke:#A80036;stroke-width:1.5;" width="209" x="1701.5" y="40.876"/><text fill="#000000" font-family="Verdana" font-size="14" lengthAdjust="spacing" textLength="45" x="1783.5" y="61.9512">cours:</text><text fill="#000000" font-family="Verdana" font-size="14" lengthAdjust="spacing" textLength="195" x="1708.5" y="78.9658">Map&lt;String,Questionnaire&gt;</text><rect fill="#FEFECE" height="31.0146" style="stroke:#A80036;stroke-width:1.5;" width="212" x="1920.5" y="57.8906"/><text fill="#000000" font-family="Verdana" font-size="14" lengthAdjust="spacing" textLength="198" x="1927.5" y="78.9658">questionnaire:Questionnaire</text><polygon fill="#A80036" points="710,133.5039,720,137.5039,710,141.5039" style="stroke:#A80036;stroke-width:1.0;"/><line style="stroke:#A80036;stroke-width:1.0;" x1="0" x2="716" y1="137.5039" y2="137.5039"/><text fill="#000000" font-family="Verdana" font-size="13" lengthAdjust="spacing" textLength="698" x="12" y="116.9751">modifierQuestionnaire(group_id : string, nomQuestionnaire : string, nouveauNomQuestionnaire : string, ...</text><text fill="#000000" font-family="Verdana" font-size="13" lengthAdjust="spacing" textLength="139" x="291.5" y="132.7744">(autres paramètres))</text><path d="M727,109.8049 L727,134.8049 L855,134.8049 L855,119.8049 L845,109.8049 L727,109.8049 " fill="#FBFB77" style="stroke:#A80036;stroke-width:1.0;"/><path d="M845,109.8049 L845,119.8049 L855,119.8049 L845,109.8049 " fill="#FBFB77" style="stroke:#A80036;stroke-width:1.0;"/><text fill="#000000" font-family="Verdana" font-size="13" lengthAdjust="spacing" textLength="107" x="733" y="127.8748">selon Controleur</text><line style="stroke:#A80036;stroke-width:1.0;" x1="722" x2="764" y1="167.3032" y2="167.3032"/><line style="stroke:#A80036;stroke-width:1.0;" x1="764" x2="764" y1="167.3032" y2="180.3032"/><line style="stroke:#A80036;stroke-width:1.0;" x1="723" x2="764" y1="180.3032" y2="180.3032"/><polygon fill="#A80036" points="733,176.3032,723,180.3032,733,184.3032" style="stroke:#A80036;stroke-width:1.0;"/><text fill="#000000" font-family="Verdana" font-size="13" lengthAdjust="spacing" textLength="310" x="729" y="162.5737">recupererEnseignantAvecToken(token : string)</text><path d="M1051,154.0039 L1051,179.0039 L1272,179.0039 L1272,164.0039 L1262,154.0039 L1051,154.0039 " fill="#FBFB77" style="stroke:#A80036;stroke-width:1.0;"/><path d="M1262,154.0039 L1262,164.0039 L1272,164.0039 L1262,154.0039 " fill="#FBFB77" style="stroke:#A80036;stroke-width:1.0;"/><text fill="#000000" font-family="Verdana" font-size="13" lengthAdjust="spacing" textLength="200" x="1057" y="172.0737">etape de verification de token</text><polygon fill="#A80036" points="1432,232.8015,1442,236.8015,1432,240.8015" style="stroke:#A80036;stroke-width:1.0;"/><line style="stroke:#A80036;stroke-width:1.0;" x1="722" x2="1438" y1="236.8015" y2="236.8015"/><text fill="#000000" font-family="Verdana" font-size="13" lengthAdjust="spacing" textLength="698" x="734" y="216.2727">modifierQuestionnaire(group_id : string, nomQuestionnaire : string, nouveauNomQuestionnaire : string, ...</text><text fill="#000000" font-family="Verdana" font-size="13" lengthAdjust="spacing" textLength="139" x="1013.5" y="232.072">(autres paramètres))</text><path d="M1449,193.3032 L1449,250.3032 L1682,250.3032 L1682,203.3032 L1672,193.3032 L1449,193.3032 " fill="#FBFB77" style="stroke:#A80036;stroke-width:1.0;"/><path d="M1672,193.3032 L1672,203.3032 L1682,203.3032 L1672,193.3032 " fill="#FBFB77" style="stroke:#A80036;stroke-width:1.0;"/><text fill="#000000" font-family="Verdana" font-size="13" lengthAdjust="spacing" textLength="81" x="1455" y="211.373">selon Expert</text><text fill="#000000" font-family="Verdana" font-size="13" lengthAdjust="spacing" textLength="212" x="1455" y="227.1724">ControleurQuestionnaire connait</text><text fill="#000000" font-family="Verdana" font-size="13" lengthAdjust="spacing" textLength="71" x="1455" y="242.9717">l'utilisateur</text><polygon fill="#A80036" points="1602.5,284.4001,1612.5,288.4001,1602.5,292.4001" style="stroke:#A80036;stroke-width:1.0;"/><line style="stroke:#A80036;stroke-width:1.0;" x1="1444" x2="1608.5" y1="288.4001" y2="288.4001"/><text fill="#000000" font-family="Verdana" font-size="13" lengthAdjust="spacing" textLength="90" x="1484.25" y="283.6707">get(group_id)</text><path d="M1619,260.7012 L1619,301.7012 L1843,301.7012 L1843,270.7012 L1833,260.7012 L1619,260.7012 " fill="#FBFB77" style="stroke:#A80036;stroke-width:1.0;"/><path d="M1833,260.7012 L1833,270.7012 L1843,270.7012 L1833,260.7012 " fill="#FBFB77" style="stroke:#A80036;stroke-width:1.0;"/><text fill="#000000" font-family="Verdana" font-size="13" lengthAdjust="spacing" textLength="87" x="1625" y="278.771">selont Expert</text><text fill="#000000" font-family="Verdana" font-size="13" lengthAdjust="spacing" textLength="203" x="1625" y="294.5703">l'utilisateur enseigne des cours</text><polygon fill="#A80036" points="1455,325.0991,1445,329.0991,1455,333.0991" style="stroke:#A80036;stroke-width:1.0;"/><line style="stroke:#A80036;stroke-width:1.0;stroke-dasharray:2.0,2.0;" x1="1449" x2="1613.5" y1="329.0991" y2="329.0991"/><text fill="#000000" font-family="Verdana" font-size="13" lengthAdjust="spacing" textLength="89" x="1484.75" y="324.3696">cours : Cours</text><polygon fill="#A80036" points="1794,365.7981,1804,369.7981,1794,373.7981" style="stroke:#A80036;stroke-width:1.0;"/><line style="stroke:#A80036;stroke-width:1.0;" x1="1444" x2="1800" y1="369.7981" y2="369.7981"/><text fill="#000000" font-family="Verdana" font-size="13" lengthAdjust="spacing" textLength="151" x="1549.5" y="365.0686">get(nomQuestionnaire)</text><path d="M1811,342.0991 L1811,383.0991 L2035,383.0991 L2035,352.0991 L2025,342.0991 L1811,342.0991 " fill="#FBFB77" style="stroke:#A80036;stroke-width:1.0;"/><path d="M2025,342.0991 L2025,352.0991 L2035,352.0991 L2025,342.0991 " fill="#FBFB77" style="stroke:#A80036;stroke-width:1.0;"/><text fill="#000000" font-family="Verdana" font-size="13" lengthAdjust="spacing" textLength="87" x="1817" y="360.1689">selont Expert</text><text fill="#000000" font-family="Verdana" font-size="13" lengthAdjust="spacing" textLength="203" x="1817" y="375.9683">l'utilisateur enseigne des cours</text><polygon fill="#A80036" points="1455,406.4971,1445,410.4971,1455,414.4971" style="stroke:#A80036;stroke-width:1.0;"/><line style="stroke:#A80036;stroke-width:1.0;stroke-dasharray:2.0,2.0;" x1="1449" x2="1805" y1="410.4971" y2="410.4971"/><text fill="#000000" font-family="Verdana" font-size="13" lengthAdjust="spacing" textLength="194" x="1528" y="405.7676">questionnaire : Questionnaire</text><path d="M1350.5,425.4971 L1419.5,425.4971 L1419.5,432.4971 L1409.5,442.4971 L1350.5,442.4971 L1350.5,425.4971 " fill="#EEEEEE" style="stroke:#000000;stroke-width:1.0;"/><rect fill="none" height="85.1973" style="stroke:#000000;stroke-width:2.0;" width="906" x="1350.5" y="425.4971"/><text fill="#000000" font-family="Verdana" font-size="13" font-weight="bold" lengthAdjust="spacing" textLength="24" x="1365.5" y="439.5669">opt</text><text fill="#000000" font-family="Verdana" font-size="11" font-weight="bold" lengthAdjust="spacing" textLength="246" x="1434.5" y="438.5562">[if nouveauNomQuestionnaire != null]</text><polygon fill="#A80036" points="2014.5,479.895,2024.5,483.895,2014.5,487.895" style="stroke:#A80036;stroke-width:1.0;"/><line style="stroke:#A80036;stroke-width:1.0;" x1="1444" x2="2020.5" y1="483.895" y2="483.895"/><text fill="#000000" font-family="Verdana" font-size="13" lengthAdjust="spacing" textLength="235" x="1617.75" y="479.1655">setNom(nouveauNomQuestionnaire)</text><path d="M2031,448.2964 L2031,505.2964 L2241,505.2964 L2241,458.2964 L2231,448.2964 L2031,448.2964 " fill="#FBFB77" style="stroke:#A80036;stroke-width:1.0;"/><path d="M2231,448.2964 L2231,458.2964 L2241,458.2964 L2231,448.2964 " fill="#FBFB77" style="stroke:#A80036;stroke-width:1.0;"/><text fill="#000000" font-family="Verdana" font-size="13" lengthAdjust="spacing" textLength="81" x="2037" y="466.3662">selon Expert</text><text fill="#000000" font-family="Verdana" font-size="13" lengthAdjust="spacing" textLength="129" x="2037" y="482.1655">enseignant a accès</text><text fill="#000000" font-family="Verdana" font-size="13" lengthAdjust="spacing" textLength="189" x="2037" y="497.9648">à l'instance de questionnaire</text><path d="M1350.5,524.6943 L1419.5,524.6943 L1419.5,531.6943 L1409.5,541.6943 L1350.5,541.6943 L1350.5,524.6943 " fill="#EEEEEE" style="stroke:#000000;stroke-width:1.0;"/><rect fill="none" height="85.1973" style="stroke:#000000;stroke-width:2.0;" width="906" x="1350.5" y="524.6943"/><text fill="#000000" font-family="Verdana" font-size="13" font-weight="bold" lengthAdjust="spacing" textLength="24" x="1365.5" y="538.7642">opt</text><text fill="#000000" font-family="Verdana" font-size="11" font-weight="bold" lengthAdjust="spacing" textLength="204" x="1434.5" y="537.7534">[if (autres paramètres) != null]</text><polygon fill="#A80036" points="2014.5,579.0923,2024.5,583.0923,2014.5,587.0923" style="stroke:#A80036;stroke-width:1.0;"/><line style="stroke:#A80036;stroke-width:1.0;" x1="1444" x2="2020.5" y1="583.0923" y2="583.0923"/><text fill="#000000" font-family="Verdana" font-size="13" lengthAdjust="spacing" textLength="154" x="1658.25" y="578.3628">set(autres paramètres)</text><path d="M2031,547.4937 L2031,604.4937 L2241,604.4937 L2241,557.4937 L2231,547.4937 L2031,547.4937 " fill="#FBFB77" style="stroke:#A80036;stroke-width:1.0;"/><path d="M2231,547.4937 L2231,557.4937 L2241,557.4937 L2231,547.4937 " fill="#FBFB77" style="stroke:#A80036;stroke-width:1.0;"/><text fill="#000000" font-family="Verdana" font-size="13" lengthAdjust="spacing" textLength="81" x="2037" y="565.5635">selon Expert</text><text fill="#000000" font-family="Verdana" font-size="13" lengthAdjust="spacing" textLength="129" x="2037" y="581.3628">enseignant a accès</text><text fill="#000000" font-family="Verdana" font-size="13" lengthAdjust="spacing" textLength="189" x="2037" y="597.1621">à l'instance de questionnaire</text><polygon fill="#A80036" points="733,634.6909,723,638.6909,733,642.6909" style="stroke:#A80036;stroke-width:1.0;"/><line style="stroke:#A80036;stroke-width:1.0;stroke-dasharray:2.0,2.0;" x1="727" x2="1443" y1="638.6909" y2="638.6909"/><text fill="#000000" font-family="Verdana" font-size="13" lengthAdjust="spacing" textLength="151" x="1007.5" y="633.9614">"Questionnaire modifié"</text><!--MD5=[8aa04fbed5bbd37715f2c160d4d69d34]
@startuml RDCU
skinparam style strictuml
skinparam defaultfontname Verdana
skinparam sequence {
    MessageAlign center
}
hide empty members
title RDCU CU05c - modifierQuestionnaire(group_id : string, nomQuestionnaire : string, nouveauNomQuestionnaire : string, ... (autres paramètres))

participant "ControleurQuestionnaire" as cq
participant "utilisateur:Enseignant" as u
participant "Cours:\nMap<String,Cours>" as cm
participant "cours:\nMap<String,Questionnaire>" as c
participant "questionnaire:Questionnaire" as q

-> cq : modifierQuestionnaire(group_id : string, nomQuestionnaire : string, nouveauNomQuestionnaire : string, ...\n(autres paramètres))
note right : selon Controleur
cq->cq : recupererEnseignantAvecToken(token : string)
note right : etape de verification de token
cq->u : modifierQuestionnaire(group_id : string, nomQuestionnaire : string, nouveauNomQuestionnaire : string, ...\n(autres paramètres))
note right : selon Expert\nControleurQuestionnaire connait\nl'utilisateur
u->cm : get(group_id)
note right : selont Expert\nl'utilisateur enseigne des cours
cm- ->u : cours : Cours
u->c : get(nomQuestionnaire)
note right : selont Expert\nl'utilisateur enseigne des cours
c- ->u : questionnaire : Questionnaire
opt if nouveauNomQuestionnaire != null
u->q : setNom(nouveauNomQuestionnaire)
note right : selon Expert\nenseignant a accès\nà l'instance de questionnaire
end
opt if (autres paramètres) != null
u->q : set(autres paramètres)
note right : selon Expert\nenseignant a accès\nà l'instance de questionnaire
end
u- ->cq : "Questionnaire modifié"
@enduml

PlantUML version 1.2021.14(Fri Nov 12 11:46:50 EST 2021)
(GPL source distribution)
Java Runtime: OpenJDK Runtime Environment
JVM: OpenJDK 64-Bit Server VM
Default Encoding: Cp1252
Language: fr
Country: CA
--></g></svg>