<?xml version="1.0" encoding="UTF-8" standalone="no"?><svg xmlns="http://www.w3.org/2000/svg" xmlns:xlink="http://www.w3.org/1999/xlink" contentScriptType="application/ecmascript" contentStyleType="text/css" height="397px" preserveAspectRatio="none" style="width:1268px;height:397px;background:#FFFFFF;" version="1.1" viewBox="0 0 1268 397" width="1268px" zoomAndPan="magnify"><defs/><g><text fill="#000000" font-family="sans-serif" font-size="18" lengthAdjust="spacing" textLength="357" x="457.25" y="30.6855">RDCU CU03a - postCoursSelectionneDevoir</text><line style="stroke:#A80036;stroke-width:1.0;stroke-dasharray:5.0,5.0;" x1="350" x2="350" y1="91.8594" y2="390.375"/><line style="stroke:#A80036;stroke-width:1.0;stroke-dasharray:5.0,5.0;" x1="520" x2="520" y1="91.8594" y2="390.375"/><line style="stroke:#A80036;stroke-width:1.0;stroke-dasharray:5.0,5.0;" x1="680" x2="680" y1="91.8594" y2="390.375"/><line style="stroke:#A80036;stroke-width:1.0;stroke-dasharray:5.0,5.0;" x1="787" x2="787" y1="91.8594" y2="390.375"/><rect fill="#FEFECE" height="31.6094" style="stroke:#A80036;stroke-width:1.5;" width="122" x="289" y="59.25"/><text fill="#000000" font-family="sans-serif" font-size="14" lengthAdjust="spacing" textLength="108" x="296" y="80.7832">ControleurDevoir</text><rect fill="#FEFECE" height="49.2188" style="stroke:#A80036;stroke-width:1.5;" width="136" x="452" y="41.6406"/><text fill="#000000" font-family="sans-serif" font-size="14" lengthAdjust="spacing" textLength="42" x="499" y="63.1738">Cours:</text><text fill="#000000" font-family="sans-serif" font-size="14" lengthAdjust="spacing" textLength="122" x="459" y="80.7832">Map&lt;String,Cours&gt;</text><rect fill="#FEFECE" height="31.6094" style="stroke:#A80036;stroke-width:1.5;" width="165" x="598" y="59.25"/><text fill="#000000" font-family="sans-serif" font-size="14" lengthAdjust="spacing" textLength="151" x="605" y="80.7832">coursSelectionne:Cours</text><rect fill="#FEFECE" height="31.6094" style="stroke:#A80036;stroke-width:1.5;" width="29" x="773" y="59.25"/><text fill="#000000" font-family="sans-serif" font-size="14" lengthAdjust="spacing" textLength="15" x="780" y="80.7832">cq</text><polygon fill="#A80036" points="338,123.2109,348,127.2109,338,131.2109" style="stroke:#A80036;stroke-width:1.0;"/><line style="stroke:#A80036;stroke-width:1.0;" x1="0" x2="344" y1="127.2109" y2="127.2109"/><text fill="#000000" font-family="sans-serif" font-size="13" lengthAdjust="spacing" textLength="326" x="7" y="122.3545">postCoursSelectionneDevoir(cours: string, token : string)</text><path d="M355,106.8594 L355,132.8594 L470,132.8594 L470,116.8594 L460,106.8594 L355,106.8594 " fill="#FBFB77" style="stroke:#A80036;stroke-width:1.0;"/><path d="M460,106.8594 L460,116.8594 L470,116.8594 L460,106.8594 " fill="#FBFB77" style="stroke:#A80036;stroke-width:1.0;"/><text fill="#000000" font-family="sans-serif" font-size="13" lengthAdjust="spacing" textLength="94" x="361" y="125.3545">selon Contrôleur</text><line style="stroke:#A80036;stroke-width:1.0;" x1="787.5" x2="829.5" y1="160.5625" y2="160.5625"/><line style="stroke:#A80036;stroke-width:1.0;" x1="829.5" x2="829.5" y1="160.5625" y2="173.5625"/><line style="stroke:#A80036;stroke-width:1.0;" x1="788.5" x2="829.5" y1="173.5625" y2="173.5625"/><polygon fill="#A80036" points="798.5,169.5625,788.5,173.5625,798.5,177.5625" style="stroke:#A80036;stroke-width:1.0;"/><text fill="#000000" font-family="sans-serif" font-size="13" lengthAdjust="spacing" textLength="266" x="794.5" y="155.7061">recupererEnseignantAvecToken(token : string)</text><path d="M1072,146.7109 L1072,172.7109 L1261,172.7109 L1261,156.7109 L1251,146.7109 L1072,146.7109 " fill="#FBFB77" style="stroke:#A80036;stroke-width:1.0;"/><path d="M1251,146.7109 L1251,156.7109 L1261,156.7109 L1251,146.7109 " fill="#FBFB77" style="stroke:#A80036;stroke-width:1.0;"/><text fill="#000000" font-family="sans-serif" font-size="13" lengthAdjust="spacing" textLength="168" x="1078" y="165.2061">etape de verification de token</text><polygon fill="#A80036" points="508,219.2656,518,223.2656,508,227.2656" style="stroke:#A80036;stroke-width:1.0;"/><line style="stroke:#A80036;stroke-width:1.0;" x1="350" x2="514" y1="223.2656" y2="223.2656"/><text fill="#000000" font-family="sans-serif" font-size="13" lengthAdjust="spacing" textLength="126" x="357" y="218.4092">get(coursSelectionne)</text><path d="M525,186.5625 L525,245.5625 L740,245.5625 L740,196.5625 L730,186.5625 L525,186.5625 " fill="#FBFB77" style="stroke:#A80036;stroke-width:1.0;"/><path d="M730,186.5625 L730,196.5625 L740,196.5625 L730,186.5625 " fill="#FBFB77" style="stroke:#A80036;stroke-width:1.0;"/><text fill="#000000" font-family="sans-serif" font-size="13" lengthAdjust="spacing" textLength="73" x="531" y="205.0576">selon Expert</text><text fill="#000000" font-family="sans-serif" font-size="13" lengthAdjust="spacing" textLength="144" x="531" y="221.4092">ControleurDevoir a accès</text><text fill="#000000" font-family="sans-serif" font-size="13" lengthAdjust="spacing" textLength="194" x="531" y="237.7607">à la map de cours de l'enseignant</text><polygon fill="#A80036" points="361,268.9688,351,272.9688,361,276.9688" style="stroke:#A80036;stroke-width:1.0;"/><line style="stroke:#A80036;stroke-width:1.0;stroke-dasharray:2.0,2.0;" x1="355" x2="519" y1="272.9688" y2="272.9688"/><text fill="#000000" font-family="sans-serif" font-size="13" lengthAdjust="spacing" textLength="146" x="367" y="268.1123">coursSelectionne : Cours</text><polygon fill="#A80036" points="668.5,318.6719,678.5,322.6719,668.5,326.6719" style="stroke:#A80036;stroke-width:1.0;"/><line style="stroke:#A80036;stroke-width:1.0;" x1="350" x2="674.5" y1="322.6719" y2="322.6719"/><text fill="#000000" font-family="sans-serif" font-size="13" lengthAdjust="spacing" textLength="89" x="357" y="317.8154">getListeDevoir()</text><path d="M685,285.9688 L685,344.9688 L860,344.9688 L860,295.9688 L850,285.9688 L685,285.9688 " fill="#FBFB77" style="stroke:#A80036;stroke-width:1.0;"/><path d="M850,285.9688 L850,295.9688 L860,295.9688 L850,285.9688 " fill="#FBFB77" style="stroke:#A80036;stroke-width:1.0;"/><text fill="#000000" font-family="sans-serif" font-size="13" lengthAdjust="spacing" textLength="73" x="691" y="304.4639">selon Expert</text><text fill="#000000" font-family="sans-serif" font-size="13" lengthAdjust="spacing" textLength="94" x="691" y="320.8154">ControleurDevoir</text><text fill="#000000" font-family="sans-serif" font-size="13" lengthAdjust="spacing" textLength="154" x="691" y="337.167">a reçu le coursSelectionne</text><polygon fill="#A80036" points="361,368.375,351,372.375,361,376.375" style="stroke:#A80036;stroke-width:1.0;"/><line style="stroke:#A80036;stroke-width:1.0;stroke-dasharray:2.0,2.0;" x1="355" x2="679.5" y1="372.375" y2="372.375"/><text fill="#000000" font-family="sans-serif" font-size="13" lengthAdjust="spacing" textLength="43" x="367" y="367.5186">[Devoir]</text><!--MD5=[9b997240b879f1b50f612885d3682cbe]
@startuml RDCU CU03a
skinparam style strictuml
hide empty members
title RDCU CU03a - postCoursSelectionneDevoir

participant "ControleurDevoir" as cd
participant "Cours:\nMap<String,Cours>" as sc
participant "coursSelectionne:Cours" as c

->cd : postCoursSelectionneDevoir(cours: string, token : string)
note right : selon Contrôleur
cq->cq : recupererEnseignantAvecToken(token : string)
note right : etape de verification de token
cd->sc : get(coursSelectionne)
note right : selon Expert\nControleurDevoir a accès\nà la map de cours de l'enseignant
sc- ->cd : coursSelectionne : Cours
cd->c : getListeDevoir()
note right : selon Expert\nControleurDevoir\na reçu le coursSelectionne
c- ->cd : [Devoir]
@enduml

PlantUML version 1.2021.14(Fri Nov 12 11:46:50 EST 2021)
(GPL source distribution)
Java Runtime: OpenJDK Runtime Environment
JVM: OpenJDK 64-Bit Server VM
Default Encoding: Cp1252
Language: fr
Country: CA
--></g></svg>