<?xml version="1.0" encoding="UTF-8" standalone="no"?><svg xmlns="http://www.w3.org/2000/svg" xmlns:xlink="http://www.w3.org/1999/xlink" contentScriptType="application/ecmascript" contentStyleType="text/css" height="496px" preserveAspectRatio="none" style="width:1556px;height:496px;background:#FFFFFF;" version="1.1" viewBox="0 0 1556 496" width="1556px" zoomAndPan="magnify"><defs/><g><text fill="#000000" font-family="sans-serif" font-size="18" lengthAdjust="spacing" textLength="787" x="386.25" y="30.6855">RDCU CU05b - postQuestionnaireSelectionne(group_id : String, questionnaireSelectionne : String)</text><line style="stroke:#A80036;stroke-width:1.0;stroke-dasharray:5.0,5.0;" x1="583" x2="583" y1="91.8594" y2="489.7813"/><line style="stroke:#A80036;stroke-width:1.0;stroke-dasharray:5.0,5.0;" x1="1075" x2="1075" y1="91.8594" y2="489.7813"/><line style="stroke:#A80036;stroke-width:1.0;stroke-dasharray:5.0,5.0;" x1="1228" x2="1228" y1="91.8594" y2="489.7813"/><line style="stroke:#A80036;stroke-width:1.0;stroke-dasharray:5.0,5.0;" x1="1399" x2="1399" y1="91.8594" y2="489.7813"/><rect fill="#FEFECE" height="31.6094" style="stroke:#A80036;stroke-width:1.5;" width="170" x="498" y="59.25"/><text fill="#000000" font-family="sans-serif" font-size="14" lengthAdjust="spacing" textLength="156" x="505" y="80.7832">ControleurQuestionnaire</text><rect fill="#FEFECE" height="31.6094" style="stroke:#A80036;stroke-width:1.5;" width="150" x="1000" y="59.25"/><text fill="#000000" font-family="sans-serif" font-size="14" lengthAdjust="spacing" textLength="136" x="1007" y="80.7832">utilisateur:Enseignant</text><rect fill="#FEFECE" height="49.2188" style="stroke:#A80036;stroke-width:1.5;" width="136" x="1160" y="41.6406"/><text fill="#000000" font-family="sans-serif" font-size="14" lengthAdjust="spacing" textLength="42" x="1207" y="63.1738">Cours:</text><text fill="#000000" font-family="sans-serif" font-size="14" lengthAdjust="spacing" textLength="122" x="1167" y="80.7832">Map&lt;String,Cours&gt;</text><rect fill="#FEFECE" height="49.2188" style="stroke:#A80036;stroke-width:1.5;" width="187" x="1306" y="41.6406"/><text fill="#000000" font-family="sans-serif" font-size="14" lengthAdjust="spacing" textLength="39" x="1380" y="63.1738">cours:</text><text fill="#000000" font-family="sans-serif" font-size="14" lengthAdjust="spacing" textLength="173" x="1313" y="80.7832">Map&lt;String,Questionnaire&gt;</text><polygon fill="#A80036" points="571,123.2109,581,127.2109,571,131.2109" style="stroke:#A80036;stroke-width:1.0;"/><line style="stroke:#A80036;stroke-width:1.0;" x1="0" x2="577" y1="127.2109" y2="127.2109"/><text fill="#000000" font-family="sans-serif" font-size="13" lengthAdjust="spacing" textLength="559" x="7" y="122.3545">postQuestionnaireSelectionne(group_id : String, questionnaireSelectionne : String, token : string)</text><path d="M588,106.8594 L588,132.8594 L703,132.8594 L703,116.8594 L693,106.8594 L588,106.8594 " fill="#FBFB77" style="stroke:#A80036;stroke-width:1.0;"/><path d="M693,106.8594 L693,116.8594 L703,116.8594 L693,106.8594 " fill="#FBFB77" style="stroke:#A80036;stroke-width:1.0;"/><text fill="#000000" font-family="sans-serif" font-size="13" lengthAdjust="spacing" textLength="94" x="594" y="125.3545">selon Contrôleur</text><line style="stroke:#A80036;stroke-width:1.0;" x1="583" x2="625" y1="160.5625" y2="160.5625"/><line style="stroke:#A80036;stroke-width:1.0;" x1="625" x2="625" y1="160.5625" y2="173.5625"/><line style="stroke:#A80036;stroke-width:1.0;" x1="584" x2="625" y1="173.5625" y2="173.5625"/><polygon fill="#A80036" points="594,169.5625,584,173.5625,594,177.5625" style="stroke:#A80036;stroke-width:1.0;"/><text fill="#000000" font-family="sans-serif" font-size="13" lengthAdjust="spacing" textLength="266" x="590" y="155.7061">recupererEnseignantAvecToken(token : string)</text><path d="M868,146.7109 L868,172.7109 L1057,172.7109 L1057,156.7109 L1047,146.7109 L868,146.7109 " fill="#FBFB77" style="stroke:#A80036;stroke-width:1.0;"/><path d="M1047,146.7109 L1047,156.7109 L1057,156.7109 L1047,146.7109 " fill="#FBFB77" style="stroke:#A80036;stroke-width:1.0;"/><text fill="#000000" font-family="sans-serif" font-size="13" lengthAdjust="spacing" textLength="168" x="874" y="165.2061">etape de verification de token</text><polygon fill="#A80036" points="1063,219.2656,1073,223.2656,1063,227.2656" style="stroke:#A80036;stroke-width:1.0;"/><line style="stroke:#A80036;stroke-width:1.0;" x1="583" x2="1069" y1="223.2656" y2="223.2656"/><text fill="#000000" font-family="sans-serif" font-size="13" lengthAdjust="spacing" textLength="468" x="590" y="218.4092">getQuestionnaireSelectionne(group_id : String, questionnaireSelectionne : String)</text><path d="M1080,186.5625 L1080,245.5625 L1240,245.5625 L1240,196.5625 L1230,186.5625 L1080,186.5625 " fill="#FBFB77" style="stroke:#A80036;stroke-width:1.0;"/><path d="M1230,186.5625 L1230,196.5625 L1240,196.5625 L1230,186.5625 " fill="#FBFB77" style="stroke:#A80036;stroke-width:1.0;"/><text fill="#000000" font-family="sans-serif" font-size="13" lengthAdjust="spacing" textLength="73" x="1086" y="205.0576">selon Expert</text><text fill="#000000" font-family="sans-serif" font-size="13" lengthAdjust="spacing" textLength="139" x="1086" y="221.4092">ControleurQuestionnaire</text><text fill="#000000" font-family="sans-serif" font-size="13" lengthAdjust="spacing" textLength="107" x="1086" y="237.7607">connait l'utilisateur</text><polygon fill="#A80036" points="1216,280.1445,1226,284.1445,1216,288.1445" style="stroke:#A80036;stroke-width:1.0;"/><line style="stroke:#A80036;stroke-width:1.0;" x1="1075" x2="1222" y1="284.1445" y2="284.1445"/><text fill="#000000" font-family="sans-serif" font-size="13" lengthAdjust="spacing" textLength="75" x="1082" y="279.2881">get(group_id)</text><path d="M1233,255.6172 L1233,297.6172 L1432,297.6172 L1432,265.6172 L1422,255.6172 L1233,255.6172 " fill="#FBFB77" style="stroke:#A80036;stroke-width:1.0;"/><path d="M1422,255.6172 L1422,265.6172 L1432,265.6172 L1422,255.6172 " fill="#FBFB77" style="stroke:#A80036;stroke-width:1.0;"/><text fill="#000000" font-family="sans-serif" font-size="13" lengthAdjust="spacing" textLength="77" x="1239" y="274.1123">selont Expert</text><text fill="#000000" font-family="sans-serif" font-size="13" lengthAdjust="spacing" textLength="178" x="1239" y="290.4639">l'utilisateur enseigne des cours</text><polygon fill="#A80036" points="1086,321.6719,1076,325.6719,1086,329.6719" style="stroke:#A80036;stroke-width:1.0;"/><line style="stroke:#A80036;stroke-width:1.0;stroke-dasharray:2.0,2.0;" x1="1080" x2="1227" y1="325.6719" y2="325.6719"/><text fill="#000000" font-family="sans-serif" font-size="13" lengthAdjust="spacing" textLength="78" x="1092" y="320.8154">cours : Cours</text><polygon fill="#A80036" points="1387.5,379.5508,1397.5,383.5508,1387.5,387.5508" style="stroke:#A80036;stroke-width:1.0;"/><line style="stroke:#A80036;stroke-width:1.0;" x1="1075" x2="1393.5" y1="383.5508" y2="383.5508"/><text fill="#000000" font-family="sans-serif" font-size="13" lengthAdjust="spacing" textLength="171" x="1082" y="378.6943">get(questionnaireSelectionne)</text><path d="M1404,338.6719 L1404,413.6719 L1549,413.6719 L1549,348.6719 L1539,338.6719 L1404,338.6719 " fill="#FBFB77" style="stroke:#A80036;stroke-width:1.0;"/><path d="M1539,338.6719 L1539,348.6719 L1549,348.6719 L1539,338.6719 " fill="#FBFB77" style="stroke:#A80036;stroke-width:1.0;"/><text fill="#000000" font-family="sans-serif" font-size="13" lengthAdjust="spacing" textLength="73" x="1410" y="357.167">selon Expert</text><text fill="#000000" font-family="sans-serif" font-size="13" lengthAdjust="spacing" textLength="113" x="1410" y="373.5186">enseignant a accès</text><text fill="#000000" font-family="sans-serif" font-size="13" lengthAdjust="spacing" textLength="78" x="1410" y="389.8701">aux cours qui</text><text fill="#000000" font-family="sans-serif" font-size="13" lengthAdjust="spacing" textLength="124" x="1410" y="406.2217">contiennent les maps</text><polygon fill="#A80036" points="1086,437.4297,1076,441.4297,1086,445.4297" style="stroke:#A80036;stroke-width:1.0;"/><line style="stroke:#A80036;stroke-width:1.0;stroke-dasharray:2.0,2.0;" x1="1080" x2="1398.5" y1="441.4297" y2="441.4297"/><text fill="#000000" font-family="sans-serif" font-size="13" lengthAdjust="spacing" textLength="80" x="1092" y="436.5732">Questionnaire</text><polygon fill="#A80036" points="594,467.7813,584,471.7813,594,475.7813" style="stroke:#A80036;stroke-width:1.0;"/><line style="stroke:#A80036;stroke-width:1.0;stroke-dasharray:2.0,2.0;" x1="588" x2="1074" y1="471.7813" y2="471.7813"/><text fill="#000000" font-family="sans-serif" font-size="13" lengthAdjust="spacing" textLength="80" x="600" y="466.9248">Questionnaire</text><!--MD5=[26cb830d42dda3496b399fbbb426100d]
@startuml RDCU CU05b
skinparam style strictuml
hide empty members
title RDCU CU05b - postQuestionnaireSelectionne(group_id : String, questionnaireSelectionne : String)

participant "ControleurQuestionnaire" as cq
participant "utilisateur:Enseignant" as u
participant "Cours:\nMap<String,Cours>" as mc
participant "cours:\nMap<String,Questionnaire>" as c

->cq : postQuestionnaireSelectionne(group_id : String, questionnaireSelectionne : String, token : string)
note right : selon Contrôleur
cq->cq : recupererEnseignantAvecToken(token : string)
note right : etape de verification de token
cq->u : getQuestionnaireSelectionne(group_id : String, questionnaireSelectionne : String)
note right : selon Expert\nControleurQuestionnaire\nconnait l'utilisateur
u->mc : get(group_id)
note right : selont Expert\nl'utilisateur enseigne des cours
mc- ->u : cours : Cours
u->c : get(questionnaireSelectionne)
note right : selon Expert\nenseignant a accès\naux cours qui\ncontiennent les maps
c- ->u : Questionnaire
u- ->cq : Questionnaire
@enduml

PlantUML version 1.2021.14(Fri Nov 12 11:46:50 EST 2021)
(GPL source distribution)
Java Runtime: OpenJDK Runtime Environment
JVM: OpenJDK 64-Bit Server VM
Default Encoding: Cp1252
Language: fr
Country: CA
--></g></svg>