<?xml version="1.0" encoding="UTF-8" standalone="no"?><svg xmlns="http://www.w3.org/2000/svg" xmlns:xlink="http://www.w3.org/1999/xlink" contentScriptType="application/ecmascript" contentStyleType="text/css" height="254px" preserveAspectRatio="none" style="width:615px;height:254px;background:#FFFFFF;" version="1.1" viewBox="0 0 615 254" width="615px" zoomAndPan="magnify"><defs/><g><text fill="#000000" font-family="sans-serif" font-size="18" lengthAdjust="spacing" textLength="271" x="173.75" y="30.6855">DSS CU02b - Récupérer question</text><line style="stroke:#A80036;stroke-width:1.0;stroke-dasharray:5.0,5.0;" x1="219" x2="219" y1="122.25" y2="247.6563"/><line style="stroke:#A80036;stroke-width:1.0;stroke-dasharray:5.0,5.0;" x1="486.5" x2="486.5" y1="122.25" y2="247.6563"/><text fill="#000000" font-family="sans-serif" font-size="14" lengthAdjust="spacing" textLength="75" x="179" y="119.1738">:Enseignant</text><ellipse cx="219.5" cy="51.6406" fill="#FEFECE" rx="8" ry="8" style="stroke:#A80036;stroke-width:2.0;"/><path d="M219.5,59.6406 L219.5,86.6406 M206.5,67.6406 L232.5,67.6406 M219.5,86.6406 L206.5,101.6406 M219.5,86.6406 L232.5,101.6406 " fill="none" style="stroke:#A80036;stroke-width:2.0;"/><rect fill="#FEFECE" height="31.6094" style="stroke:#A80036;stroke-width:1.5;" width="72" x="450.5" y="89.6406"/><text fill="#000000" font-family="sans-serif" font-size="14" lengthAdjust="spacing" textLength="58" x="457.5" y="111.1738">:Systeme</text><polygon fill="#A80036" points="474.5,161.7773,484.5,165.7773,474.5,169.7773" style="stroke:#A80036;stroke-width:1.0;"/><line style="stroke:#A80036;stroke-width:1.0;" x1="219.5" x2="480.5" y1="165.7773" y2="165.7773"/><text fill="#000000" font-family="sans-serif" font-size="13" lengthAdjust="spacing" textLength="243" x="226.5" y="160.9209">postCoursSelectionne(null , token : string)</text><path d="M491,137.25 L491,179.25 L608,179.25 L608,147.25 L598,137.25 L491,137.25 " fill="#FBFB77" style="stroke:#A80036;stroke-width:1.0;"/><path d="M598,137.25 L598,147.25 L608,147.25 L598,137.25 " fill="#FBFB77" style="stroke:#A80036;stroke-width:1.0;"/><text fill="#000000" font-family="sans-serif" font-size="13" lengthAdjust="spacing" textLength="85" x="497" y="155.7451">même fonction</text><text fill="#000000" font-family="sans-serif" font-size="13" lengthAdjust="spacing" textLength="96" x="497" y="172.0967">que dans CU02a</text><line style="stroke:#A80036;stroke-width:1.0;" x1="219.5" x2="229.5" y1="218.4805" y2="214.4805"/><line style="stroke:#A80036;stroke-width:1.0;" x1="219.5" x2="229.5" y1="218.4805" y2="222.4805"/><line style="stroke:#A80036;stroke-width:1.0;stroke-dasharray:2.0,2.0;" x1="219.5" x2="485.5" y1="218.4805" y2="218.4805"/><text fill="#000000" font-family="sans-serif" font-size="13" lengthAdjust="spacing" textLength="199" x="236.5" y="213.624">liste des questions de l'enseignant</text><path d="M5,189.9531 L5,231.9531 L215,231.9531 L215,199.9531 L205,189.9531 L5,189.9531 " fill="#FBFB77" style="stroke:#A80036;stroke-width:1.0;"/><path d="M205,189.9531 L205,199.9531 L215,199.9531 L205,189.9531 " fill="#FBFB77" style="stroke:#A80036;stroke-width:1.0;"/><text fill="#000000" font-family="sans-serif" font-size="13" lengthAdjust="spacing" textLength="189" x="11" y="208.4482">dans UI : selectionne la question</text><text fill="#000000" font-family="sans-serif" font-size="13" lengthAdjust="spacing" textLength="112" x="11" y="224.7998">et affiche son détail</text><!--MD5=[2e20ebdcb7568462c3e9360a637112ec]
@startuml DSS
skinparam style strictuml
hide empty members
title DSS CU02b - Récupérer question

actor ":Enseignant" as e 
participant ":Systeme" as s 
e -> s : postCoursSelectionne(null , token : string)
note right : même fonction\nque dans CU02a
e<<- - s : liste des questions de l'enseignant
note left : dans UI : selectionne la question\net affiche son détail
@enduml

PlantUML version 1.2021.14(Fri Nov 12 11:46:50 EST 2021)
(GPL source distribution)
Java Runtime: OpenJDK Runtime Environment
JVM: OpenJDK 64-Bit Server VM
Default Encoding: Cp1252
Language: fr
Country: CA
--></g></svg>