<?xml version="1.0" encoding="UTF-8" standalone="no"?><svg xmlns="http://www.w3.org/2000/svg" xmlns:xlink="http://www.w3.org/1999/xlink" contentScriptType="application/ecmascript" contentStyleType="text/css" height="310px" preserveAspectRatio="none" style="width:1012px;height:310px;background:#FFFFFF;" version="1.1" viewBox="0 0 1012 310" width="1012px" zoomAndPan="magnify"><defs/><g><text fill="#000000" font-family="Verdana" font-size="18" lengthAdjust="spacing" textLength="275" x="370" y="30.0967">DSS CU02c - Modifier question</text><line style="stroke:#A80036;stroke-width:1.0;stroke-dasharray:5.0,5.0;" x1="249" x2="249" y1="120.8906" y2="303.6865"/><line style="stroke:#A80036;stroke-width:1.0;stroke-dasharray:5.0,5.0;" x1="871.5" x2="871.5" y1="120.8906" y2="303.6865"/><text fill="#000000" font-family="Verdana" font-size="14" lengthAdjust="spacing" textLength="84" x="204" y="117.9512">:Enseignant</text><ellipse cx="249" cy="50.876" fill="#FEFECE" rx="8" ry="8" style="stroke:#A80036;stroke-width:2.0;"/><path d="M249,58.876 L249,85.876 M236,66.876 L262,66.876 M249,85.876 L236,100.876 M249,85.876 L262,100.876 " fill="none" style="stroke:#A80036;stroke-width:2.0;"/><rect fill="#FEFECE" height="31.0146" style="stroke:#A80036;stroke-width:1.5;" width="81" x="831.5" y="88.876"/><text fill="#000000" font-family="Verdana" font-size="14" lengthAdjust="spacing" textLength="67" x="838.5" y="109.9512">:Systeme</text><polygon fill="#A80036" points="860,159.5896,870,163.5896,860,167.5896" style="stroke:#A80036;stroke-width:1.0;"/><line style="stroke:#A80036;stroke-width:1.0;" x1="249" x2="866" y1="163.5896" y2="163.5896"/><text fill="#000000" font-family="Verdana" font-size="13" lengthAdjust="spacing" textLength="282" x="419.5" y="158.8601">postCoursSelectionne(null , token : string)</text><path d="M877,135.8906 L877,176.8906 L1005,176.8906 L1005,145.8906 L995,135.8906 L877,135.8906 " fill="#FBFB77" style="stroke:#A80036;stroke-width:1.0;"/><path d="M995,135.8906 L995,145.8906 L1005,145.8906 L995,135.8906 " fill="#FBFB77" style="stroke:#A80036;stroke-width:1.0;"/><text fill="#000000" font-family="Verdana" font-size="13" lengthAdjust="spacing" textLength="97" x="883" y="153.9604">même fonction</text><text fill="#000000" font-family="Verdana" font-size="13" lengthAdjust="spacing" textLength="107" x="883" y="169.7598">que dans CU02a</text><line style="stroke:#A80036;stroke-width:1.0;" x1="249" x2="259" y1="215.1882" y2="211.1882"/><line style="stroke:#A80036;stroke-width:1.0;" x1="249" x2="259" y1="215.1882" y2="219.1882"/><line style="stroke:#A80036;stroke-width:1.0;stroke-dasharray:2.0,2.0;" x1="249" x2="871" y1="215.1882" y2="215.1882"/><text fill="#000000" font-family="Verdana" font-size="13" lengthAdjust="spacing" textLength="227" x="447" y="210.4587">liste des questions de l'enseignant</text><path d="M5,187.4893 L5,228.4893 L244,228.4893 L244,197.4893 L234,187.4893 L5,187.4893 " fill="#FBFB77" style="stroke:#A80036;stroke-width:1.0;"/><path d="M234,187.4893 L234,197.4893 L244,197.4893 L234,187.4893 " fill="#FBFB77" style="stroke:#A80036;stroke-width:1.0;"/><text fill="#000000" font-family="Verdana" font-size="13" lengthAdjust="spacing" textLength="218" x="11" y="205.5591">dans UI : selectionne la question</text><text fill="#000000" font-family="Verdana" font-size="13" lengthAdjust="spacing" textLength="133" x="11" y="221.3584">et affiche son détail</text><polygon fill="#A80036" points="860,251.8872,870,255.8872,860,259.8872" style="stroke:#A80036;stroke-width:1.0;"/><line style="stroke:#A80036;stroke-width:1.0;" x1="249" x2="866" y1="255.8872" y2="255.8872"/><text fill="#000000" font-family="Verdana" font-size="13" lengthAdjust="spacing" textLength="599" x="261" y="251.1577">modifierQuestion(questionOriginale : string,type:string,tags:string ... (autres paramètres))</text><line style="stroke:#A80036;stroke-width:1.0;" x1="249" x2="259" y1="285.6865" y2="281.6865"/><line style="stroke:#A80036;stroke-width:1.0;" x1="249" x2="259" y1="285.6865" y2="289.6865"/><line style="stroke:#A80036;stroke-width:1.0;stroke-dasharray:2.0,2.0;" x1="249" x2="871" y1="285.6865" y2="285.6865"/><text fill="#000000" font-family="Verdana" font-size="13" lengthAdjust="spacing" textLength="58" x="531.5" y="280.957">Question</text><!--MD5=[ffec7e4b03db43141b79d0f682ede1e8]
@startuml DSS
skinparam style strictuml
skinparam defaultfontname Verdana
skinparam sequence {
    MessageAlign center
}
hide empty members
title DSS CU02c - Modifier question

actor ":Enseignant" as e 
participant ":Systeme" as s 

e -> s : postCoursSelectionne(null , token : string)
note right : même fonction\nque dans CU02a
e<<- - s : liste des questions de l'enseignant
note left : dans UI : selectionne la question\net affiche son détail
e -> s : modifierQuestion(questionOriginale : string,type:string,tags:string ... (autres paramètres))
e <<- - s : Question
@enduml

PlantUML version 1.2021.14(Fri Nov 12 11:46:50 EST 2021)
(GPL source distribution)
Java Runtime: OpenJDK Runtime Environment
JVM: OpenJDK 64-Bit Server VM
Default Encoding: Cp1252
Language: fr
Country: CA
--></g></svg>