<?xml version="1.0" encoding="UTF-8" standalone="no"?><svg xmlns="http://www.w3.org/2000/svg" xmlns:xlink="http://www.w3.org/1999/xlink" contentScriptType="application/ecmascript" contentStyleType="text/css" height="551px" preserveAspectRatio="none" style="width:1654px;height:551px;background:#FFFFFF;" version="1.1" viewBox="0 0 1654 551" width="1654px" zoomAndPan="magnify"><defs/><g><text fill="#000000" font-family="sans-serif" font-size="18" lengthAdjust="spacing" textLength="614" x="521.75" y="30.6855">RDCU CU05a - postTypeQuestion(group_id : string, typeSelectionne : string)</text><line style="stroke:#A80036;stroke-width:1.0;stroke-dasharray:5.0,5.0;" x1="459" x2="459" y1="91.8594" y2="544.8359"/><line style="stroke:#A80036;stroke-width:1.0;stroke-dasharray:5.0,5.0;" x1="827" x2="827" y1="91.8594" y2="544.8359"/><line style="stroke:#A80036;stroke-width:1.0;stroke-dasharray:5.0,5.0;" x1="980" x2="980" y1="91.8594" y2="544.8359"/><line style="stroke:#A80036;stroke-width:1.0;stroke-dasharray:5.0,5.0;" x1="1103" x2="1103" y1="91.8594" y2="544.8359"/><line style="stroke:#A80036;stroke-width:1.0;stroke-dasharray:5.0,5.0;" x1="1173" x2="1173" y1="91.8594" y2="544.8359"/><rect fill="#FEFECE" height="31.6094" style="stroke:#A80036;stroke-width:1.5;" width="170" x="374" y="59.25"/><text fill="#000000" font-family="sans-serif" font-size="14" lengthAdjust="spacing" textLength="156" x="381" y="80.7832">ControleurQuestionnaire</text><rect fill="#FEFECE" height="31.6094" style="stroke:#A80036;stroke-width:1.5;" width="150" x="752" y="59.25"/><text fill="#000000" font-family="sans-serif" font-size="14" lengthAdjust="spacing" textLength="136" x="759" y="80.7832">utilisateur:Enseignant</text><rect fill="#FEFECE" height="49.2188" style="stroke:#A80036;stroke-width:1.5;" width="136" x="912" y="41.6406"/><text fill="#000000" font-family="sans-serif" font-size="14" lengthAdjust="spacing" textLength="42" x="959" y="63.1738">Cours:</text><text fill="#000000" font-family="sans-serif" font-size="14" lengthAdjust="spacing" textLength="122" x="919" y="80.7832">Map&lt;String,Cours&gt;</text><rect fill="#FEFECE" height="31.6094" style="stroke:#A80036;stroke-width:1.5;" width="91" x="1058" y="59.25"/><text fill="#000000" font-family="sans-serif" font-size="14" lengthAdjust="spacing" textLength="77" x="1065" y="80.7832">cours:Cours</text><rect fill="#FEFECE" height="31.6094" style="stroke:#A80036;stroke-width:1.5;" width="29" x="1159" y="59.25"/><text fill="#000000" font-family="sans-serif" font-size="14" lengthAdjust="spacing" textLength="15" x="1166" y="80.7832">cq</text><polygon fill="#A80036" points="447,123.2109,457,127.2109,447,131.2109" style="stroke:#A80036;stroke-width:1.0;"/><line style="stroke:#A80036;stroke-width:1.0;" x1="0" x2="453" y1="127.2109" y2="127.2109"/><text fill="#000000" font-family="sans-serif" font-size="13" lengthAdjust="spacing" textLength="435" x="7" y="122.3545">postTypeQuestion(group_id : string, typeSelectionne : string, token : string)</text><path d="M464,106.8594 L464,132.8594 L579,132.8594 L579,116.8594 L569,106.8594 L464,106.8594 " fill="#FBFB77" style="stroke:#A80036;stroke-width:1.0;"/><path d="M569,106.8594 L569,116.8594 L579,116.8594 L569,106.8594 " fill="#FBFB77" style="stroke:#A80036;stroke-width:1.0;"/><text fill="#000000" font-family="sans-serif" font-size="13" lengthAdjust="spacing" textLength="94" x="470" y="125.3545">selon Contrôleur</text><line style="stroke:#A80036;stroke-width:1.0;" x1="1173.5" x2="1215.5" y1="160.5625" y2="160.5625"/><line style="stroke:#A80036;stroke-width:1.0;" x1="1215.5" x2="1215.5" y1="160.5625" y2="173.5625"/><line style="stroke:#A80036;stroke-width:1.0;" x1="1174.5" x2="1215.5" y1="173.5625" y2="173.5625"/><polygon fill="#A80036" points="1184.5,169.5625,1174.5,173.5625,1184.5,177.5625" style="stroke:#A80036;stroke-width:1.0;"/><text fill="#000000" font-family="sans-serif" font-size="13" lengthAdjust="spacing" textLength="266" x="1180.5" y="155.7061">recupererEnseignantAvecToken(token : string)</text><path d="M1458,146.7109 L1458,172.7109 L1647,172.7109 L1647,156.7109 L1637,146.7109 L1458,146.7109 " fill="#FBFB77" style="stroke:#A80036;stroke-width:1.0;"/><path d="M1637,146.7109 L1637,156.7109 L1647,156.7109 L1637,146.7109 " fill="#FBFB77" style="stroke:#A80036;stroke-width:1.0;"/><text fill="#000000" font-family="sans-serif" font-size="13" lengthAdjust="spacing" textLength="168" x="1464" y="165.2061">etape de verification de token</text><polygon fill="#A80036" points="815,219.2656,825,223.2656,815,227.2656" style="stroke:#A80036;stroke-width:1.0;"/><line style="stroke:#A80036;stroke-width:1.0;" x1="459" x2="821" y1="223.2656" y2="223.2656"/><text fill="#000000" font-family="sans-serif" font-size="13" lengthAdjust="spacing" textLength="344" x="466" y="218.4092">getListeQuestion(group_id : string, typeSelectionne : string)</text><path d="M832,186.5625 L832,245.5625 L1038,245.5625 L1038,196.5625 L1028,186.5625 L832,186.5625 " fill="#FBFB77" style="stroke:#A80036;stroke-width:1.0;"/><path d="M1028,186.5625 L1028,196.5625 L1038,196.5625 L1028,186.5625 " fill="#FBFB77" style="stroke:#A80036;stroke-width:1.0;"/><text fill="#000000" font-family="sans-serif" font-size="13" lengthAdjust="spacing" textLength="73" x="838" y="205.0576">selon Expert</text><text fill="#000000" font-family="sans-serif" font-size="13" lengthAdjust="spacing" textLength="185" x="838" y="221.4092">ControleurQuestionnaire connait</text><text fill="#000000" font-family="sans-serif" font-size="13" lengthAdjust="spacing" textLength="61" x="838" y="237.7607">l'utilisateur</text><polygon fill="#A80036" points="968,296.4961,978,300.4961,968,304.4961" style="stroke:#A80036;stroke-width:1.0;"/><line style="stroke:#A80036;stroke-width:1.0;" x1="827" x2="974" y1="300.4961" y2="300.4961"/><text fill="#000000" font-family="sans-serif" font-size="13" lengthAdjust="spacing" textLength="119" x="834" y="295.6396">get(group_id : string)</text><path d="M985,255.6172 L985,330.6172 L1130,330.6172 L1130,265.6172 L1120,255.6172 L985,255.6172 " fill="#FBFB77" style="stroke:#A80036;stroke-width:1.0;"/><path d="M1120,255.6172 L1120,265.6172 L1130,265.6172 L1120,255.6172 " fill="#FBFB77" style="stroke:#A80036;stroke-width:1.0;"/><text fill="#000000" font-family="sans-serif" font-size="13" lengthAdjust="spacing" textLength="73" x="991" y="274.1123">selon Expert</text><text fill="#000000" font-family="sans-serif" font-size="13" lengthAdjust="spacing" textLength="113" x="991" y="290.4639">enseignant a accès</text><text fill="#000000" font-family="sans-serif" font-size="13" lengthAdjust="spacing" textLength="78" x="991" y="306.8154">aux cours qui</text><text fill="#000000" font-family="sans-serif" font-size="13" lengthAdjust="spacing" textLength="124" x="991" y="323.167">contiennent les maps</text><polygon fill="#A80036" points="838,354.375,828,358.375,838,362.375" style="stroke:#A80036;stroke-width:1.0;"/><line style="stroke:#A80036;stroke-width:1.0;stroke-dasharray:2.0,2.0;" x1="832" x2="979" y1="358.375" y2="358.375"/><text fill="#000000" font-family="sans-serif" font-size="13" lengthAdjust="spacing" textLength="78" x="844" y="353.5186">cours : Cours</text><polygon fill="#A80036" points="1091.5,404.0781,1101.5,408.0781,1091.5,412.0781" style="stroke:#A80036;stroke-width:1.0;"/><line style="stroke:#A80036;stroke-width:1.0;" x1="827" x2="1097.5" y1="408.0781" y2="408.0781"/><text fill="#000000" font-family="sans-serif" font-size="13" lengthAdjust="spacing" textLength="106" x="834" y="403.2217">getListeQuestion()</text><path d="M1108,371.375 L1108,430.375 L1242,430.375 L1242,381.375 L1232,371.375 L1108,371.375 " fill="#FBFB77" style="stroke:#A80036;stroke-width:1.0;"/><path d="M1232,371.375 L1232,381.375 L1242,381.375 L1232,371.375 " fill="#FBFB77" style="stroke:#A80036;stroke-width:1.0;"/><text fill="#000000" font-family="sans-serif" font-size="13" lengthAdjust="spacing" textLength="73" x="1114" y="389.8701">selon Expert</text><text fill="#000000" font-family="sans-serif" font-size="13" lengthAdjust="spacing" textLength="113" x="1114" y="406.2217">enseignant a accès</text><text fill="#000000" font-family="sans-serif" font-size="13" lengthAdjust="spacing" textLength="57" x="1114" y="422.5732">aux cours</text><polygon fill="#A80036" points="838,473.1328,828,477.1328,838,481.1328" style="stroke:#A80036;stroke-width:1.0;"/><line style="stroke:#A80036;stroke-width:1.0;stroke-dasharray:2.0,2.0;" x1="832" x2="1102.5" y1="477.1328" y2="477.1328"/><text fill="#000000" font-family="sans-serif" font-size="13" lengthAdjust="spacing" textLength="60" x="844" y="472.2764">[Question]</text><path d="M625,440.4297 L625,499.4297 L822,499.4297 L822,450.4297 L812,440.4297 L625,440.4297 " fill="#FBFB77" style="stroke:#A80036;stroke-width:1.0;"/><path d="M812,440.4297 L812,450.4297 L822,450.4297 L812,440.4297 " fill="#FBFB77" style="stroke:#A80036;stroke-width:1.0;"/><text fill="#000000" font-family="sans-serif" font-size="13" lengthAdjust="spacing" textLength="104" x="631" y="458.9248">appelle la fonction</text><text fill="#000000" font-family="sans-serif" font-size="13" lengthAdjust="spacing" textLength="176" x="631" y="475.2764">et tri les questions pour garder</text><text fill="#000000" font-family="sans-serif" font-size="13" lengthAdjust="spacing" textLength="128" x="631" y="491.6279">ceux du type souhaité</text><polygon fill="#A80036" points="470,522.8359,460,526.8359,470,530.8359" style="stroke:#A80036;stroke-width:1.0;"/><line style="stroke:#A80036;stroke-width:1.0;stroke-dasharray:2.0,2.0;" x1="464" x2="826" y1="526.8359" y2="526.8359"/><text fill="#000000" font-family="sans-serif" font-size="13" lengthAdjust="spacing" textLength="60" x="476" y="521.9795">[Question]</text><!--MD5=[594c6bb9d574ce85796190cb8d0ff729]
@startuml RDCU CU05a
skinparam style strictuml
hide empty members
title RDCU CU05a - postTypeQuestion(group_id : string, typeSelectionne : string)

participant "ControleurQuestionnaire" as cqq
participant "utilisateur:Enseignant" as u
participant "Cours:\nMap<String,Cours>" as sc
participant "cours:Cours" as c

->cqq : postTypeQuestion(group_id : string, typeSelectionne : string, token : string)
note right : selon Contrôleur
cq->cq : recupererEnseignantAvecToken(token : string)
note right : etape de verification de token
cqq->u : getListeQuestion(group_id : string, typeSelectionne : string)
note right : selon Expert\nControleurQuestionnaire connait\nl'utilisateur
u->sc : get(group_id : string)
note right : selon Expert\nenseignant a accès\naux cours qui\ncontiennent les maps
sc- ->u : cours : Cours
u->c : getListeQuestion()
note right : selon Expert\nenseignant a accès\naux cours
c- ->u : [Question]
note left : appelle la fonction\net tri les questions pour garder\nceux du type souhaité
u- ->cqq : [Question]
@enduml

PlantUML version 1.2021.14(Fri Nov 12 11:46:50 EST 2021)
(GPL source distribution)
Java Runtime: OpenJDK Runtime Environment
JVM: OpenJDK 64-Bit Server VM
Default Encoding: Cp1252
Language: fr
Country: CA
--></g></svg>