<?xml version="1.0" encoding="UTF-8" standalone="no"?><svg xmlns="http://www.w3.org/2000/svg" xmlns:xlink="http://www.w3.org/1999/xlink" contentScriptType="application/ecmascript" contentStyleType="text/css" height="402px" preserveAspectRatio="none" style="width:734px;height:402px;background:#FFFFFF;" version="1.1" viewBox="0 0 734 402" width="734px" zoomAndPan="magnify"><defs/><g><text fill="#000000" font-family="sans-serif" font-size="18" lengthAdjust="spacing" textLength="227" x="255.25" y="30.6855">DSS CU03a - Ajouter Devoir</text><rect fill="#FFFFFF" height="95.4063" style="stroke:#000000;stroke-width:2.0;" width="584.5" x="10" y="283.0078"/><line style="stroke:#A80036;stroke-width:1.0;stroke-dasharray:5.0,5.0;" x1="60" x2="60" y1="122.25" y2="395.4141"/><line style="stroke:#A80036;stroke-width:1.0;stroke-dasharray:5.0,5.0;" x1="548.5" x2="548.5" y1="122.25" y2="395.4141"/><text fill="#000000" font-family="sans-serif" font-size="14" lengthAdjust="spacing" textLength="75" x="20" y="119.1738">:Enseignant</text><ellipse cx="60.5" cy="51.6406" fill="#FEFECE" rx="8" ry="8" style="stroke:#A80036;stroke-width:2.0;"/><path d="M60.5,59.6406 L60.5,86.6406 M47.5,67.6406 L73.5,67.6406 M60.5,86.6406 L47.5,101.6406 M60.5,86.6406 L73.5,101.6406 " fill="none" style="stroke:#A80036;stroke-width:2.0;"/><rect fill="#FEFECE" height="31.6094" style="stroke:#A80036;stroke-width:1.5;" width="72" x="512.5" y="89.6406"/><text fill="#000000" font-family="sans-serif" font-size="14" lengthAdjust="spacing" textLength="58" x="519.5" y="111.1738">:Systeme</text><polygon fill="#A80036" points="536.5,153.6016,546.5,157.6016,536.5,161.6016" style="stroke:#A80036;stroke-width:1.0;"/><line style="stroke:#A80036;stroke-width:1.0;" x1="60.5" x2="542.5" y1="157.6016" y2="157.6016"/><text fill="#000000" font-family="sans-serif" font-size="13" lengthAdjust="spacing" textLength="229" x="67.5" y="152.7451">getListeNomsCours(enseignant : string)</text><path d="M553,137.25 L553,163.25 L727,163.25 L727,147.25 L717,137.25 L553,137.25 " fill="#FBFB77" style="stroke:#A80036;stroke-width:1.0;"/><path d="M717,137.25 L717,147.25 L727,147.25 L717,137.25 " fill="#FBFB77" style="stroke:#A80036;stroke-width:1.0;"/><text fill="#000000" font-family="sans-serif" font-size="13" lengthAdjust="spacing" textLength="153" x="559" y="155.7451">Même fonction que CU01b</text><line style="stroke:#A80036;stroke-width:1.0;" x1="60.5" x2="70.5" y1="207.3047" y2="203.3047"/><line style="stroke:#A80036;stroke-width:1.0;" x1="60.5" x2="70.5" y1="207.3047" y2="211.3047"/><line style="stroke:#A80036;stroke-width:1.0;stroke-dasharray:2.0,2.0;" x1="60.5" x2="547.5" y1="207.3047" y2="207.3047"/><text fill="#000000" font-family="sans-serif" font-size="13" lengthAdjust="spacing" textLength="210" x="77.5" y="186.0967">liste des cours actifs de l'enseignant</text><text fill="#000000" font-family="sans-serif" font-size="13" lengthAdjust="spacing" textLength="291" x="77.5" y="202.4482">(et le nombre de devoirs associés a chaque cours)</text><polygon fill="#A80036" points="536.5,233.6563,546.5,237.6563,536.5,241.6563" style="stroke:#A80036;stroke-width:1.0;"/><line style="stroke:#A80036;stroke-width:1.0;" x1="60.5" x2="542.5" y1="237.6563" y2="237.6563"/><text fill="#000000" font-family="sans-serif" font-size="13" lengthAdjust="spacing" textLength="330" x="67.5" y="232.7998">postCoursSelectionneDevoir(cours : string, token : string)</text><line style="stroke:#A80036;stroke-width:1.0;" x1="60.5" x2="70.5" y1="268.0078" y2="264.0078"/><line style="stroke:#A80036;stroke-width:1.0;" x1="60.5" x2="70.5" y1="268.0078" y2="272.0078"/><line style="stroke:#A80036;stroke-width:1.0;stroke-dasharray:2.0,2.0;" x1="60.5" x2="547.5" y1="268.0078" y2="268.0078"/><text fill="#000000" font-family="sans-serif" font-size="13" lengthAdjust="spacing" textLength="189" x="77.5" y="263.1514">liste de devoirs associé au cours</text><path d="M10,283.0078 L83,283.0078 L83,291.0078 L73,301.0078 L10,301.0078 L10,283.0078 " fill="#EEEEEE" style="stroke:#000000;stroke-width:1.0;"/><rect fill="none" height="95.4063" style="stroke:#000000;stroke-width:2.0;" width="584.5" x="10" y="283.0078"/><text fill="#000000" font-family="sans-serif" font-size="13" font-weight="bold" lengthAdjust="spacing" textLength="28" x="25" y="297.5029">loop</text><text fill="#000000" font-family="sans-serif" font-size="11" font-weight="bold" lengthAdjust="spacing" textLength="90" x="98" y="296.4268">[nouveauDevoir]</text><polygon fill="#A80036" points="536.5,336.0625,546.5,340.0625,536.5,344.0625" style="stroke:#A80036;stroke-width:1.0;"/><line style="stroke:#A80036;stroke-width:1.0;" x1="60.5" x2="542.5" y1="340.0625" y2="340.0625"/><text fill="#000000" font-family="sans-serif" font-size="13" lengthAdjust="spacing" textLength="464" x="67.5" y="318.8545">createDevoir(cours : Cours, nom : string, description : string, noteMaximale : int,</text><text fill="#000000" font-family="sans-serif" font-size="13" lengthAdjust="spacing" textLength="408" x="71.5" y="335.2061">dateDebut : string, dateFin : string, etatVisible: boolean, token : string)</text><line style="stroke:#A80036;stroke-width:1.0;" x1="60.5" x2="70.5" y1="370.4141" y2="366.4141"/><line style="stroke:#A80036;stroke-width:1.0;" x1="60.5" x2="70.5" y1="370.4141" y2="374.4141"/><line style="stroke:#A80036;stroke-width:1.0;stroke-dasharray:2.0,2.0;" x1="60.5" x2="547.5" y1="370.4141" y2="370.4141"/><text fill="#000000" font-family="sans-serif" font-size="13" lengthAdjust="spacing" textLength="315" x="77.5" y="365.5576">"Devoir a été créé" et liste de devoirs associé au cours</text><!--MD5=[7c2e9a2c7ffd73e059f1c32aefb3fac8]
@startuml DSS
skinparam style strictuml
hide empty members
title DSS CU03a - Ajouter Devoir

actor ":Enseignant" as e
participant ":Systeme" as s

e -> s : getListeNomsCours(enseignant : string)
note right : Même fonction que CU01b
e <<- - s : liste des cours actifs de l'enseignant\n(et le nombre de devoirs associés a chaque cours)
e -> s : postCoursSelectionneDevoir(cours : string, token : string)
e <<- - s : liste de devoirs associé au cours
loop nouveauDevoir
e -> s : createDevoir(cours : Cours, nom : string, description : string, noteMaximale : int,\n dateDebut : string, dateFin : string, etatVisible: boolean, token : string)
e <<- - s : "Devoir a été créé" et liste de devoirs associé au cours
end loop
@enduml

PlantUML version 1.2021.14(Fri Nov 12 11:46:50 EST 2021)
(GPL source distribution)
Java Runtime: OpenJDK Runtime Environment
JVM: OpenJDK 64-Bit Server VM
Default Encoding: Cp1252
Language: fr
Country: CA
--></g></svg>