<?xml version="1.0" encoding="UTF-8" standalone="no"?><svg xmlns="http://www.w3.org/2000/svg" xmlns:xlink="http://www.w3.org/1999/xlink" contentScriptType="application/ecmascript" contentStyleType="text/css" height="326px" preserveAspectRatio="none" style="width:814px;height:326px;background:#FFFFFF;" version="1.1" viewBox="0 0 814 326" width="814px" zoomAndPan="magnify"><defs/><g><text fill="#000000" font-family="Verdana" font-size="18" lengthAdjust="spacing" textLength="238" x="289.5" y="30.0967">DSS CU01c - Retirer cours</text><line style="stroke:#A80036;stroke-width:1.0;stroke-dasharray:5.0,5.0;" x1="313" x2="313" y1="120.8906" y2="319.4858"/><line style="stroke:#A80036;stroke-width:1.0;stroke-dasharray:5.0,5.0;" x1="673.5" x2="673.5" y1="120.8906" y2="319.4858"/><text fill="#000000" font-family="Verdana" font-size="14" lengthAdjust="spacing" textLength="84" x="268" y="117.9512">:Enseignant</text><ellipse cx="313" cy="50.876" fill="#FEFECE" rx="8" ry="8" style="stroke:#A80036;stroke-width:2.0;"/><path d="M313,58.876 L313,85.876 M300,66.876 L326,66.876 M313,85.876 L300,100.876 M313,85.876 L326,100.876 " fill="none" style="stroke:#A80036;stroke-width:2.0;"/><rect fill="#FEFECE" height="31.0146" style="stroke:#A80036;stroke-width:1.5;" width="81" x="633.5" y="88.876"/><text fill="#000000" font-family="Verdana" font-size="14" lengthAdjust="spacing" textLength="67" x="640.5" y="109.9512">:Système</text><polygon fill="#A80036" points="662,159.5896,672,163.5896,662,167.5896" style="stroke:#A80036;stroke-width:1.0;"/><line style="stroke:#A80036;stroke-width:1.0;" x1="313" x2="668" y1="163.5896" y2="163.5896"/><text fill="#000000" font-family="Verdana" font-size="13" lengthAdjust="spacing" textLength="227" x="380" y="158.8601">getCoursUtilisateur(token : string)</text><path d="M679,135.8906 L679,176.8906 L807,176.8906 L807,145.8906 L797,135.8906 L679,135.8906 " fill="#FBFB77" style="stroke:#A80036;stroke-width:1.0;"/><path d="M797,135.8906 L797,145.8906 L807,145.8906 L797,135.8906 " fill="#FBFB77" style="stroke:#A80036;stroke-width:1.0;"/><text fill="#000000" font-family="Verdana" font-size="13" lengthAdjust="spacing" textLength="97" x="685" y="153.9604">même fonction</text><text fill="#000000" font-family="Verdana" font-size="13" lengthAdjust="spacing" textLength="107" x="685" y="169.7598">que dans CU01b</text><line style="stroke:#A80036;stroke-width:1.0;" x1="313" x2="323" y1="215.1882" y2="211.1882"/><line style="stroke:#A80036;stroke-width:1.0;" x1="313" x2="323" y1="215.1882" y2="219.1882"/><line style="stroke:#A80036;stroke-width:1.0;stroke-dasharray:2.0,2.0;" x1="313" x2="673" y1="215.1882" y2="215.1882"/><text fill="#000000" font-family="Verdana" font-size="13" lengthAdjust="spacing" textLength="200" x="393.5" y="210.4587">liste des cours de l'enseignant</text><path d="M5,187.4893 L5,228.4893 L308,228.4893 L308,197.4893 L298,187.4893 L5,187.4893 " fill="#FBFB77" style="stroke:#A80036;stroke-width:1.0;"/><path d="M298,187.4893 L298,197.4893 L308,197.4893 L298,187.4893 " fill="#FBFB77" style="stroke:#A80036;stroke-width:1.0;"/><text fill="#000000" font-family="Verdana" font-size="13" lengthAdjust="spacing" textLength="198" x="11" y="205.5591">dans UI : selectionne le cours</text><text fill="#000000" font-family="Verdana" font-size="13" lengthAdjust="spacing" textLength="282" x="11" y="221.3584">et affiche son détail et sa liste d'étudiants</text><polygon fill="#A80036" points="662,251.8872,672,255.8872,662,259.8872" style="stroke:#A80036;stroke-width:1.0;"/><line style="stroke:#A80036;stroke-width:1.0;" x1="313" x2="668" y1="255.8872" y2="255.8872"/><text fill="#000000" font-family="Verdana" font-size="13" lengthAdjust="spacing" textLength="337" x="325" y="251.1577">deleteCoursChoisi(group_id : string, token : string)</text><line style="stroke:#A80036;stroke-width:1.0;" x1="313" x2="323" y1="301.4858" y2="297.4858"/><line style="stroke:#A80036;stroke-width:1.0;" x1="313" x2="323" y1="301.4858" y2="305.4858"/><line style="stroke:#A80036;stroke-width:1.0;stroke-dasharray:2.0,2.0;" x1="313" x2="673" y1="301.4858" y2="301.4858"/><text fill="#000000" font-family="Verdana" font-size="13" lengthAdjust="spacing" textLength="150" x="418.5" y="280.957">cours supprimé et liste</text><text fill="#000000" font-family="Verdana" font-size="13" lengthAdjust="spacing" textLength="168" x="412" y="296.7563">des cours de l'enseignant</text><!--MD5=[869c48692bfa84796758a438ed991c2d]
@startuml DSS

skinparam style strictuml
skinparam defaultfontname Verdana
skinparam sequence {
    MessageAlign center
}
title DSS CU01c - Retirer cours

actor ":Enseignant" as e
participant ":Système" as s

e->s : getCoursUtilisateur(token : string)
note right : même fonction\nque dans CU01b
e<<- -s : liste des cours de l'enseignant
note left : dans UI : selectionne le cours\net affiche son détail et sa liste d'étudiants
e->s : deleteCoursChoisi(group_id : string, token : string)
e<<- -s : cours supprimé et liste\n des cours de l'enseignant
@enduml

PlantUML version 1.2021.14(Fri Nov 12 11:46:50 EST 2021)
(GPL source distribution)
Java Runtime: OpenJDK Runtime Environment
JVM: OpenJDK 64-Bit Server VM
Default Encoding: Cp1252
Language: fr
Country: CA
--></g></svg>