<?xml version="1.0" encoding="UTF-8" standalone="no"?><svg xmlns="http://www.w3.org/2000/svg" xmlns:xlink="http://www.w3.org/1999/xlink" contentScriptType="application/ecmascript" contentStyleType="text/css" height="545px" preserveAspectRatio="none" style="width:966px;height:545px;background:#FFFFFF;" version="1.1" viewBox="0 0 966 545" width="966px" zoomAndPan="magnify"><defs/><g><text fill="#000000" font-family="Verdana" font-size="18" lengthAdjust="spacing" textLength="320" x="324.5" y="30.0967">DSS CU05a - Ajouter Questionnaire</text><rect fill="#FFFFFF" height="182.5952" style="stroke:#000000;stroke-width:2.0;" width="800.5" x="10" y="338.4858"/><line style="stroke:#A80036;stroke-width:1.0;stroke-dasharray:5.0,5.0;" x1="65" x2="65" y1="120.8906" y2="538.0811"/><line style="stroke:#A80036;stroke-width:1.0;stroke-dasharray:5.0,5.0;" x1="759.5" x2="759.5" y1="120.8906" y2="538.0811"/><text fill="#000000" font-family="Verdana" font-size="14" lengthAdjust="spacing" textLength="84" x="20" y="117.9512">:Enseignant</text><ellipse cx="65" cy="50.876" fill="#FEFECE" rx="8" ry="8" style="stroke:#A80036;stroke-width:2.0;"/><path d="M65,58.876 L65,85.876 M52,66.876 L78,66.876 M65,85.876 L52,100.876 M65,85.876 L78,100.876 " fill="none" style="stroke:#A80036;stroke-width:2.0;"/><rect fill="#FEFECE" height="31.0146" style="stroke:#A80036;stroke-width:1.5;" width="81" x="719.5" y="88.876"/><text fill="#000000" font-family="Verdana" font-size="14" lengthAdjust="spacing" textLength="67" x="726.5" y="109.9512">:Système</text><polygon fill="#A80036" points="748,151.6899,758,155.6899,748,159.6899" style="stroke:#A80036;stroke-width:1.0;"/><line style="stroke:#A80036;stroke-width:1.0;" x1="65" x2="754" y1="155.6899" y2="155.6899"/><text fill="#000000" font-family="Verdana" font-size="13" lengthAdjust="spacing" textLength="227" x="299" y="150.9604">getCoursUtilisateur(token : string)</text><path d="M765,135.8906 L765,160.8906 L959,160.8906 L959,145.8906 L949,135.8906 L765,135.8906 " fill="#FBFB77" style="stroke:#A80036;stroke-width:1.0;"/><path d="M949,135.8906 L949,145.8906 L959,145.8906 L949,135.8906 " fill="#FBFB77" style="stroke:#A80036;stroke-width:1.0;"/><text fill="#000000" font-family="Verdana" font-size="13" lengthAdjust="spacing" textLength="173" x="771" y="153.9604">Même fonction que CU01b</text><line style="stroke:#A80036;stroke-width:1.0;" x1="65" x2="75" y1="204.2886" y2="200.2886"/><line style="stroke:#A80036;stroke-width:1.0;" x1="65" x2="75" y1="204.2886" y2="208.2886"/><line style="stroke:#A80036;stroke-width:1.0;stroke-dasharray:2.0,2.0;" x1="65" x2="759" y1="204.2886" y2="204.2886"/><text fill="#000000" font-family="Verdana" font-size="13" lengthAdjust="spacing" textLength="89" x="365.5" y="183.7598">liste de cours</text><text fill="#000000" font-family="Verdana" font-size="13" lengthAdjust="spacing" textLength="384" x="220.5" y="199.5591">(et le nombre de questionnaires associés a chaque cours)</text><polygon fill="#A80036" points="748,230.0879,758,234.0879,748,238.0879" style="stroke:#A80036;stroke-width:1.0;"/><line style="stroke:#A80036;stroke-width:1.0;" x1="65" x2="754" y1="234.0879" y2="234.0879"/><text fill="#000000" font-family="Verdana" font-size="13" lengthAdjust="spacing" textLength="429" x="198" y="229.3584">postCoursSelectionneQuestionnaire(cours: string, token : string)</text><line style="stroke:#A80036;stroke-width:1.0;" x1="65" x2="75" y1="263.8872" y2="259.8872"/><line style="stroke:#A80036;stroke-width:1.0;" x1="65" x2="75" y1="263.8872" y2="267.8872"/><line style="stroke:#A80036;stroke-width:1.0;stroke-dasharray:2.0,2.0;" x1="65" x2="759" y1="263.8872" y2="263.8872"/><text fill="#000000" font-family="Verdana" font-size="13" lengthAdjust="spacing" textLength="264" x="280.5" y="259.1577">liste de questionnaires associé au cours</text><polygon fill="#A80036" points="748,289.6865,758,293.6865,748,297.6865" style="stroke:#A80036;stroke-width:1.0;"/><line style="stroke:#A80036;stroke-width:1.0;" x1="65" x2="754" y1="293.6865" y2="293.6865"/><text fill="#000000" font-family="Verdana" font-size="13" lengthAdjust="spacing" textLength="671" x="77" y="288.957">createQuestionnaire(cours : Cours, nom : string, description : string, etatActif : bool, token : string)</text><line style="stroke:#A80036;stroke-width:1.0;" x1="65" x2="75" y1="323.4858" y2="319.4858"/><line style="stroke:#A80036;stroke-width:1.0;" x1="65" x2="75" y1="323.4858" y2="327.4858"/><line style="stroke:#A80036;stroke-width:1.0;stroke-dasharray:2.0,2.0;" x1="65" x2="759" y1="323.4858" y2="323.4858"/><text fill="#000000" font-family="Verdana" font-size="13" lengthAdjust="spacing" textLength="174" x="325.5" y="318.7563">"Questionnaire a été créé"</text><path d="M10,338.4858 L86,338.4858 L86,345.4858 L76,355.4858 L10,355.4858 L10,338.4858 " fill="#EEEEEE" style="stroke:#000000;stroke-width:1.0;"/><rect fill="none" height="182.5952" style="stroke:#000000;stroke-width:2.0;" width="800.5" x="10" y="338.4858"/><text fill="#000000" font-family="Verdana" font-size="13" font-weight="bold" lengthAdjust="spacing" textLength="31" x="25" y="352.5557">loop</text><text fill="#000000" font-family="Verdana" font-size="11" font-weight="bold" lengthAdjust="spacing" textLength="103" x="101" y="351.5449">[ajoutQuestion]</text><line style="stroke:#A80036;stroke-width:1.0;" x1="65" x2="75" y1="378.0845" y2="374.0845"/><line style="stroke:#A80036;stroke-width:1.0;" x1="65" x2="75" y1="378.0845" y2="382.0845"/><line style="stroke:#A80036;stroke-width:1.0;stroke-dasharray:2.0,2.0;" x1="65" x2="759" y1="378.0845" y2="378.0845"/><text fill="#000000" font-family="Verdana" font-size="13" lengthAdjust="spacing" textLength="179" x="323" y="373.355">liste de types de questions</text><polygon fill="#A80036" points="748,403.8838,758,407.8838,748,411.8838" style="stroke:#A80036;stroke-width:1.0;"/><line style="stroke:#A80036;stroke-width:1.0;" x1="65" x2="754" y1="407.8838" y2="407.8838"/><text fill="#000000" font-family="Verdana" font-size="13" lengthAdjust="spacing" textLength="511" x="157" y="403.1543">postTypeQuestion(group_id : string, typeSelectionne : string, token : string)</text><line style="stroke:#A80036;stroke-width:1.0;" x1="65" x2="75" y1="453.4824" y2="449.4824"/><line style="stroke:#A80036;stroke-width:1.0;" x1="65" x2="75" y1="453.4824" y2="457.4824"/><line style="stroke:#A80036;stroke-width:1.0;stroke-dasharray:2.0,2.0;" x1="65" x2="759" y1="453.4824" y2="453.4824"/><text fill="#000000" font-family="Verdana" font-size="13" lengthAdjust="spacing" textLength="249" x="285.5" y="432.9536">liste de questions du typeSelectionne</text><text fill="#000000" font-family="Verdana" font-size="13" lengthAdjust="spacing" textLength="404" x="210.5" y="448.7529">(et le nombre de questionnaires associés à chaque question)</text><polygon fill="#A80036" points="748,479.2817,758,483.2817,748,487.2817" style="stroke:#A80036;stroke-width:1.0;"/><line style="stroke:#A80036;stroke-width:1.0;" x1="65" x2="754" y1="483.2817" y2="483.2817"/><text fill="#000000" font-family="Verdana" font-size="13" lengthAdjust="spacing" textLength="601" x="112" y="478.5522">addQuestion(cours : Cours, listeQuestions : string[], questionnaire : string, token : string)</text><polygon fill="#A80036" points="76,509.0811,66,513.0811,76,517.0811" style="stroke:#A80036;stroke-width:1.0;"/><line style="stroke:#A80036;stroke-width:1.0;stroke-dasharray:2.0,2.0;" x1="70" x2="759" y1="513.0811" y2="513.0811"/><text fill="#000000" font-family="Verdana" font-size="13" lengthAdjust="spacing" textLength="251" x="287" y="508.3516">"Questions ajoutées au questionnaire"</text><!--MD5=[96d6851b813b810a73b83b9a4606f715]
@startuml DSS
skinparam style strictuml
skinparam defaultfontname Verdana
skinparam sequence {
    MessageAlign center
}
hide empty members
title DSS CU05a - Ajouter Questionnaire

actor ":Enseignant" as e
participant ":Système" as s

e->s : getCoursUtilisateur(token : string)
note right : Même fonction que CU01b
e<<- -s : liste de cours \n(et le nombre de questionnaires associés a chaque cours)
e->s : postCoursSelectionneQuestionnaire(cours: string, token : string)
e<<- -s : liste de questionnaires associé au cours
e->s : createQuestionnaire(cours : Cours, nom : string, description : string, etatActif : bool, token : string)
e<<- -s : "Questionnaire a été créé"
loop ajoutQuestion
e<<- -s : liste de types de questions
e->s : postTypeQuestion(group_id : string, typeSelectionne : string, token : string)
e<<- -s : liste de questions du typeSelectionne \n(et le nombre de questionnaires associés à chaque question)
e->s : addQuestion(cours : Cours, listeQuestions : string[], questionnaire : string, token : string)
s- ->e : "Questions ajoutées au questionnaire"
end loop
@enduml

PlantUML version 1.2021.14(Fri Nov 12 11:46:50 EST 2021)
(GPL source distribution)
Java Runtime: OpenJDK Runtime Environment
JVM: OpenJDK 64-Bit Server VM
Default Encoding: Cp1252
Language: fr
Country: CA
--></g></svg>