<?xml version="1.0" encoding="UTF-8" standalone="no"?><svg xmlns="http://www.w3.org/2000/svg" xmlns:xlink="http://www.w3.org/1999/xlink" contentScriptType="application/ecmascript" contentStyleType="text/css" height="579px" preserveAspectRatio="none" style="width:1317px;height:579px;background:#FFFFFF;" version="1.1" viewBox="0 0 1317 579" width="1317px" zoomAndPan="magnify"><defs/><g><text fill="#000000" font-family="sans-serif" font-size="18" lengthAdjust="spacing" textLength="636" x="342.25" y="30.6855">RDCU CU05d - supprimerQuestionnaire(group_id : string, nomQuestion : string)</text><rect fill="#FFFFFF" height="48.7031" style="stroke:#000000;stroke-width:2.0;" width="594" x="697" y="476.4297"/><line style="stroke:#A80036;stroke-width:1.0;stroke-dasharray:5.0,5.0;" x1="391" x2="391" y1="91.8594" y2="572.4844"/><line style="stroke:#A80036;stroke-width:1.0;stroke-dasharray:5.0,5.0;" x1="782" x2="782" y1="91.8594" y2="572.4844"/><line style="stroke:#A80036;stroke-width:1.0;stroke-dasharray:5.0,5.0;" x1="935" x2="935" y1="91.8594" y2="572.4844"/><line style="stroke:#A80036;stroke-width:1.0;stroke-dasharray:5.0,5.0;" x1="1106" x2="1106" y1="91.8594" y2="572.4844"/><line style="stroke:#A80036;stroke-width:1.0;stroke-dasharray:5.0,5.0;" x1="1245" x2="1245" y1="91.8594" y2="572.4844"/><rect fill="#FEFECE" height="31.6094" style="stroke:#A80036;stroke-width:1.5;" width="170" x="306" y="59.25"/><text fill="#000000" font-family="sans-serif" font-size="14" lengthAdjust="spacing" textLength="156" x="313" y="80.7832">ControleurQuestionnaire</text><rect fill="#FEFECE" height="31.6094" style="stroke:#A80036;stroke-width:1.5;" width="150" x="707" y="59.25"/><text fill="#000000" font-family="sans-serif" font-size="14" lengthAdjust="spacing" textLength="136" x="714" y="80.7832">utilisateur:Enseignant</text><rect fill="#FEFECE" height="49.2188" style="stroke:#A80036;stroke-width:1.5;" width="136" x="867" y="41.6406"/><text fill="#000000" font-family="sans-serif" font-size="14" lengthAdjust="spacing" textLength="42" x="914" y="63.1738">Cours:</text><text fill="#000000" font-family="sans-serif" font-size="14" lengthAdjust="spacing" textLength="122" x="874" y="80.7832">Map&lt;String,Cours&gt;</text><rect fill="#FEFECE" height="49.2188" style="stroke:#A80036;stroke-width:1.5;" width="187" x="1013" y="41.6406"/><text fill="#000000" font-family="sans-serif" font-size="14" lengthAdjust="spacing" textLength="39" x="1087" y="63.1738">cours:</text><text fill="#000000" font-family="sans-serif" font-size="14" lengthAdjust="spacing" textLength="173" x="1020" y="80.7832">Map&lt;String,Questionnaire&gt;</text><rect fill="#FEFECE" height="31.6094" style="stroke:#A80036;stroke-width:1.5;" width="71" x="1210" y="59.25"/><text fill="#000000" font-family="sans-serif" font-size="14" lengthAdjust="spacing" textLength="57" x="1217" y="80.7832">Question</text><polygon fill="#A80036" points="379,123.2109,389,127.2109,379,131.2109" style="stroke:#A80036;stroke-width:1.0;"/><line style="stroke:#A80036;stroke-width:1.0;" x1="0" x2="385" y1="127.2109" y2="127.2109"/><text fill="#000000" font-family="sans-serif" font-size="13" lengthAdjust="spacing" textLength="367" x="7" y="122.3545">supprimerQuestionnaire(group_id : string, nomQuestion : string)</text><path d="M396,106.8594 L396,132.8594 L511,132.8594 L511,116.8594 L501,106.8594 L396,106.8594 " fill="#FBFB77" style="stroke:#A80036;stroke-width:1.0;"/><path d="M501,106.8594 L501,116.8594 L511,116.8594 L501,106.8594 " fill="#FBFB77" style="stroke:#A80036;stroke-width:1.0;"/><text fill="#000000" font-family="sans-serif" font-size="13" lengthAdjust="spacing" textLength="94" x="402" y="125.3545">selon Contrôleur</text><line style="stroke:#A80036;stroke-width:1.0;" x1="391" x2="433" y1="160.5625" y2="160.5625"/><line style="stroke:#A80036;stroke-width:1.0;" x1="433" x2="433" y1="160.5625" y2="173.5625"/><line style="stroke:#A80036;stroke-width:1.0;" x1="392" x2="433" y1="173.5625" y2="173.5625"/><polygon fill="#A80036" points="402,169.5625,392,173.5625,402,177.5625" style="stroke:#A80036;stroke-width:1.0;"/><text fill="#000000" font-family="sans-serif" font-size="13" lengthAdjust="spacing" textLength="266" x="398" y="155.7061">recupererEnseignantAvecToken(token : string)</text><path d="M676,146.7109 L676,172.7109 L865,172.7109 L865,156.7109 L855,146.7109 L676,146.7109 " fill="#FBFB77" style="stroke:#A80036;stroke-width:1.0;"/><path d="M855,146.7109 L855,156.7109 L865,156.7109 L855,146.7109 " fill="#FBFB77" style="stroke:#A80036;stroke-width:1.0;"/><text fill="#000000" font-family="sans-serif" font-size="13" lengthAdjust="spacing" textLength="168" x="682" y="165.2061">etape de verification de token</text><polygon fill="#A80036" points="770,219.2656,780,223.2656,770,227.2656" style="stroke:#A80036;stroke-width:1.0;"/><line style="stroke:#A80036;stroke-width:1.0;" x1="391" x2="776" y1="223.2656" y2="223.2656"/><text fill="#000000" font-family="sans-serif" font-size="13" lengthAdjust="spacing" textLength="367" x="398" y="218.4092">supprimerQuestionnaire(group_id : string, nomQuestion : string)</text><path d="M787,186.5625 L787,245.5625 L993,245.5625 L993,196.5625 L983,186.5625 L787,186.5625 " fill="#FBFB77" style="stroke:#A80036;stroke-width:1.0;"/><path d="M983,186.5625 L983,196.5625 L993,196.5625 L983,186.5625 " fill="#FBFB77" style="stroke:#A80036;stroke-width:1.0;"/><text fill="#000000" font-family="sans-serif" font-size="13" lengthAdjust="spacing" textLength="73" x="793" y="205.0576">selon Expert</text><text fill="#000000" font-family="sans-serif" font-size="13" lengthAdjust="spacing" textLength="185" x="793" y="221.4092">ControleurQuestionnaire connait</text><text fill="#000000" font-family="sans-serif" font-size="13" lengthAdjust="spacing" textLength="61" x="793" y="237.7607">l'utilisateur</text><polygon fill="#A80036" points="923,280.1445,933,284.1445,923,288.1445" style="stroke:#A80036;stroke-width:1.0;"/><line style="stroke:#A80036;stroke-width:1.0;" x1="782" x2="929" y1="284.1445" y2="284.1445"/><text fill="#000000" font-family="sans-serif" font-size="13" lengthAdjust="spacing" textLength="75" x="789" y="279.2881">get(group_id)</text><path d="M940,255.6172 L940,297.6172 L1139,297.6172 L1139,265.6172 L1129,255.6172 L940,255.6172 " fill="#FBFB77" style="stroke:#A80036;stroke-width:1.0;"/><path d="M1129,255.6172 L1129,265.6172 L1139,265.6172 L1129,255.6172 " fill="#FBFB77" style="stroke:#A80036;stroke-width:1.0;"/><text fill="#000000" font-family="sans-serif" font-size="13" lengthAdjust="spacing" textLength="77" x="946" y="274.1123">selont Expert</text><text fill="#000000" font-family="sans-serif" font-size="13" lengthAdjust="spacing" textLength="178" x="946" y="290.4639">l'utilisateur enseigne des cours</text><polygon fill="#A80036" points="793,321.6719,783,325.6719,793,329.6719" style="stroke:#A80036;stroke-width:1.0;"/><line style="stroke:#A80036;stroke-width:1.0;stroke-dasharray:2.0,2.0;" x1="787" x2="934" y1="325.6719" y2="325.6719"/><text fill="#000000" font-family="sans-serif" font-size="13" lengthAdjust="spacing" textLength="78" x="799" y="320.8154">cours : Cours</text><polygon fill="#A80036" points="1094.5,363.1992,1104.5,367.1992,1094.5,371.1992" style="stroke:#A80036;stroke-width:1.0;"/><line style="stroke:#A80036;stroke-width:1.0;" x1="782" x2="1100.5" y1="367.1992" y2="367.1992"/><text fill="#000000" font-family="sans-serif" font-size="13" lengthAdjust="spacing" textLength="131" x="789" y="362.3428">get(nomQuestionnaire)</text><path d="M1111,338.6719 L1111,380.6719 L1310,380.6719 L1310,348.6719 L1300,338.6719 L1111,338.6719 " fill="#FBFB77" style="stroke:#A80036;stroke-width:1.0;"/><path d="M1300,338.6719 L1300,348.6719 L1310,348.6719 L1300,338.6719 " fill="#FBFB77" style="stroke:#A80036;stroke-width:1.0;"/><text fill="#000000" font-family="sans-serif" font-size="13" lengthAdjust="spacing" textLength="77" x="1117" y="357.167">selont Expert</text><text fill="#000000" font-family="sans-serif" font-size="13" lengthAdjust="spacing" textLength="178" x="1117" y="373.5186">l'utilisateur enseigne des cours</text><polygon fill="#A80036" points="793,404.7266,783,408.7266,793,412.7266" style="stroke:#A80036;stroke-width:1.0;"/><line style="stroke:#A80036;stroke-width:1.0;stroke-dasharray:2.0,2.0;" x1="787" x2="1105.5" y1="408.7266" y2="408.7266"/><text fill="#000000" font-family="sans-serif" font-size="13" lengthAdjust="spacing" textLength="169" x="799" y="403.8701">questionnaire : Questionnaire</text><polygon fill="#A80036" points="1094.5,446.2539,1104.5,450.2539,1094.5,454.2539" style="stroke:#A80036;stroke-width:1.0;"/><line style="stroke:#A80036;stroke-width:1.0;" x1="782" x2="1100.5" y1="450.2539" y2="450.2539"/><text fill="#000000" font-family="sans-serif" font-size="13" lengthAdjust="spacing" textLength="148" x="789" y="445.3975">delete(nomQuestionnaire)</text><path d="M1111,421.7266 L1111,463.7266 L1310,463.7266 L1310,431.7266 L1300,421.7266 L1111,421.7266 " fill="#FBFB77" style="stroke:#A80036;stroke-width:1.0;"/><path d="M1300,421.7266 L1300,431.7266 L1310,431.7266 L1300,421.7266 " fill="#FBFB77" style="stroke:#A80036;stroke-width:1.0;"/><text fill="#000000" font-family="sans-serif" font-size="13" lengthAdjust="spacing" textLength="77" x="1117" y="440.2217">selont Expert</text><text fill="#000000" font-family="sans-serif" font-size="13" lengthAdjust="spacing" textLength="178" x="1117" y="456.5732">l'utilisateur enseigne des cours</text><path d="M697,476.4297 L770,476.4297 L770,484.4297 L760,494.4297 L697,494.4297 L697,476.4297 " fill="#EEEEEE" style="stroke:#000000;stroke-width:1.0;"/><rect fill="none" height="48.7031" style="stroke:#000000;stroke-width:2.0;" width="594" x="697" y="476.4297"/><text fill="#000000" font-family="sans-serif" font-size="13" font-weight="bold" lengthAdjust="spacing" textLength="28" x="712" y="490.9248">loop</text><text fill="#000000" font-family="sans-serif" font-size="11" font-weight="bold" lengthAdjust="spacing" textLength="169" x="785" y="489.8486">[cours.listeQuestions.foreach]</text><polygon fill="#A80036" points="1233.5,513.1328,1243.5,517.1328,1233.5,521.1328" style="stroke:#A80036;stroke-width:1.0;"/><line style="stroke:#A80036;stroke-width:1.0;" x1="782" x2="1239.5" y1="517.1328" y2="517.1328"/><text fill="#000000" font-family="sans-serif" font-size="13" lengthAdjust="spacing" textLength="135" x="789" y="512.2764">nombreQuestionnaire --</text><polygon fill="#A80036" points="402,550.4844,392,554.4844,402,558.4844" style="stroke:#A80036;stroke-width:1.0;"/><line style="stroke:#A80036;stroke-width:1.0;stroke-dasharray:2.0,2.0;" x1="396" x2="781" y1="554.4844" y2="554.4844"/><text fill="#000000" font-family="sans-serif" font-size="13" lengthAdjust="spacing" textLength="126" x="408" y="549.6279">"Question supprimée"</text><!--MD5=[87358f9c8c46429361427df67705da5f]
@startuml RDCU CU05d
skinparam style strictuml
hide empty members
title RDCU CU05d - supprimerQuestionnaire(group_id : string, nomQuestion : string)

participant "ControleurQuestionnaire" as cq
participant "utilisateur:Enseignant" as u
participant "Cours:\nMap<String,Cours>" as mc
participant "cours:\nMap<String,Questionnaire>" as c
participant "Question" as q

->cq : supprimerQuestionnaire(group_id : string, nomQuestion : string)
note right : selon Contrôleur
cq->cq : recupererEnseignantAvecToken(token : string)
note right : etape de verification de token
cq->u : supprimerQuestionnaire(group_id : string, nomQuestion : string)
note right : selon Expert\nControleurQuestionnaire connait\nl'utilisateur
u->mc : get(group_id)
note right : selont Expert\nl'utilisateur enseigne des cours
mc- ->u : cours : Cours
u->c : get(nomQuestionnaire)
note right : selont Expert\nl'utilisateur enseigne des cours
c- ->u : questionnaire : Questionnaire
u->c : delete(nomQuestionnaire)
note right : selont Expert\nl'utilisateur enseigne des cours
loop cours.listeQuestions.foreach
u->q : nombreQuestionnaire - -
end loop
u- ->cq : "Question supprimée"
@enduml

PlantUML version 1.2021.14(Fri Nov 12 11:46:50 EST 2021)
(GPL source distribution)
Java Runtime: OpenJDK Runtime Environment
JVM: OpenJDK 64-Bit Server VM
Default Encoding: Cp1252
Language: fr
Country: CA
--></g></svg>