<?xml version="1.0" encoding="UTF-8" standalone="no"?><svg xmlns="http://www.w3.org/2000/svg" xmlns:xlink="http://www.w3.org/1999/xlink" contentScriptType="application/ecmascript" contentStyleType="text/css" height="418px" preserveAspectRatio="none" style="width:571px;height:418px;background:#FFFFFF;" version="1.1" viewBox="0 0 571 418" width="571px" zoomAndPan="magnify"><defs/><g><text fill="#000000" font-family="sans-serif" font-size="18" lengthAdjust="spacing" textLength="98" x="238.25" y="30.6855">DSS CU02a</text><rect fill="#FFFFFF" height="111.7578" style="stroke:#000000;stroke-width:2.0;" width="478.5" x="10" y="283.0078"/><line style="stroke:#A80036;stroke-width:1.0;stroke-dasharray:5.0,5.0;" x1="60" x2="60" y1="122.25" y2="411.7656"/><line style="stroke:#A80036;stroke-width:1.0;stroke-dasharray:5.0,5.0;" x1="442.5" x2="442.5" y1="122.25" y2="411.7656"/><text fill="#000000" font-family="sans-serif" font-size="14" lengthAdjust="spacing" textLength="75" x="20" y="119.1738">:Enseignant</text><ellipse cx="60.5" cy="51.6406" fill="#FEFECE" rx="8" ry="8" style="stroke:#A80036;stroke-width:2.0;"/><path d="M60.5,59.6406 L60.5,86.6406 M47.5,67.6406 L73.5,67.6406 M60.5,86.6406 L47.5,101.6406 M60.5,86.6406 L73.5,101.6406 " fill="none" style="stroke:#A80036;stroke-width:2.0;"/><rect fill="#FEFECE" height="31.6094" style="stroke:#A80036;stroke-width:1.5;" width="72" x="406.5" y="89.6406"/><text fill="#000000" font-family="sans-serif" font-size="14" lengthAdjust="spacing" textLength="58" x="413.5" y="111.1738">:Systeme</text><polygon fill="#A80036" points="430.5,161.7773,440.5,165.7773,430.5,169.7773" style="stroke:#A80036;stroke-width:1.0;"/><line style="stroke:#A80036;stroke-width:1.0;" x1="60.5" x2="436.5" y1="165.7773" y2="165.7773"/><text fill="#000000" font-family="sans-serif" font-size="13" lengthAdjust="spacing" textLength="194" x="67.5" y="160.9209">getCoursUtilisateur(token : string)</text><path d="M447,137.25 L447,179.25 L564,179.25 L564,147.25 L554,137.25 L447,137.25 " fill="#FBFB77" style="stroke:#A80036;stroke-width:1.0;"/><path d="M554,137.25 L554,147.25 L564,147.25 L554,137.25 " fill="#FBFB77" style="stroke:#A80036;stroke-width:1.0;"/><text fill="#000000" font-family="sans-serif" font-size="13" lengthAdjust="spacing" textLength="85" x="453" y="155.7451">même fonction</text><text fill="#000000" font-family="sans-serif" font-size="13" lengthAdjust="spacing" textLength="96" x="453" y="172.0967">que dans CU01b</text><line style="stroke:#A80036;stroke-width:1.0;" x1="60.5" x2="70.5" y1="207.3047" y2="203.3047"/><line style="stroke:#A80036;stroke-width:1.0;" x1="60.5" x2="70.5" y1="207.3047" y2="211.3047"/><line style="stroke:#A80036;stroke-width:1.0;stroke-dasharray:2.0,2.0;" x1="60.5" x2="441.5" y1="207.3047" y2="207.3047"/><text fill="#000000" font-family="sans-serif" font-size="13" lengthAdjust="spacing" textLength="210" x="77.5" y="202.4482">liste des cours actifs de l'enseignant</text><polygon fill="#A80036" points="430.5,233.6563,440.5,237.6563,430.5,241.6563" style="stroke:#A80036;stroke-width:1.0;"/><line style="stroke:#A80036;stroke-width:1.0;" x1="60.5" x2="436.5" y1="237.6563" y2="237.6563"/><text fill="#000000" font-family="sans-serif" font-size="13" lengthAdjust="spacing" textLength="312" x="67.5" y="232.7998">postCoursSelectionne(group_id : string, token : string)</text><line style="stroke:#A80036;stroke-width:1.0;" x1="60.5" x2="70.5" y1="268.0078" y2="264.0078"/><line style="stroke:#A80036;stroke-width:1.0;" x1="60.5" x2="70.5" y1="268.0078" y2="272.0078"/><line style="stroke:#A80036;stroke-width:1.0;stroke-dasharray:2.0,2.0;" x1="60.5" x2="441.5" y1="268.0078" y2="268.0078"/><text fill="#000000" font-family="sans-serif" font-size="13" lengthAdjust="spacing" textLength="178" x="77.5" y="263.1514">questions du coursSelectionne</text><path d="M10,283.0078 L83,283.0078 L83,291.0078 L73,301.0078 L10,301.0078 L10,283.0078 " fill="#EEEEEE" style="stroke:#000000;stroke-width:1.0;"/><rect fill="none" height="111.7578" style="stroke:#000000;stroke-width:2.0;" width="478.5" x="10" y="283.0078"/><text fill="#000000" font-family="sans-serif" font-size="13" font-weight="bold" lengthAdjust="spacing" textLength="28" x="25" y="297.5029">loop</text><text fill="#000000" font-family="sans-serif" font-size="11" font-weight="bold" lengthAdjust="spacing" textLength="105" x="98" y="296.4268">[nouvelleQuestion]</text><polygon fill="#A80036" points="430.5,352.4141,440.5,356.4141,430.5,360.4141" style="stroke:#A80036;stroke-width:1.0;"/><line style="stroke:#A80036;stroke-width:1.0;" x1="60.5" x2="436.5" y1="356.4141" y2="356.4141"/><text fill="#000000" font-family="sans-serif" font-size="13" lengthAdjust="spacing" textLength="358" x="67.5" y="318.8545">setQuestion(group_id:string,type:string,tags:string,nom:string,</text><text fill="#000000" font-family="sans-serif" font-size="13" lengthAdjust="spacing" textLength="345" x="67.5" y="335.2061">enonce:string,verite:boolean,retroaction_reponse_vrai:string,</text><text fill="#000000" font-family="sans-serif" font-size="13" lengthAdjust="spacing" textLength="283" x="67.5" y="351.5576">retroaction_reponse_fausse:string, token : string)</text><polygon fill="#A80036" points="71.5,382.7656,61.5,386.7656,71.5,390.7656" style="stroke:#A80036;stroke-width:1.0;"/><line style="stroke:#A80036;stroke-width:1.0;stroke-dasharray:2.0,2.0;" x1="65.5" x2="441.5" y1="386.7656" y2="386.7656"/><text fill="#000000" font-family="sans-serif" font-size="13" lengthAdjust="spacing" textLength="198" x="77.5" y="381.9092">"Une nouvelle question a été créé"</text><!--MD5=[a116a13b18bfa6e460d9fb44b174ac07]
@startuml DSS
skinparam style strictuml
hide empty members
title DSS CU02a

actor ":Enseignant" as e
participant ":Systeme" as s

e -> s : getCoursUtilisateur(token : string)
note right : même fonction\nque dans CU01b
e <<- - s : liste des cours actifs de l'enseignant
e -> s : postCoursSelectionne(group_id : string, token : string)
e <<- - s : questions du coursSelectionne
loop nouvelleQuestion
e -> s : setQuestion(group_id:string,type:string,tags:string,nom:string,\nenonce:string,verite:boolean,retroaction_reponse_vrai:string,\nretroaction_reponse_fausse:string, token : string)
s- ->e : "Une nouvelle question a été créé"
end loop
@enduml

PlantUML version 1.2021.14(Fri Nov 12 11:46:50 EST 2021)
(GPL source distribution)
Java Runtime: OpenJDK Runtime Environment
JVM: OpenJDK 64-Bit Server VM
Default Encoding: Cp1252
Language: fr
Country: CA
--></g></svg>