<?xml version="1.0" encoding="UTF-8" standalone="no"?><svg xmlns="http://www.w3.org/2000/svg" xmlns:xlink="http://www.w3.org/1999/xlink" contentScriptType="application/ecmascript" contentStyleType="text/css" height="397px" preserveAspectRatio="none" style="width:1022px;height:397px;background:#FFFFFF;" version="1.1" viewBox="0 0 1022 397" width="1022px" zoomAndPan="magnify"><defs/><g><text fill="#000000" font-family="sans-serif" font-size="18" lengthAdjust="spacing" textLength="640" x="192.75" y="30.6855">RDCU CU05a - postCoursSelectionneQuestionnaire(cours: string, token : string)</text><line style="stroke:#A80036;stroke-width:1.0;stroke-dasharray:5.0,5.0;" x1="395" x2="395" y1="91.8594" y2="390.375"/><line style="stroke:#A80036;stroke-width:1.0;stroke-dasharray:5.0,5.0;" x1="675" x2="675" y1="91.8594" y2="390.375"/><line style="stroke:#A80036;stroke-width:1.0;stroke-dasharray:5.0,5.0;" x1="835" x2="835" y1="91.8594" y2="390.375"/><rect fill="#FEFECE" height="31.6094" style="stroke:#A80036;stroke-width:1.5;" width="170" x="310" y="59.25"/><text fill="#000000" font-family="sans-serif" font-size="14" lengthAdjust="spacing" textLength="156" x="317" y="80.7832">ControleurQuestionnaire</text><rect fill="#FEFECE" height="49.2188" style="stroke:#A80036;stroke-width:1.5;" width="136" x="607" y="41.6406"/><text fill="#000000" font-family="sans-serif" font-size="14" lengthAdjust="spacing" textLength="42" x="654" y="63.1738">Cours:</text><text fill="#000000" font-family="sans-serif" font-size="14" lengthAdjust="spacing" textLength="122" x="614" y="80.7832">Map&lt;String,Cours&gt;</text><rect fill="#FEFECE" height="31.6094" style="stroke:#A80036;stroke-width:1.5;" width="165" x="753" y="59.25"/><text fill="#000000" font-family="sans-serif" font-size="14" lengthAdjust="spacing" textLength="151" x="760" y="80.7832">coursSelectionne:Cours</text><polygon fill="#A80036" points="383,123.2109,393,127.2109,383,131.2109" style="stroke:#A80036;stroke-width:1.0;"/><line style="stroke:#A80036;stroke-width:1.0;" x1="0" x2="389" y1="127.2109" y2="127.2109"/><text fill="#000000" font-family="sans-serif" font-size="13" lengthAdjust="spacing" textLength="371" x="7" y="122.3545">postCoursSelectionneQuestionnaire(cours: string, token : string)</text><path d="M400,106.8594 L400,132.8594 L515,132.8594 L515,116.8594 L505,106.8594 L400,106.8594 " fill="#FBFB77" style="stroke:#A80036;stroke-width:1.0;"/><path d="M505,106.8594 L505,116.8594 L515,116.8594 L505,106.8594 " fill="#FBFB77" style="stroke:#A80036;stroke-width:1.0;"/><text fill="#000000" font-family="sans-serif" font-size="13" lengthAdjust="spacing" textLength="94" x="406" y="125.3545">selon Contrôleur</text><line style="stroke:#A80036;stroke-width:1.0;" x1="395" x2="437" y1="160.5625" y2="160.5625"/><line style="stroke:#A80036;stroke-width:1.0;" x1="437" x2="437" y1="160.5625" y2="173.5625"/><line style="stroke:#A80036;stroke-width:1.0;" x1="396" x2="437" y1="173.5625" y2="173.5625"/><polygon fill="#A80036" points="406,169.5625,396,173.5625,406,177.5625" style="stroke:#A80036;stroke-width:1.0;"/><text fill="#000000" font-family="sans-serif" font-size="13" lengthAdjust="spacing" textLength="266" x="402" y="155.7061">recupererEnseignantAvecToken(token : string)</text><path d="M680,146.7109 L680,172.7109 L869,172.7109 L869,156.7109 L859,146.7109 L680,146.7109 " fill="#FBFB77" style="stroke:#A80036;stroke-width:1.0;"/><path d="M859,146.7109 L859,156.7109 L869,156.7109 L859,146.7109 " fill="#FBFB77" style="stroke:#A80036;stroke-width:1.0;"/><text fill="#000000" font-family="sans-serif" font-size="13" lengthAdjust="spacing" textLength="168" x="686" y="165.2061">etape de verification de token</text><polygon fill="#A80036" points="663,219.2656,673,223.2656,663,227.2656" style="stroke:#A80036;stroke-width:1.0;"/><line style="stroke:#A80036;stroke-width:1.0;" x1="395" x2="669" y1="223.2656" y2="223.2656"/><text fill="#000000" font-family="sans-serif" font-size="13" lengthAdjust="spacing" textLength="126" x="402" y="218.4092">get(coursSelectionne)</text><path d="M680,186.5625 L680,245.5625 L895,245.5625 L895,196.5625 L885,186.5625 L680,186.5625 " fill="#FBFB77" style="stroke:#A80036;stroke-width:1.0;"/><path d="M885,186.5625 L885,196.5625 L895,196.5625 L885,186.5625 " fill="#FBFB77" style="stroke:#A80036;stroke-width:1.0;"/><text fill="#000000" font-family="sans-serif" font-size="13" lengthAdjust="spacing" textLength="73" x="686" y="205.0576">selon Expert</text><text fill="#000000" font-family="sans-serif" font-size="13" lengthAdjust="spacing" textLength="189" x="686" y="221.4092">ControleurQuestionnaire a accès</text><text fill="#000000" font-family="sans-serif" font-size="13" lengthAdjust="spacing" textLength="194" x="686" y="237.7607">à la map de cours de l'enseignant</text><polygon fill="#A80036" points="406,268.9688,396,272.9688,406,276.9688" style="stroke:#A80036;stroke-width:1.0;"/><line style="stroke:#A80036;stroke-width:1.0;stroke-dasharray:2.0,2.0;" x1="400" x2="674" y1="272.9688" y2="272.9688"/><text fill="#000000" font-family="sans-serif" font-size="13" lengthAdjust="spacing" textLength="146" x="412" y="268.1123">coursSelectionne : Cours</text><polygon fill="#A80036" points="823.5,318.6719,833.5,322.6719,823.5,326.6719" style="stroke:#A80036;stroke-width:1.0;"/><line style="stroke:#A80036;stroke-width:1.0;" x1="395" x2="829.5" y1="322.6719" y2="322.6719"/><text fill="#000000" font-family="sans-serif" font-size="13" lengthAdjust="spacing" textLength="134" x="402" y="317.8154">getListeQuestionnaire()</text><path d="M840,285.9688 L840,344.9688 L1015,344.9688 L1015,295.9688 L1005,285.9688 L840,285.9688 " fill="#FBFB77" style="stroke:#A80036;stroke-width:1.0;"/><path d="M1005,285.9688 L1005,295.9688 L1015,295.9688 L1005,285.9688 " fill="#FBFB77" style="stroke:#A80036;stroke-width:1.0;"/><text fill="#000000" font-family="sans-serif" font-size="13" lengthAdjust="spacing" textLength="73" x="846" y="304.4639">selon Expert</text><text fill="#000000" font-family="sans-serif" font-size="13" lengthAdjust="spacing" textLength="146" x="846" y="320.8154">nControleurQuestionnaire</text><text fill="#000000" font-family="sans-serif" font-size="13" lengthAdjust="spacing" textLength="154" x="846" y="337.167">a reçu le coursSelectionne</text><polygon fill="#A80036" points="406,368.375,396,372.375,406,376.375" style="stroke:#A80036;stroke-width:1.0;"/><line style="stroke:#A80036;stroke-width:1.0;stroke-dasharray:2.0,2.0;" x1="400" x2="834.5" y1="372.375" y2="372.375"/><text fill="#000000" font-family="sans-serif" font-size="13" lengthAdjust="spacing" textLength="88" x="412" y="367.5186">[Questionnaire]</text><!--MD5=[3f70c73603b6b9a503bcda5e50ed5aa3]
@startuml RDCU CU05a
skinparam style strictuml
hide empty members
title RDCU CU05a - postCoursSelectionneQuestionnaire(cours: string, token : string)

participant "ControleurQuestionnaire" as cq
participant "Cours:\nMap<String,Cours>" as sc
participant "coursSelectionne:Cours" as c

->cq : postCoursSelectionneQuestionnaire(cours: string, token : string)
note right : selon Contrôleur
cq->cq : recupererEnseignantAvecToken(token : string)
note right : etape de verification de token
cq->sc : get(coursSelectionne)
note right : selon Expert\nControleurQuestionnaire a accès\nà la map de cours de l'enseignant
sc- ->cq : coursSelectionne : Cours
cq->c : getListeQuestionnaire()
note right : selon Expert\nnControleurQuestionnaire\na reçu le coursSelectionne
c- ->cq : [Questionnaire]
@enduml

PlantUML version 1.2021.14(Fri Nov 12 11:46:50 EST 2021)
(GPL source distribution)
Java Runtime: OpenJDK Runtime Environment
JVM: OpenJDK 64-Bit Server VM
Default Encoding: Cp1252
Language: fr
Country: CA
--></g></svg>