<?xml version="1.0" encoding="UTF-8" standalone="no"?><svg xmlns="http://www.w3.org/2000/svg" xmlns:xlink="http://www.w3.org/1999/xlink" contentScriptType="application/ecmascript" contentStyleType="text/css" height="275px" preserveAspectRatio="none" style="width:1083px;height:275px;background:#FFFFFF;" version="1.1" viewBox="0 0 1083 275" width="1083px" zoomAndPan="magnify"><defs/><g><text fill="#000000" font-family="Verdana" font-size="18" lengthAdjust="spacing" textLength="118" x="484.25" y="30.0967">RDCU CU01b</text><line style="stroke:#A80036;stroke-width:1.0;stroke-dasharray:5.0,5.0;" x1="250.5" x2="250.5" y1="72.8906" y2="268.6865"/><line style="stroke:#A80036;stroke-width:1.0;stroke-dasharray:5.0,5.0;" x1="413.5" x2="413.5" y1="72.8906" y2="268.6865"/><line style="stroke:#A80036;stroke-width:1.0;stroke-dasharray:5.0,5.0;" x1="526.5" x2="526.5" y1="72.8906" y2="268.6865"/><rect fill="#FEFECE" height="31.0146" style="stroke:#A80036;stroke-width:1.5;" width="131" x="185.5" y="40.876"/><text fill="#000000" font-family="Verdana" font-size="14" lengthAdjust="spacing" textLength="117" x="192.5" y="61.9512">ControleurCours</text><rect fill="#FEFECE" height="31.0146" style="stroke:#A80036;stroke-width:1.5;" width="175" x="326.5" y="40.876"/><text fill="#000000" font-family="Verdana" font-size="14" lengthAdjust="spacing" textLength="161" x="333.5" y="61.9512">enseignant:Enseignant</text><rect fill="#FEFECE" height="31.0146" style="stroke:#A80036;stroke-width:1.5;" width="30" x="511.5" y="40.876"/><text fill="#000000" font-family="Verdana" font-size="14" lengthAdjust="spacing" textLength="16" x="518.5" y="61.9512">cq</text><polygon fill="#A80036" points="239,103.6899,249,107.6899,239,111.6899" style="stroke:#A80036;stroke-width:1.0;"/><line style="stroke:#A80036;stroke-width:1.0;" x1="0" x2="245" y1="107.6899" y2="107.6899"/><text fill="#000000" font-family="Verdana" font-size="13" lengthAdjust="spacing" textLength="227" x="12" y="102.9604">getCoursUtilisateur(token : string)</text><path d="M256,87.8906 L256,112.8906 L384,112.8906 L384,97.8906 L374,87.8906 L256,87.8906 " fill="#FBFB77" style="stroke:#A80036;stroke-width:1.0;"/><path d="M374,87.8906 L374,97.8906 L384,97.8906 L374,87.8906 " fill="#FBFB77" style="stroke:#A80036;stroke-width:1.0;"/><text fill="#000000" font-family="Verdana" font-size="13" lengthAdjust="spacing" textLength="107" x="262" y="105.9604">selon Controleur</text><line style="stroke:#A80036;stroke-width:1.0;" x1="526.5" x2="568.5" y1="140.4893" y2="140.4893"/><line style="stroke:#A80036;stroke-width:1.0;" x1="568.5" x2="568.5" y1="140.4893" y2="153.4893"/><line style="stroke:#A80036;stroke-width:1.0;" x1="527.5" x2="568.5" y1="153.4893" y2="153.4893"/><polygon fill="#A80036" points="537.5,149.4893,527.5,153.4893,537.5,157.4893" style="stroke:#A80036;stroke-width:1.0;"/><text fill="#000000" font-family="Verdana" font-size="13" lengthAdjust="spacing" textLength="310" x="533.5" y="135.7598">recupererEnseignantAvecToken(token : string)</text><path d="M855,127.1899 L855,152.1899 L1076,152.1899 L1076,137.1899 L1066,127.1899 L855,127.1899 " fill="#FBFB77" style="stroke:#A80036;stroke-width:1.0;"/><path d="M1066,127.1899 L1066,137.1899 L1076,137.1899 L1066,127.1899 " fill="#FBFB77" style="stroke:#A80036;stroke-width:1.0;"/><text fill="#000000" font-family="Verdana" font-size="13" lengthAdjust="spacing" textLength="200" x="861" y="145.2598">etape de verification de token</text><polygon fill="#A80036" points="402,198.0879,412,202.0879,402,206.0879" style="stroke:#A80036;stroke-width:1.0;"/><line style="stroke:#A80036;stroke-width:1.0;" x1="251" x2="408" y1="202.0879" y2="202.0879"/><text fill="#000000" font-family="Verdana" font-size="13" lengthAdjust="spacing" textLength="98" x="283.5" y="197.3584">getlisteCours()</text><path d="M419,166.4893 L419,223.4893 L602,223.4893 L602,176.4893 L592,166.4893 L419,166.4893 " fill="#FBFB77" style="stroke:#A80036;stroke-width:1.0;"/><path d="M592,166.4893 L592,176.4893 L602,176.4893 L592,166.4893 " fill="#FBFB77" style="stroke:#A80036;stroke-width:1.0;"/><text fill="#000000" font-family="Verdana" font-size="13" lengthAdjust="spacing" textLength="81" x="425" y="184.5591">selon Expert</text><text fill="#000000" font-family="Verdana" font-size="13" lengthAdjust="spacing" textLength="162" x="425" y="200.3584">ControleurCours a accès</text><text fill="#000000" font-family="Verdana" font-size="13" lengthAdjust="spacing" textLength="84" x="425" y="216.1577">à l'utilisateur</text><line style="stroke:#A80036;stroke-width:1.0;" x1="251" x2="261" y1="250.6865" y2="246.6865"/><line style="stroke:#A80036;stroke-width:1.0;" x1="251" x2="261" y1="250.6865" y2="254.6865"/><line style="stroke:#A80036;stroke-width:1.0;stroke-dasharray:2.0,2.0;" x1="251" x2="413" y1="250.6865" y2="250.6865"/><text fill="#000000" font-family="Verdana" font-size="13" lengthAdjust="spacing" textLength="49" x="308" y="245.957">[Cours]</text><!--MD5=[79aad6c63988eeb3a0f08a344b08ddf5]
@startuml RDCU CU01b
skinparam style strictuml
skinparam defaultfontname Verdana
skinparam sequence {
    MessageAlign center
}
hide empty members
title RDCU CU01b


participant "ControleurCours" as c
participant "enseignant:Enseignant" as e


->c : getCoursUtilisateur(token : string)
note right : selon Controleur
cq->cq : recupererEnseignantAvecToken(token : string)
note right : etape de verification de token
c->e : getlisteCours()
note right : selon Expert\nControleurCours a accès\nà l'utilisateur
e- ->>c : [Cours]
@enduml 

PlantUML version 1.2021.14(Fri Nov 12 11:46:50 EST 2021)
(GPL source distribution)
Java Runtime: OpenJDK Runtime Environment
JVM: OpenJDK 64-Bit Server VM
Default Encoding: Cp1252
Language: fr
Country: CA
--></g></svg>