<?xml version="1.0" encoding="UTF-8" standalone="no"?><svg xmlns="http://www.w3.org/2000/svg" xmlns:xlink="http://www.w3.org/1999/xlink" contentScriptType="application/ecmascript" contentStyleType="text/css" height="360px" preserveAspectRatio="none" style="width:1357px;height:360px;background:#FFFFFF;" version="1.1" viewBox="0 0 1357 360" width="1357px" zoomAndPan="magnify"><defs/><g><text fill="#000000" font-family="Verdana" font-size="18" lengthAdjust="spacing" textLength="522" x="419.25" y="30.0967">RDCU deleteCoursChoisi(group_id : string, token : string)</text><line style="stroke:#A80036;stroke-width:1.0;stroke-dasharray:5.0,5.0;" x1="360.5" x2="360.5" y1="89.9053" y2="353.0991"/><line style="stroke:#A80036;stroke-width:1.0;stroke-dasharray:5.0,5.0;" x1="513.5" x2="513.5" y1="89.9053" y2="353.0991"/><line style="stroke:#A80036;stroke-width:1.0;stroke-dasharray:5.0,5.0;" x1="687.5" x2="687.5" y1="89.9053" y2="353.0991"/><line style="stroke:#A80036;stroke-width:1.0;stroke-dasharray:5.0,5.0;" x1="800.5" x2="800.5" y1="89.9053" y2="353.0991"/><rect fill="#FEFECE" height="31.0146" style="stroke:#A80036;stroke-width:1.5;" width="131" x="295.5" y="57.8906"/><text fill="#000000" font-family="Verdana" font-size="14" lengthAdjust="spacing" textLength="117" x="302.5" y="78.9658">ControleurCours</text><rect fill="#FEFECE" height="48.0293" style="stroke:#A80036;stroke-width:1.5;" width="154" x="436.5" y="40.876"/><text fill="#000000" font-family="Verdana" font-size="14" lengthAdjust="spacing" textLength="83" x="472" y="61.9512">enseignant:</text><text fill="#000000" font-family="Verdana" font-size="14" lengthAdjust="spacing" textLength="140" x="443.5" y="78.9658">Map&lt;String,Cours&gt;</text><rect fill="#FEFECE" height="31.0146" style="stroke:#A80036;stroke-width:1.5;" width="175" x="600.5" y="57.8906"/><text fill="#000000" font-family="Verdana" font-size="14" lengthAdjust="spacing" textLength="161" x="607.5" y="78.9658">enseignant:Enseignant</text><rect fill="#FEFECE" height="31.0146" style="stroke:#A80036;stroke-width:1.5;" width="30" x="785.5" y="57.8906"/><text fill="#000000" font-family="Verdana" font-size="14" lengthAdjust="spacing" textLength="16" x="792.5" y="78.9658">cq</text><polygon fill="#A80036" points="349,120.7046,359,124.7046,349,128.7046" style="stroke:#A80036;stroke-width:1.0;"/><line style="stroke:#A80036;stroke-width:1.0;" x1="0" x2="355" y1="124.7046" y2="124.7046"/><text fill="#000000" font-family="Verdana" font-size="13" lengthAdjust="spacing" textLength="337" x="7" y="119.9751">deleteCoursChoisi(group_id : string, token : string)</text><path d="M366,104.9053 L366,129.9053 L494,129.9053 L494,114.9053 L484,104.9053 L366,104.9053 " fill="#FBFB77" style="stroke:#A80036;stroke-width:1.0;"/><path d="M484,104.9053 L484,114.9053 L494,114.9053 L484,104.9053 " fill="#FBFB77" style="stroke:#A80036;stroke-width:1.0;"/><text fill="#000000" font-family="Verdana" font-size="13" lengthAdjust="spacing" textLength="107" x="372" y="122.9751">selon Contrôleur</text><line style="stroke:#A80036;stroke-width:1.0;" x1="800.5" x2="842.5" y1="157.5039" y2="157.5039"/><line style="stroke:#A80036;stroke-width:1.0;" x1="842.5" x2="842.5" y1="157.5039" y2="170.5039"/><line style="stroke:#A80036;stroke-width:1.0;" x1="801.5" x2="842.5" y1="170.5039" y2="170.5039"/><polygon fill="#A80036" points="811.5,166.5039,801.5,170.5039,811.5,174.5039" style="stroke:#A80036;stroke-width:1.0;"/><text fill="#000000" font-family="Verdana" font-size="13" lengthAdjust="spacing" textLength="310" x="807.5" y="152.7744">recupererEnseignantAvecToken(token : string)</text><path d="M1129,144.2046 L1129,169.2046 L1350,169.2046 L1350,154.2046 L1340,144.2046 L1129,144.2046 " fill="#FBFB77" style="stroke:#A80036;stroke-width:1.0;"/><path d="M1340,144.2046 L1340,154.2046 L1350,154.2046 L1340,144.2046 " fill="#FBFB77" style="stroke:#A80036;stroke-width:1.0;"/><text fill="#000000" font-family="Verdana" font-size="13" lengthAdjust="spacing" textLength="200" x="1135" y="162.2744">etape de verification de token</text><polygon fill="#A80036" points="501.5,215.1025,511.5,219.1025,501.5,223.1025" style="stroke:#A80036;stroke-width:1.0;"/><line style="stroke:#A80036;stroke-width:1.0;" x1="361" x2="507.5" y1="219.1025" y2="219.1025"/><text fill="#000000" font-family="Verdana" font-size="13" lengthAdjust="spacing" textLength="109" x="368" y="214.373">delete(group_id)</text><path d="M518,183.5039 L518,240.5039 L701,240.5039 L701,193.5039 L691,183.5039 L518,183.5039 " fill="#FBFB77" style="stroke:#A80036;stroke-width:1.0;"/><path d="M691,183.5039 L691,193.5039 L701,193.5039 L691,183.5039 " fill="#FBFB77" style="stroke:#A80036;stroke-width:1.0;"/><text fill="#000000" font-family="Verdana" font-size="13" lengthAdjust="spacing" textLength="81" x="524" y="201.5737">selon Expert</text><text fill="#000000" font-family="Verdana" font-size="13" lengthAdjust="spacing" textLength="162" x="524" y="217.373">ControleurCours a accès</text><text fill="#000000" font-family="Verdana" font-size="13" lengthAdjust="spacing" textLength="84" x="524" y="233.1724">à l'utilisateur</text><polygon fill="#A80036" points="676,282.5005,686,286.5005,676,290.5005" style="stroke:#A80036;stroke-width:1.0;"/><line style="stroke:#A80036;stroke-width:1.0;" x1="361" x2="682" y1="286.5005" y2="286.5005"/><text fill="#000000" font-family="Verdana" font-size="13" lengthAdjust="spacing" textLength="98" x="368" y="281.771">getlisteCours()</text><path d="M693,250.9019 L693,307.9019 L876,307.9019 L876,260.9019 L866,250.9019 L693,250.9019 " fill="#FBFB77" style="stroke:#A80036;stroke-width:1.0;"/><path d="M866,250.9019 L866,260.9019 L876,260.9019 L866,250.9019 " fill="#FBFB77" style="stroke:#A80036;stroke-width:1.0;"/><text fill="#000000" font-family="Verdana" font-size="13" lengthAdjust="spacing" textLength="81" x="699" y="268.9717">selon Expert</text><text fill="#000000" font-family="Verdana" font-size="13" lengthAdjust="spacing" textLength="162" x="699" y="284.771">ControleurCours a accès</text><text fill="#000000" font-family="Verdana" font-size="13" lengthAdjust="spacing" textLength="84" x="699" y="300.5703">à l'utilisateur</text><line style="stroke:#A80036;stroke-width:1.0;" x1="361" x2="371" y1="335.0991" y2="331.0991"/><line style="stroke:#A80036;stroke-width:1.0;" x1="361" x2="371" y1="335.0991" y2="339.0991"/><line style="stroke:#A80036;stroke-width:1.0;stroke-dasharray:2.0,2.0;" x1="361" x2="687" y1="335.0991" y2="335.0991"/><text fill="#000000" font-family="Verdana" font-size="13" lengthAdjust="spacing" textLength="49" x="378" y="330.3696">[Cours]</text><!--MD5=[46cd6db6b21f45a62d4233f07c4e543a]
@startuml RDCU
skinparam style strictuml
skinparam defaultfontname Verdana
title RDCU deleteCoursChoisi(group_id : string, token : string)

participant "ControleurCours" as cc
participant "enseignant:\nMap<String,Cours>" as mc
participant "enseignant:Enseignant" as e

->cc : deleteCoursChoisi(group_id : string, token : string)
note right : selon Contrôleur
cq->cq : recupererEnseignantAvecToken(token : string)
note right : etape de verification de token
cc->mc : delete(group_id)
note right : selon Expert\nControleurCours a accès\nà l'utilisateur
cc->e : getlisteCours()
note right : selon Expert\nControleurCours a accès\nà l'utilisateur
e- ->>cc : [Cours]
@enduml

PlantUML version 1.2021.14(Fri Nov 12 11:46:50 EST 2021)
(GPL source distribution)
Java Runtime: OpenJDK Runtime Environment
JVM: OpenJDK 64-Bit Server VM
Default Encoding: Cp1252
Language: fr
Country: CA
--></g></svg>