<?xml version="1.0" encoding="UTF-8" standalone="no"?><svg xmlns="http://www.w3.org/2000/svg" xmlns:xlink="http://www.w3.org/1999/xlink" contentScriptType="application/ecmascript" contentStyleType="text/css" height="227px" preserveAspectRatio="none" style="width:813px;height:227px;background:#FFFFFF;" version="1.1" viewBox="0 0 813 227" width="813px" zoomAndPan="magnify"><defs/><g><text fill="#000000" font-family="Verdana" font-size="18" lengthAdjust="spacing" textLength="451" x="182.5" y="28.708">RDCU getGroupeCours(enseignant : Enseignant)</text><line style="stroke:#A80036;stroke-width:1.0;stroke-dasharray:5.0,5.0;" x1="293.5" x2="293.5" y1="71.25" y2="220.9141"/><line style="stroke:#A80036;stroke-width:1.0;stroke-dasharray:5.0,5.0;" x1="618" x2="618" y1="71.25" y2="220.9141"/><rect fill="#FEFECE" height="30.2969" style="stroke:#A80036;stroke-width:1.5;" width="131" x="228.5" y="39.9531"/><text fill="#000000" font-family="Verdana" font-size="14" lengthAdjust="spacing" textLength="117" x="235.5" y="59.9482">ControleurCours</text><rect fill="#FEFECE" height="30.2969" style="stroke:#A80036;stroke-width:1.5;" width="94" x="571" y="39.9531"/><text fill="#000000" font-family="Verdana" font-size="14" lengthAdjust="spacing" textLength="80" x="578" y="59.9482">FacadeSGB</text><polygon fill="#A80036" points="282,101.3828,292,105.3828,282,109.3828" style="stroke:#A80036;stroke-width:1.0;"/><line style="stroke:#A80036;stroke-width:1.0;" x1="0" x2="288" y1="105.3828" y2="105.3828"/><text fill="#000000" font-family="Verdana" font-size="13" lengthAdjust="spacing" textLength="270" x="7" y="100.3169">getGroupeCours(enseignant : Enseignant)</text><path d="M299,86.25 L299,111.25 L425,111.25 L425,96.25 L415,86.25 L299,86.25 " fill="#FBFB77" style="stroke:#A80036;stroke-width:1.0;"/><path d="M415,86.25 L415,96.25 L425,96.25 L415,86.25 " fill="#FBFB77" style="stroke:#A80036;stroke-width:1.0;"/><text fill="#000000" font-family="Verdana" font-size="13" lengthAdjust="spacing" textLength="105" x="305" y="103.3169">selon Contrôleur</text><polygon fill="#A80036" points="606,151.6484,616,155.6484,606,159.6484" style="stroke:#A80036;stroke-width:1.0;"/><line style="stroke:#A80036;stroke-width:1.0;" x1="294" x2="612" y1="155.6484" y2="155.6484"/><text fill="#000000" font-family="Verdana" font-size="13" lengthAdjust="spacing" textLength="300" x="301" y="150.5825">getListeGroupeCours(enseignant : Enseignant)</text><path d="M623,121.3828 L623,176.3828 L806,176.3828 L806,131.3828 L796,121.3828 L623,121.3828 " fill="#FBFB77" style="stroke:#A80036;stroke-width:1.0;"/><path d="M796,121.3828 L796,131.3828 L806,131.3828 L796,121.3828 " fill="#FBFB77" style="stroke:#A80036;stroke-width:1.0;"/><text fill="#000000" font-family="Verdana" font-size="13" lengthAdjust="spacing" textLength="80" x="629" y="138.4497">selon Expert</text><text fill="#000000" font-family="Verdana" font-size="13" lengthAdjust="spacing" textLength="122" x="629" y="153.5825">FacadeSGB accède</text><text fill="#000000" font-family="Verdana" font-size="13" lengthAdjust="spacing" textLength="162" x="629" y="168.7153">aux GroupeCours du SGB</text><line style="stroke:#A80036;stroke-width:1.0;" x1="294" x2="304" y1="202.9141" y2="198.9141"/><line style="stroke:#A80036;stroke-width:1.0;" x1="294" x2="304" y1="202.9141" y2="206.9141"/><line style="stroke:#A80036;stroke-width:1.0;stroke-dasharray:2.0,2.0;" x1="294" x2="617" y1="202.9141" y2="202.9141"/><text fill="#000000" font-family="Verdana" font-size="13" lengthAdjust="spacing" textLength="94" x="311" y="197.8481">[GroupeCours]</text><!--MD5=[c54b45dfaf12b73d0368f71e2bd2882d]
@startuml
skinparam style strictuml
skinparam defaultfontname Verdana
title RDCU getGroupeCours(enseignant : Enseignant)

participant "ControleurCours" as rc
participant "FacadeSGB" as sgb

->rc : getGroupeCours(enseignant : Enseignant)
note right : selon Contrôleur
rc->sgb : getListeGroupeCours(enseignant : Enseignant)
note right : selon Expert\nFacadeSGB accède\naux GroupeCours du SGB
rc<<- -sgb : [GroupeCours]
@enduml

PlantUML version 1.2021.12(Tue Oct 05 16:01:58 UTC 2021)
(GPL source distribution)
Java Runtime: Java(TM) SE Runtime Environment
JVM: Java HotSpot(TM) 64-Bit Server VM
Default Encoding: UTF-8
Language: en
Country: US
--></g></svg>