<?xml version="1.0" encoding="UTF-8" standalone="no"?><svg xmlns="http://www.w3.org/2000/svg" xmlns:xlink="http://www.w3.org/1999/xlink" contentScriptType="application/ecmascript" contentStyleType="text/css" height="273px" preserveAspectRatio="none" style="width:965px;height:273px;background:#FFFFFF;" version="1.1" viewBox="0 0 965 273" width="965px" zoomAndPan="magnify"><defs/><g><text fill="#000000" font-family="Verdana" font-size="18" lengthAdjust="spacing" textLength="303" x="332.5" y="30.0967">DSS CU05d - Supprimer Question</text><line style="stroke:#A80036;stroke-width:1.0;stroke-dasharray:5.0,5.0;" x1="50" x2="50" y1="120.8906" y2="266.0879"/><line style="stroke:#A80036;stroke-width:1.0;stroke-dasharray:5.0,5.0;" x1="722.5" x2="722.5" y1="120.8906" y2="266.0879"/><text fill="#000000" font-family="Verdana" font-size="14" lengthAdjust="spacing" textLength="84" x="5" y="117.9512">:Enseignant</text><ellipse cx="50" cy="50.876" fill="#FEFECE" rx="8" ry="8" style="stroke:#A80036;stroke-width:2.0;"/><path d="M50,58.876 L50,85.876 M37,66.876 L63,66.876 M50,85.876 L37,100.876 M50,85.876 L63,100.876 " fill="none" style="stroke:#A80036;stroke-width:2.0;"/><rect fill="#FEFECE" height="31.0146" style="stroke:#A80036;stroke-width:1.5;" width="81" x="682.5" y="88.876"/><text fill="#000000" font-family="Verdana" font-size="14" lengthAdjust="spacing" textLength="67" x="689.5" y="109.9512">:Systeme</text><polygon fill="#A80036" points="711,151.6899,721,155.6899,711,159.6899" style="stroke:#A80036;stroke-width:1.0;"/><line style="stroke:#A80036;stroke-width:1.0;" x1="50" x2="717" y1="155.6899" y2="155.6899"/><text fill="#000000" font-family="Verdana" font-size="13" lengthAdjust="spacing" textLength="649" x="62" y="150.9604">postQuestionnaireSelectionne(group_id : String, questionnaireSelectionne : String, token : string)</text><path d="M728,135.8906 L728,160.8906 L958,160.8906 L958,145.8906 L948,135.8906 L728,135.8906 " fill="#FBFB77" style="stroke:#A80036;stroke-width:1.0;"/><path d="M948,135.8906 L948,145.8906 L958,145.8906 L948,135.8906 " fill="#FBFB77" style="stroke:#A80036;stroke-width:1.0;"/><text fill="#000000" font-family="Verdana" font-size="13" lengthAdjust="spacing" textLength="209" x="734" y="153.9604">même fonction que dans CU05b</text><line style="stroke:#A80036;stroke-width:1.0;" x1="50" x2="60" y1="188.4893" y2="184.4893"/><line style="stroke:#A80036;stroke-width:1.0;" x1="50" x2="60" y1="188.4893" y2="192.4893"/><line style="stroke:#A80036;stroke-width:1.0;stroke-dasharray:2.0,2.0;" x1="50" x2="722" y1="188.4893" y2="188.4893"/><text fill="#000000" font-family="Verdana" font-size="13" lengthAdjust="spacing" textLength="90" x="341.5" y="183.7598">Questionnaire</text><polygon fill="#A80036" points="711,214.2886,721,218.2886,711,222.2886" style="stroke:#A80036;stroke-width:1.0;"/><line style="stroke:#A80036;stroke-width:1.0;" x1="50" x2="717" y1="218.2886" y2="218.2886"/><text fill="#000000" font-family="Verdana" font-size="13" lengthAdjust="spacing" textLength="422" x="175.5" y="213.5591">supprimerQuestionnaire(group_id : string, nomQuestion : string)</text><line style="stroke:#A80036;stroke-width:1.0;" x1="50" x2="60" y1="248.0879" y2="244.0879"/><line style="stroke:#A80036;stroke-width:1.0;" x1="50" x2="60" y1="248.0879" y2="252.0879"/><line style="stroke:#A80036;stroke-width:1.0;stroke-dasharray:2.0,2.0;" x1="50" x2="722" y1="248.0879" y2="248.0879"/><text fill="#000000" font-family="Verdana" font-size="13" lengthAdjust="spacing" textLength="139" x="317" y="243.3584">"Question supprimée"</text><!--MD5=[76b922dd7b89b35eb2133b4caa40c074]
@startuml DSS
skinparam style strictuml
skinparam defaultfontname Verdana
skinparam sequence {
    MessageAlign center
}
hide empty members
title DSS CU05d - Supprimer Question

actor ":Enseignant" as e
participant ":Systeme" as s

e -> s: postQuestionnaireSelectionne(group_id : String, questionnaireSelectionne : String, token : string)
note right : même fonction que dans CU05b
e <<- - s : Questionnaire
e -> s : supprimerQuestionnaire(group_id : string, nomQuestion : string)
e <<- - s : "Question supprimée"
@enduml

PlantUML version 1.2021.14(Fri Nov 12 11:46:50 EST 2021)
(GPL source distribution)
Java Runtime: OpenJDK Runtime Environment
JVM: OpenJDK 64-Bit Server VM
Default Encoding: Cp1252
Language: fr
Country: CA
--></g></svg>