<?xml version="1.0" encoding="UTF-8" standalone="no"?><svg xmlns="http://www.w3.org/2000/svg" xmlns:xlink="http://www.w3.org/1999/xlink" contentScriptType="application/ecmascript" contentStyleType="text/css" height="299px" preserveAspectRatio="none" style="width:744px;height:299px;background:#FFFFFF;" version="1.1" viewBox="0 0 744 299" width="744px" zoomAndPan="magnify"><defs/><g><text fill="#000000" font-family="Verdana" font-size="18" lengthAdjust="spacing" textLength="331" x="206" y="28.708">RDCU setCours(groupeCoursChoisi)</text><line style="stroke:#A80036;stroke-width:1.0;stroke-dasharray:5.0,5.0;" x1="210.5" x2="210.5" y1="71.25" y2="292.1797"/><line style="stroke:#A80036;stroke-width:1.0;stroke-dasharray:5.0,5.0;" x1="344" x2="344" y1="159.082" y2="292.1797"/><line style="stroke:#A80036;stroke-width:1.0;stroke-dasharray:5.0,5.0;" x1="477" x2="477" y1="71.25" y2="292.1797"/><line style="stroke:#A80036;stroke-width:1.0;stroke-dasharray:5.0,5.0;" x1="657" x2="657" y1="71.25" y2="292.1797"/><rect fill="#FEFECE" height="30.2969" style="stroke:#A80036;stroke-width:1.5;" width="131" x="145.5" y="39.9531"/><text fill="#000000" font-family="Verdana" font-size="14" lengthAdjust="spacing" textLength="117" x="152.5" y="59.9482">ControleurCours</text><rect fill="#FEFECE" height="30.2969" style="stroke:#A80036;stroke-width:1.5;" width="179" x="388" y="39.9531"/><text fill="#000000" font-family="Verdana" font-size="14" lengthAdjust="spacing" textLength="165" x="395" y="59.9482">enseignant:Enseignant</text><rect fill="#FEFECE" height="30.2969" style="stroke:#A80036;stroke-width:1.5;" width="161" x="577" y="39.9531"/><text fill="#000000" font-family="Verdana" font-size="14" lengthAdjust="spacing" textLength="147" x="584" y="59.9482">etudiant[]:[Etudiant]</text><polygon fill="#A80036" points="199,101.3828,209,105.3828,199,109.3828" style="stroke:#A80036;stroke-width:1.0;"/><line style="stroke:#A80036;stroke-width:1.0;" x1="0" x2="205" y1="105.3828" y2="105.3828"/><text fill="#000000" font-family="Verdana" font-size="13" lengthAdjust="spacing" textLength="187" x="7" y="100.3169">setCours(groupeCoursChoisi)</text><path d="M216,86.25 L216,111.25 L342,111.25 L342,96.25 L332,86.25 L216,86.25 " fill="#FBFB77" style="stroke:#A80036;stroke-width:1.0;"/><path d="M332,86.25 L332,96.25 L342,96.25 L332,86.25 " fill="#FBFB77" style="stroke:#A80036;stroke-width:1.0;"/><text fill="#000000" font-family="Verdana" font-size="13" lengthAdjust="spacing" textLength="105" x="222" y="103.3169">selon Contrôleur</text><polygon fill="#A80036" points="299,133.5156,309,137.5156,299,141.5156" style="stroke:#A80036;stroke-width:1.0;"/><line style="stroke:#A80036;stroke-width:1.0;stroke-dasharray:2.0,2.0;" x1="211" x2="305" y1="137.5156" y2="137.5156"/><text fill="#000000" font-family="Verdana" font-size="13" lengthAdjust="spacing" textLength="76" x="218" y="132.4497">c = create()</text><rect fill="#FEFECE" height="30.2969" style="stroke:#A80036;stroke-width:1.5;" width="67" x="311" y="128.4336"/><text fill="#000000" font-family="Verdana" font-size="14" lengthAdjust="spacing" textLength="53" x="318" y="148.4287">c:Cours</text><path d="M382.5,121.3828 L382.5,176.3828 L563.5,176.3828 L563.5,131.3828 L553.5,121.3828 L382.5,121.3828 " fill="#FBFB77" style="stroke:#A80036;stroke-width:1.0;"/><path d="M553.5,121.3828 L553.5,131.3828 L563.5,131.3828 L553.5,121.3828 " fill="#FBFB77" style="stroke:#A80036;stroke-width:1.0;"/><text fill="#000000" font-family="Verdana" font-size="13" lengthAdjust="spacing" textLength="94" x="388.5" y="138.4497">selon Créateur</text><text fill="#000000" font-family="Verdana" font-size="13" lengthAdjust="spacing" textLength="160" x="388.5" y="153.5825">ControleurCours contient</text><text fill="#000000" font-family="Verdana" font-size="13" lengthAdjust="spacing" textLength="64" x="388.5" y="168.7153">des Cours</text><line style="stroke:#A80036;stroke-width:1.0;" x1="211" x2="253" y1="202.9141" y2="202.9141"/><line style="stroke:#A80036;stroke-width:1.0;" x1="253" x2="253" y1="202.9141" y2="215.9141"/><line style="stroke:#A80036;stroke-width:1.0;" x1="212" x2="253" y1="215.9141" y2="215.9141"/><polygon fill="#A80036" points="222,211.9141,212,215.9141,222,219.9141" style="stroke:#A80036;stroke-width:1.0;"/><text fill="#000000" font-family="Verdana" font-size="13" lengthAdjust="spacing" textLength="41" x="218" y="197.8481">add(c)</text><polygon fill="#A80036" points="465.5,241.0469,475.5,245.0469,465.5,249.0469" style="stroke:#A80036;stroke-width:1.0;"/><line style="stroke:#A80036;stroke-width:1.0;" x1="211" x2="471.5" y1="245.0469" y2="245.0469"/><text fill="#000000" font-family="Verdana" font-size="13" lengthAdjust="spacing" textLength="74" x="218" y="239.981">setCours(c)</text><polygon fill="#A80036" points="645.5,270.1797,655.5,274.1797,645.5,278.1797" style="stroke:#A80036;stroke-width:1.0;"/><line style="stroke:#A80036;stroke-width:1.0;" x1="211" x2="651.5" y1="274.1797" y2="274.1797"/><text fill="#000000" font-family="Verdana" font-size="13" lengthAdjust="spacing" textLength="74" x="218" y="269.1138">setCours(c)</text><!--MD5=[444a7c9414642d1a3b89985586212a97]
@startuml
skinparam style strictuml
skinparam defaultfontname Verdana
title RDCU setCours(groupeCoursChoisi)

participant "ControleurCours" as sga
participant "c:Cours" as c
participant "enseignant:Enseignant" as ens
participant "etudiant[]:[Etudiant]" as etu

->sga : setCours(groupeCoursChoisi)
note right : selon Contrôleur
create c
sga- ->c : c = create()
note right : selon Créateur\nControleurCours contient\ndes Cours
sga -> sga : add(c)
sga-> ens : setCours(c)
sga-> etu : setCours(c)
@enduml

PlantUML version 1.2021.12(Tue Oct 05 16:01:58 UTC 2021)
(GPL source distribution)
Java Runtime: Java(TM) SE Runtime Environment
JVM: Java HotSpot(TM) 64-Bit Server VM
Default Encoding: UTF-8
Language: en
Country: US
--></g></svg>