<?xml version="1.0" encoding="UTF-8" standalone="no"?><svg xmlns="http://www.w3.org/2000/svg" xmlns:xlink="http://www.w3.org/1999/xlink" contentScriptType="application/ecmascript" contentStyleType="text/css" height="391px" preserveAspectRatio="none" style="width:1585px;height:391px;background:#FFFFFF;" version="1.1" viewBox="0 0 1585 391" width="1585px" zoomAndPan="magnify"><defs/><g><text fill="#000000" font-family="Verdana" font-size="18" lengthAdjust="spacing" textLength="665" x="461.75" y="30.0967">RDCU addCours(group_id : string, listeEtudiants : string[], token : string)</text><line style="stroke:#A80036;stroke-width:1.0;stroke-dasharray:5.0,5.0;" x1="469.5" x2="469.5" y1="72.8906" y2="384.8838"/><line style="stroke:#A80036;stroke-width:1.0;stroke-dasharray:5.0,5.0;" x1="976" x2="976" y1="240.0879" y2="384.8838"/><line style="stroke:#A80036;stroke-width:1.0;stroke-dasharray:5.0,5.0;" x1="1121" x2="1121" y1="72.8906" y2="384.8838"/><line style="stroke:#A80036;stroke-width:1.0;stroke-dasharray:5.0,5.0;" x1="1305" x2="1305" y1="72.8906" y2="384.8838"/><rect fill="#FEFECE" height="31.0146" style="stroke:#A80036;stroke-width:1.5;" width="131" x="404.5" y="40.876"/><text fill="#000000" font-family="Verdana" font-size="14" lengthAdjust="spacing" textLength="117" x="411.5" y="61.9512">ControleurCours</text><rect fill="#FEFECE" height="31.0146" style="stroke:#A80036;stroke-width:1.5;" width="164" x="1039" y="40.876"/><text fill="#000000" font-family="Verdana" font-size="14" lengthAdjust="spacing" textLength="150" x="1046" y="61.9512">groupeCours : Cours</text><rect fill="#FEFECE" height="31.0146" style="stroke:#A80036;stroke-width:1.5;" width="185" x="1213" y="40.876"/><text fill="#000000" font-family="Verdana" font-size="14" lengthAdjust="spacing" textLength="171" x="1220" y="61.9512">enseignant : Enseignant</text><polygon fill="#A80036" points="458,103.6899,468,107.6899,458,111.6899" style="stroke:#A80036;stroke-width:1.0;"/><line style="stroke:#A80036;stroke-width:1.0;" x1="0" x2="464" y1="107.6899" y2="107.6899"/><text fill="#000000" font-family="Verdana" font-size="13" lengthAdjust="spacing" textLength="446" x="12" y="102.9604">addCours(group_id : string, listeEtudiants : string[], token : string)</text><path d="M475,87.8906 L475,112.8906 L603,112.8906 L603,97.8906 L593,87.8906 L475,87.8906 " fill="#FBFB77" style="stroke:#A80036;stroke-width:1.0;"/><path d="M593,87.8906 L593,97.8906 L603,97.8906 L593,87.8906 " fill="#FBFB77" style="stroke:#A80036;stroke-width:1.0;"/><text fill="#000000" font-family="Verdana" font-size="13" lengthAdjust="spacing" textLength="107" x="481" y="105.9604">selon Contrôleur</text><line style="stroke:#A80036;stroke-width:1.0;" x1="470" x2="512" y1="140.4893" y2="140.4893"/><line style="stroke:#A80036;stroke-width:1.0;" x1="512" x2="512" y1="140.4893" y2="153.4893"/><line style="stroke:#A80036;stroke-width:1.0;" x1="471" x2="512" y1="153.4893" y2="153.4893"/><polygon fill="#A80036" points="481,149.4893,471,153.4893,481,157.4893" style="stroke:#A80036;stroke-width:1.0;"/><text fill="#000000" font-family="Verdana" font-size="13" lengthAdjust="spacing" textLength="401" x="477" y="135.7598">enseignant = recupererEnseignantAvecToken(token : string)</text><line style="stroke:#A80036;stroke-width:1.0;" x1="470" x2="512" y1="183.2886" y2="183.2886"/><line style="stroke:#A80036;stroke-width:1.0;" x1="512" x2="512" y1="183.2886" y2="196.2886"/><line style="stroke:#A80036;stroke-width:1.0;" x1="471" x2="512" y1="196.2886" y2="196.2886"/><polygon fill="#A80036" points="481,192.2886,471,196.2886,481,200.2886" style="stroke:#A80036;stroke-width:1.0;"/><text fill="#000000" font-family="Verdana" font-size="13" lengthAdjust="spacing" textLength="306" x="477" y="178.5591">cours  = getInfoGroupeCours(group_id, token)</text><polygon fill="#A80036" points="911,237.8872,921,241.8872,911,245.8872" style="stroke:#A80036;stroke-width:1.0;"/><line style="stroke:#A80036;stroke-width:1.0;" x1="470" x2="917" y1="241.8872" y2="241.8872"/><text fill="#000000" font-family="Verdana" font-size="13" lengthAdjust="spacing" textLength="429" x="482" y="221.3584">create(group_id, cours.prealables, cours.titre, cours.enseignant,</text><text fill="#000000" font-family="Verdana" font-size="13" lengthAdjust="spacing" textLength="92" x="650.5" y="237.1577">null, null, null)</text><rect fill="#FEFECE" height="31.0146" style="stroke:#A80036;stroke-width:1.5;" width="106" x="923" y="210.8726"/><text fill="#000000" font-family="Verdana" font-size="14" lengthAdjust="spacing" textLength="92" x="930" y="231.9478">groupeCours</text><path d="M1034,209.2886 L1034,250.2886 L1275,250.2886 L1275,219.2886 L1265,209.2886 L1034,209.2886 " fill="#FBFB77" style="stroke:#A80036;stroke-width:1.0;"/><path d="M1265,209.2886 L1265,219.2886 L1275,219.2886 L1265,209.2886 " fill="#FBFB77" style="stroke:#A80036;stroke-width:1.0;"/><text fill="#000000" font-family="Verdana" font-size="13" lengthAdjust="spacing" textLength="96" x="1040" y="227.3584">selon Créateur</text><text fill="#000000" font-family="Verdana" font-size="13" lengthAdjust="spacing" textLength="220" x="1040" y="243.1577">ControleurCours accède au cours</text><polygon fill="#A80036" points="1109,311.2852,1119,315.2852,1109,319.2852" style="stroke:#A80036;stroke-width:1.0;"/><line style="stroke:#A80036;stroke-width:1.0;" x1="470" x2="1115" y1="315.2852" y2="315.2852"/><text fill="#000000" font-family="Verdana" font-size="13" lengthAdjust="spacing" textLength="146" x="722.5" y="310.5557">addEtudiant(etudiant)</text><path d="M1126,268.7869 L1126,309.7869 L1367,309.7869 L1367,278.7869 L1357,268.7869 L1126,268.7869 " fill="#FBFB77" style="stroke:#A80036;stroke-width:1.0;"/><path d="M1357,268.7869 L1357,278.7869 L1367,278.7869 L1357,268.7869 " fill="#FBFB77" style="stroke:#A80036;stroke-width:1.0;"/><text fill="#000000" font-family="Verdana" font-size="13" lengthAdjust="spacing" textLength="81" x="1132" y="286.8567">selon Expert</text><text fill="#000000" font-family="Verdana" font-size="13" lengthAdjust="spacing" textLength="220" x="1132" y="302.656">ControleurCours accède au cours</text><path d="M213,260.8872 L213,317.8872 L465,317.8872 L465,270.8872 L455,260.8872 L213,260.8872 " fill="#FBFB77" style="stroke:#A80036;stroke-width:1.0;"/><path d="M455,260.8872 L455,270.8872 L465,270.8872 L455,260.8872 " fill="#FBFB77" style="stroke:#A80036;stroke-width:1.0;"/><text fill="#000000" font-family="Verdana" font-size="13" lengthAdjust="spacing" textLength="160" x="219" y="278.957">pour chaque élément de</text><text fill="#000000" font-family="Verdana" font-size="13" lengthAdjust="spacing" textLength="231" x="219" y="294.7563">listeEtudiants, on créé un nouveau</text><text fill="#000000" font-family="Verdana" font-size="13" lengthAdjust="spacing" textLength="210" x="219" y="310.5557">Etudiant et on l'ajoute au cours</text><polygon fill="#A80036" points="1293.5,351.9841,1303.5,355.9841,1293.5,359.9841" style="stroke:#A80036;stroke-width:1.0;"/><line style="stroke:#A80036;stroke-width:1.0;" x1="470" x2="1299.5" y1="355.9841" y2="355.9841"/><text fill="#000000" font-family="Verdana" font-size="13" lengthAdjust="spacing" textLength="165" x="805.25" y="351.2546">ajoutCours(groupeCours)</text><path d="M1310,328.2852 L1310,369.2852 L1578,369.2852 L1578,338.2852 L1568,328.2852 L1310,328.2852 " fill="#FBFB77" style="stroke:#A80036;stroke-width:1.0;"/><path d="M1568,328.2852 L1568,338.2852 L1578,338.2852 L1568,328.2852 " fill="#FBFB77" style="stroke:#A80036;stroke-width:1.0;"/><text fill="#000000" font-family="Verdana" font-size="13" lengthAdjust="spacing" textLength="81" x="1316" y="346.355">selon Expert</text><text fill="#000000" font-family="Verdana" font-size="13" lengthAdjust="spacing" textLength="247" x="1316" y="362.1543">ControleurCours accède à l'utilisateur</text><!--MD5=[01c8dc93656cd76696251b0074384af1]
@startuml RDCU
skinparam style strictuml
skinparam defaultfontname Verdana
skinparam sequence {
    MessageAlign center
}
hide empty members
title RDCU addCours(group_id : string, listeEtudiants : string[], token : string)
participant "ControleurCours" as cc
participant "groupeCours" as gc
participant "groupeCours : Cours" as c
participant "enseignant : Enseignant" as e

->cc : addCours(group_id : string, listeEtudiants : string[], token : string)
note right : selon Contrôleur
cc->cc : enseignant = recupererEnseignantAvecToken(token : string)
cc->cc : cours  = getInfoGroupeCours(group_id, token)
create gc
cc->gc : create(group_id, cours.prealables, cours.titre, cours.enseignant,\nnull, null, null)
note right : selon Créateur\nControleurCours accède au cours
cc->c : addEtudiant(etudiant)
note right : selon Expert\nControleurCours accède au cours
note left : pour chaque élément de\nlisteEtudiants, on créé un nouveau\nEtudiant et on l'ajoute au cours
cc->e : ajoutCours(groupeCours)
note right : selon Expert\nControleurCours accède à l'utilisateur
@enduml

PlantUML version 1.2021.14(Fri Nov 12 11:46:50 EST 2021)
(GPL source distribution)
Java Runtime: OpenJDK Runtime Environment
JVM: OpenJDK 64-Bit Server VM
Default Encoding: Cp1252
Language: fr
Country: CA
--></g></svg>