<?xml version="1.0" encoding="UTF-8" standalone="no"?><svg xmlns="http://www.w3.org/2000/svg" xmlns:xlink="http://www.w3.org/1999/xlink" contentScriptType="application/ecmascript" contentStyleType="text/css" height="360px" preserveAspectRatio="none" style="width:1179px;height:360px;background:#FFFFFF;" version="1.1" viewBox="0 0 1179 360" width="1179px" zoomAndPan="magnify"><defs/><g><text fill="#000000" font-family="Verdana" font-size="18" lengthAdjust="spacing" textLength="650" x="266" y="30.0967">RDCU CU02d - supprimerQuestion(nomQuestion : string, token : string)</text><line style="stroke:#A80036;stroke-width:1.0;stroke-dasharray:5.0,5.0;" x1="395" x2="395" y1="89.9053" y2="353.0991"/><line style="stroke:#A80036;stroke-width:1.0;stroke-dasharray:5.0,5.0;" x1="718.5" x2="718.5" y1="89.9053" y2="353.0991"/><line style="stroke:#A80036;stroke-width:1.0;stroke-dasharray:5.0,5.0;" x1="903.5" x2="903.5" y1="89.9053" y2="353.0991"/><rect fill="#FEFECE" height="31.0146" style="stroke:#A80036;stroke-width:1.5;" width="152" x="319" y="57.8906"/><text fill="#000000" font-family="Verdana" font-size="14" lengthAdjust="spacing" textLength="138" x="326" y="78.9658">ControleurQuestion</text><rect fill="#FEFECE" height="31.0146" style="stroke:#A80036;stroke-width:1.5;" width="175" x="631.5" y="57.8906"/><text fill="#000000" font-family="Verdana" font-size="14" lengthAdjust="spacing" textLength="161" x="638.5" y="78.9658">enseignant:Enseignant</text><rect fill="#FEFECE" height="48.0293" style="stroke:#A80036;stroke-width:1.5;" width="175" x="816.5" y="40.876"/><text fill="#000000" font-family="Verdana" font-size="14" lengthAdjust="spacing" textLength="76" x="866" y="61.9512">listeCours:</text><text fill="#000000" font-family="Verdana" font-size="14" lengthAdjust="spacing" textLength="161" x="823.5" y="78.9658">Map&lt;String,Question&gt;</text><polygon fill="#A80036" points="383,120.7046,393,124.7046,383,128.7046" style="stroke:#A80036;stroke-width:1.0;"/><line style="stroke:#A80036;stroke-width:1.0;" x1="0" x2="389" y1="124.7046" y2="124.7046"/><text fill="#000000" font-family="Verdana" font-size="13" lengthAdjust="spacing" textLength="371" x="12" y="119.9751">supprimerQuestion(nomQuestion : string, token : string)</text><path d="M400,104.9053 L400,129.9053 L528,129.9053 L528,114.9053 L518,104.9053 L400,104.9053 " fill="#FBFB77" style="stroke:#A80036;stroke-width:1.0;"/><path d="M518,104.9053 L518,114.9053 L528,114.9053 L518,104.9053 " fill="#FBFB77" style="stroke:#A80036;stroke-width:1.0;"/><text fill="#000000" font-family="Verdana" font-size="13" lengthAdjust="spacing" textLength="107" x="406" y="122.9751">selon Contrôleur</text><line style="stroke:#A80036;stroke-width:1.0;" x1="395" x2="437" y1="157.5039" y2="157.5039"/><line style="stroke:#A80036;stroke-width:1.0;" x1="437" x2="437" y1="157.5039" y2="170.5039"/><line style="stroke:#A80036;stroke-width:1.0;" x1="396" x2="437" y1="170.5039" y2="170.5039"/><polygon fill="#A80036" points="406,166.5039,396,170.5039,406,174.5039" style="stroke:#A80036;stroke-width:1.0;"/><text fill="#000000" font-family="Verdana" font-size="13" lengthAdjust="spacing" textLength="310" x="402" y="152.7744">recupererEnseignantAvecToken(token : string)</text><path d="M724,144.2046 L724,169.2046 L945,169.2046 L945,154.2046 L935,144.2046 L724,144.2046 " fill="#FBFB77" style="stroke:#A80036;stroke-width:1.0;"/><path d="M935,144.2046 L935,154.2046 L945,154.2046 L935,144.2046 " fill="#FBFB77" style="stroke:#A80036;stroke-width:1.0;"/><text fill="#000000" font-family="Verdana" font-size="13" lengthAdjust="spacing" textLength="200" x="730" y="162.2744">etape de verification de token</text><polygon fill="#A80036" points="707,215.1025,717,219.1025,707,223.1025" style="stroke:#A80036;stroke-width:1.0;"/><line style="stroke:#A80036;stroke-width:1.0;" x1="395" x2="713" y1="219.1025" y2="219.1025"/><text fill="#000000" font-family="Verdana" font-size="13" lengthAdjust="spacing" textLength="98" x="508" y="214.373">getlisteCours()</text><path d="M724,183.5039 L724,240.5039 L928,240.5039 L928,193.5039 L918,183.5039 L724,183.5039 " fill="#FBFB77" style="stroke:#A80036;stroke-width:1.0;"/><path d="M918,183.5039 L918,193.5039 L928,193.5039 L918,183.5039 " fill="#FBFB77" style="stroke:#A80036;stroke-width:1.0;"/><text fill="#000000" font-family="Verdana" font-size="13" lengthAdjust="spacing" textLength="81" x="730" y="201.5737">selon Expert</text><text fill="#000000" font-family="Verdana" font-size="13" lengthAdjust="spacing" textLength="183" x="730" y="217.373">ControleurQuestion a accès</text><text fill="#000000" font-family="Verdana" font-size="13" lengthAdjust="spacing" textLength="84" x="730" y="233.1724">à l'utilisateur</text><line style="stroke:#A80036;stroke-width:1.0;" x1="395" x2="405" y1="267.7012" y2="263.7012"/><line style="stroke:#A80036;stroke-width:1.0;" x1="395" x2="405" y1="267.7012" y2="271.7012"/><line style="stroke:#A80036;stroke-width:1.0;stroke-dasharray:2.0,2.0;" x1="395" x2="718" y1="267.7012" y2="267.7012"/><text fill="#000000" font-family="Verdana" font-size="13" lengthAdjust="spacing" textLength="129" x="492.5" y="262.9717">listeCours : [Cours]</text><polygon fill="#A80036" points="892,331.0991,902,335.0991,892,339.0991" style="stroke:#A80036;stroke-width:1.0;"/><line style="stroke:#A80036;stroke-width:1.0;" x1="395" x2="898" y1="335.0991" y2="335.0991"/><text fill="#000000" font-family="Verdana" font-size="13" lengthAdjust="spacing" textLength="138" x="580.5" y="330.3696">delete(nomQuestion)</text><path d="M909,280.7012 L909,337.7012 L1172,337.7012 L1172,290.7012 L1162,280.7012 L909,280.7012 " fill="#FBFB77" style="stroke:#A80036;stroke-width:1.0;"/><path d="M1162,280.7012 L1162,290.7012 L1172,290.7012 L1162,280.7012 " fill="#FBFB77" style="stroke:#A80036;stroke-width:1.0;"/><text fill="#000000" font-family="Verdana" font-size="13" lengthAdjust="spacing" textLength="81" x="915" y="298.771">selon Expert</text><text fill="#000000" font-family="Verdana" font-size="13" lengthAdjust="spacing" textLength="183" x="915" y="314.5703">ControleurQuestion a accès</text><text fill="#000000" font-family="Verdana" font-size="13" lengthAdjust="spacing" textLength="242" x="915" y="330.3696">à l'attribut listeCours de l'enseignant</text><path d="M186,288.6008 L186,329.6008 L390,329.6008 L390,298.6008 L380,288.6008 L186,288.6008 " fill="#FBFB77" style="stroke:#A80036;stroke-width:1.0;"/><path d="M380,288.6008 L380,298.6008 L390,298.6008 L380,288.6008 " fill="#FBFB77" style="stroke:#A80036;stroke-width:1.0;"/><text fill="#000000" font-family="Verdana" font-size="13" lengthAdjust="spacing" textLength="121" x="192" y="306.6707">appelle la fonction</text><text fill="#000000" font-family="Verdana" font-size="13" lengthAdjust="spacing" textLength="183" x="192" y="322.47">sur chaque cours de la liste</text><!--MD5=[4169a5225e3e1cb8f661f7ff7f763e42]
@startuml RDCU
skinparam style strictuml
skinparam defaultfontname Verdana
skinparam sequence {
    MessageAlign center
}
hide empty members
title RDCU CU02d - supprimerQuestion(nomQuestion : string, token : string)

participant "ControleurQuestion" as cq
participant "enseignant:Enseignant" as e
participant "listeCours:\nMap<String,Question>" as mq

->cq : supprimerQuestion(nomQuestion : string, token : string)
note right : selon Contrôleur
cq->cq : recupererEnseignantAvecToken(token : string)
note right : etape de verification de token
cq->e : getlisteCours()
note right : selon Expert\nControleurQuestion a accès\nà l'utilisateur
e- ->>cq : listeCours : [Cours]
cq->mq : delete(nomQuestion)
note right : selon Expert\nControleurQuestion a accès\nà l'attribut listeCours de l'enseignant
note left : appelle la fonction\nsur chaque cours de la liste
@enduml

PlantUML version 1.2021.14(Fri Nov 12 11:46:50 EST 2021)
(GPL source distribution)
Java Runtime: OpenJDK Runtime Environment
JVM: OpenJDK 64-Bit Server VM
Default Encoding: Cp1252
Language: fr
Country: CA
--></g></svg>