<?xml version="1.0" encoding="UTF-8" standalone="no"?><svg xmlns="http://www.w3.org/2000/svg" xmlns:xlink="http://www.w3.org/1999/xlink" contentScriptType="application/ecmascript" contentStyleType="text/css" height="308px" preserveAspectRatio="none" style="width:909px;height:308px;background:#FFFFFF;" version="1.1" viewBox="0 0 909 308" width="909px" zoomAndPan="magnify"><defs/><g><text fill="#000000" font-family="sans-serif" font-size="18" lengthAdjust="spacing" textLength="339" x="286.5" y="28.708">RDCU CU02a - postCoursSelectionne</text><line style="stroke:#A80036;stroke-width:1.0;stroke-dasharray:5.0,5.0;" x1="331.5" x2="331.5" y1="87.5469" y2="301.4766"/><line style="stroke:#A80036;stroke-width:1.0;stroke-dasharray:5.0,5.0;" x1="624" x2="624" y1="87.5469" y2="301.4766"/><line style="stroke:#A80036;stroke-width:1.0;stroke-dasharray:5.0,5.0;" x1="781" x2="781" y1="87.5469" y2="301.4766"/><rect fill="#FEFECE" height="30.2969" style="stroke:#A80036;stroke-width:1.5;" width="131" x="266.5" y="56.25"/><text fill="#000000" font-family="sans-serif" font-size="14" lengthAdjust="spacing" textLength="117" x="273.5" y="76.2451">ControleurCours</text><rect fill="#FEFECE" height="46.5938" style="stroke:#A80036;stroke-width:1.5;" width="154" x="547" y="39.9531"/><text fill="#000000" font-family="sans-serif" font-size="14" lengthAdjust="spacing" textLength="45" x="601.5" y="59.9482">Cours:</text><text fill="#000000" font-family="sans-serif" font-size="14" lengthAdjust="spacing" textLength="140" x="554" y="76.2451">Map&lt;String,Cours&gt;</text><rect fill="#FEFECE" height="30.2969" style="stroke:#A80036;stroke-width:1.5;" width="140" x="711" y="56.25"/><text fill="#000000" font-family="sans-serif" font-size="14" lengthAdjust="spacing" textLength="126" x="718" y="76.2451">coursChoisi:Cours</text><polygon fill="#A80036" points="320,117.6797,330,121.6797,320,125.6797" style="stroke:#A80036;stroke-width:1.0;"/><line style="stroke:#A80036;stroke-width:1.0;" x1="0" x2="326" y1="121.6797" y2="121.6797"/><text fill="#000000" font-family="sans-serif" font-size="13" lengthAdjust="spacing" textLength="308" x="7" y="116.6138">postCoursSelectionne(coursSelectionne : String)</text><path d="M337,102.5469 L337,127.5469 L463,127.5469 L463,112.5469 L453,102.5469 L337,102.5469 " fill="#FBFB77" style="stroke:#A80036;stroke-width:1.0;"/><path d="M453,102.5469 L453,112.5469 L463,112.5469 L453,102.5469 " fill="#FBFB77" style="stroke:#A80036;stroke-width:1.0;"/><text fill="#000000" font-family="sans-serif" font-size="13" lengthAdjust="spacing" textLength="105" x="343" y="119.6138">selon Contrôleur</text><polygon fill="#A80036" points="612,152.8125,622,156.8125,612,160.8125" style="stroke:#A80036;stroke-width:1.0;"/><line style="stroke:#A80036;stroke-width:1.0;" x1="332" x2="618" y1="156.8125" y2="156.8125"/><text fill="#000000" font-family="sans-serif" font-size="13" lengthAdjust="spacing" textLength="268" x="339" y="151.7466">coursChoisi = getCours(coursSelectionne)</text><path d="M629,137.6797 L629,162.6797 L730,162.6797 L730,147.6797 L720,137.6797 L629,137.6797 " fill="#FBFB77" style="stroke:#A80036;stroke-width:1.0;"/><path d="M720,137.6797 L720,147.6797 L730,147.6797 L720,137.6797 " fill="#FBFB77" style="stroke:#A80036;stroke-width:1.0;"/><text fill="#000000" font-family="sans-serif" font-size="13" lengthAdjust="spacing" textLength="80" x="635" y="154.7466">selon Expert</text><polygon fill="#A80036" points="343,184.9453,333,188.9453,343,192.9453" style="stroke:#A80036;stroke-width:1.0;"/><line style="stroke:#A80036;stroke-width:1.0;stroke-dasharray:2.0,2.0;" x1="337" x2="623" y1="188.9453" y2="188.9453"/><text fill="#000000" font-family="sans-serif" font-size="13" lengthAdjust="spacing" textLength="123" x="349" y="183.8794">coursChoisi : Cours</text><polygon fill="#A80036" points="769,232.2109,779,236.2109,769,240.2109" style="stroke:#A80036;stroke-width:1.0;"/><line style="stroke:#A80036;stroke-width:1.0;" x1="332" x2="775" y1="236.2109" y2="236.2109"/><text fill="#000000" font-family="sans-serif" font-size="13" lengthAdjust="spacing" textLength="95" x="339" y="231.145">getQuestions()</text><path d="M786,201.9453 L786,256.9453 L902,256.9453 L902,211.9453 L892,201.9453 L786,201.9453 " fill="#FBFB77" style="stroke:#A80036;stroke-width:1.0;"/><path d="M892,201.9453 L892,211.9453 L902,211.9453 L892,201.9453 " fill="#FBFB77" style="stroke:#A80036;stroke-width:1.0;"/><text fill="#000000" font-family="sans-serif" font-size="13" lengthAdjust="spacing" textLength="80" x="792" y="219.0122">selon Expert</text><text fill="#000000" font-family="sans-serif" font-size="13" lengthAdjust="spacing" textLength="95" x="792" y="234.145">Cours possède</text><text fill="#000000" font-family="sans-serif" font-size="13" lengthAdjust="spacing" textLength="91" x="792" y="249.2778">des Questions</text><polygon fill="#A80036" points="343,279.4766,333,283.4766,343,287.4766" style="stroke:#A80036;stroke-width:1.0;"/><line style="stroke:#A80036;stroke-width:1.0;stroke-dasharray:2.0,2.0;" x1="337" x2="780" y1="283.4766" y2="283.4766"/><text fill="#000000" font-family="sans-serif" font-size="13" lengthAdjust="spacing" textLength="67" x="349" y="278.4106">[Question]</text><!--MD5=[25986831985df14fd5595f1f73ea2e39]
@startuml
skinparam style strictuml
hide empty members
title RDCU CU02a - postCoursSelectionne

participant "ControleurCours" as rc
participant "Cours:\nMap<String,Cours>" as sc
participant "coursChoisi:Cours" as c

->rc : postCoursSelectionne(coursSelectionne : String)
note right : selon Contrôleur
rc->sc : coursChoisi = getCours(coursSelectionne)
note right : selon Expert
sc- ->rc : coursChoisi : Cours
rc->c : getQuestions()
note right : selon Expert\nCours possède\ndes Questions
c- ->rc : [Question]
@enduml

PlantUML version 1.2021.12(Tue Oct 05 16:01:58 UTC 2021)
(GPL source distribution)
Java Runtime: Java(TM) SE Runtime Environment
JVM: Java HotSpot(TM) 64-Bit Server VM
Default Encoding: UTF-8
Language: en
Country: US
--></g></svg>