<?xml version="1.0" encoding="UTF-8" standalone="no"?><svg xmlns="http://www.w3.org/2000/svg" xmlns:xlink="http://www.w3.org/1999/xlink" contentScriptType="application/ecmascript" contentStyleType="text/css" height="419px" preserveAspectRatio="none" style="width:933px;height:419px;background:#FFFFFF;" version="1.1" viewBox="0 0 933 419" width="933px" zoomAndPan="magnify"><defs/><g><text fill="#000000" font-family="sans-serif" font-size="18" lengthAdjust="spacing" textLength="559" x="188.75" y="30.6855">RDCU CU02a - postCoursSelectionne(group_id : string, token : string)</text><line style="stroke:#A80036;stroke-width:1.0;stroke-dasharray:5.0,5.0;" x1="336" x2="336" y1="91.8594" y2="412.7266"/><line style="stroke:#A80036;stroke-width:1.0;stroke-dasharray:5.0,5.0;" x1="616" x2="616" y1="91.8594" y2="412.7266"/><line style="stroke:#A80036;stroke-width:1.0;stroke-dasharray:5.0,5.0;" x1="739" x2="739" y1="91.8594" y2="412.7266"/><rect fill="#FEFECE" height="31.6094" style="stroke:#A80036;stroke-width:1.5;" width="138" x="267" y="59.25"/><text fill="#000000" font-family="sans-serif" font-size="14" lengthAdjust="spacing" textLength="124" x="274" y="80.7832">ControleurQuestion</text><rect fill="#FEFECE" height="49.2188" style="stroke:#A80036;stroke-width:1.5;" width="136" x="548" y="41.6406"/><text fill="#000000" font-family="sans-serif" font-size="14" lengthAdjust="spacing" textLength="74" x="579" y="63.1738">enseignant:</text><text fill="#000000" font-family="sans-serif" font-size="14" lengthAdjust="spacing" textLength="122" x="555" y="80.7832">Map&lt;String,Cours&gt;</text><rect fill="#FEFECE" height="31.6094" style="stroke:#A80036;stroke-width:1.5;" width="91" x="694" y="59.25"/><text fill="#000000" font-family="sans-serif" font-size="14" lengthAdjust="spacing" textLength="77" x="701" y="80.7832">cours:Cours</text><polygon fill="#A80036" points="324,123.2109,334,127.2109,324,131.2109" style="stroke:#A80036;stroke-width:1.0;"/><line style="stroke:#A80036;stroke-width:1.0;" x1="0" x2="330" y1="127.2109" y2="127.2109"/><text fill="#000000" font-family="sans-serif" font-size="13" lengthAdjust="spacing" textLength="312" x="7" y="122.3545">postCoursSelectionne(group_id : string, token : string)</text><path d="M341,106.8594 L341,132.8594 L456,132.8594 L456,116.8594 L446,106.8594 L341,106.8594 " fill="#FBFB77" style="stroke:#A80036;stroke-width:1.0;"/><path d="M446,106.8594 L446,116.8594 L456,116.8594 L446,106.8594 " fill="#FBFB77" style="stroke:#A80036;stroke-width:1.0;"/><text fill="#000000" font-family="sans-serif" font-size="13" lengthAdjust="spacing" textLength="94" x="347" y="125.3545">selon Contrôleur</text><line style="stroke:#A80036;stroke-width:1.0;" x1="336" x2="378" y1="160.5625" y2="160.5625"/><line style="stroke:#A80036;stroke-width:1.0;" x1="378" x2="378" y1="160.5625" y2="173.5625"/><line style="stroke:#A80036;stroke-width:1.0;" x1="337" x2="378" y1="173.5625" y2="173.5625"/><polygon fill="#A80036" points="347,169.5625,337,173.5625,347,177.5625" style="stroke:#A80036;stroke-width:1.0;"/><text fill="#000000" font-family="sans-serif" font-size="13" lengthAdjust="spacing" textLength="266" x="343" y="155.7061">recupererEnseignantAvecToken(token : string)</text><path d="M621,146.7109 L621,172.7109 L810,172.7109 L810,156.7109 L800,146.7109 L621,146.7109 " fill="#FBFB77" style="stroke:#A80036;stroke-width:1.0;"/><path d="M800,146.7109 L800,156.7109 L810,156.7109 L800,146.7109 " fill="#FBFB77" style="stroke:#A80036;stroke-width:1.0;"/><text fill="#000000" font-family="sans-serif" font-size="13" lengthAdjust="spacing" textLength="168" x="627" y="165.2061">etape de verification de token</text><polygon fill="#A80036" points="604,219.2656,614,223.2656,604,227.2656" style="stroke:#A80036;stroke-width:1.0;"/><line style="stroke:#A80036;stroke-width:1.0;" x1="336" x2="610" y1="223.2656" y2="223.2656"/><text fill="#000000" font-family="sans-serif" font-size="13" lengthAdjust="spacing" textLength="75" x="343" y="218.4092">get(group_id)</text><path d="M621,186.5625 L621,245.5625 L803,245.5625 L803,196.5625 L793,186.5625 L621,186.5625 " fill="#FBFB77" style="stroke:#A80036;stroke-width:1.0;"/><path d="M793,186.5625 L793,196.5625 L803,196.5625 L793,186.5625 " fill="#FBFB77" style="stroke:#A80036;stroke-width:1.0;"/><text fill="#000000" font-family="sans-serif" font-size="13" lengthAdjust="spacing" textLength="73" x="627" y="205.0576">selon Expert</text><text fill="#000000" font-family="sans-serif" font-size="13" lengthAdjust="spacing" textLength="161" x="627" y="221.4092">ControleurQuestion a accès</text><text fill="#000000" font-family="sans-serif" font-size="13" lengthAdjust="spacing" textLength="72" x="627" y="237.7607">à l'utilisateur</text><line style="stroke:#A80036;stroke-width:1.0;" x1="336" x2="346" y1="272.9688" y2="268.9688"/><line style="stroke:#A80036;stroke-width:1.0;" x1="336" x2="346" y1="272.9688" y2="276.9688"/><line style="stroke:#A80036;stroke-width:1.0;stroke-dasharray:2.0,2.0;" x1="336" x2="615" y1="272.9688" y2="272.9688"/><text fill="#000000" font-family="sans-serif" font-size="13" lengthAdjust="spacing" textLength="78" x="353" y="268.1123">cours : Cours</text><polygon fill="#A80036" points="727.5,318.6719,737.5,322.6719,727.5,326.6719" style="stroke:#A80036;stroke-width:1.0;"/><line style="stroke:#A80036;stroke-width:1.0;" x1="336" x2="733.5" y1="322.6719" y2="322.6719"/><text fill="#000000" font-family="sans-serif" font-size="13" lengthAdjust="spacing" textLength="102" x="343" y="317.8154">getlisteQuestion()</text><path d="M744,285.9688 L744,344.9688 L926,344.9688 L926,295.9688 L916,285.9688 L744,285.9688 " fill="#FBFB77" style="stroke:#A80036;stroke-width:1.0;"/><path d="M916,285.9688 L916,295.9688 L926,295.9688 L916,285.9688 " fill="#FBFB77" style="stroke:#A80036;stroke-width:1.0;"/><text fill="#000000" font-family="sans-serif" font-size="13" lengthAdjust="spacing" textLength="73" x="750" y="304.4639">selon Expert</text><text fill="#000000" font-family="sans-serif" font-size="13" lengthAdjust="spacing" textLength="161" x="750" y="320.8154">ControleurQuestion à accès</text><text fill="#000000" font-family="sans-serif" font-size="13" lengthAdjust="spacing" textLength="101" x="750" y="337.167">à l'instance cours</text><line style="stroke:#A80036;stroke-width:1.0;" x1="336" x2="346" y1="383.5508" y2="379.5508"/><line style="stroke:#A80036;stroke-width:1.0;" x1="336" x2="346" y1="383.5508" y2="387.5508"/><line style="stroke:#A80036;stroke-width:1.0;stroke-dasharray:2.0,2.0;" x1="336" x2="738.5" y1="383.5508" y2="383.5508"/><text fill="#000000" font-family="sans-serif" font-size="13" lengthAdjust="spacing" textLength="60" x="353" y="378.6943">[Question]</text><path d="M115,355.0234 L115,397.0234 L331,397.0234 L331,365.0234 L321,355.0234 L115,355.0234 " fill="#FBFB77" style="stroke:#A80036;stroke-width:1.0;"/><path d="M321,355.0234 L321,365.0234 L331,365.0234 L321,355.0234 " fill="#FBFB77" style="stroke:#A80036;stroke-width:1.0;"/><text fill="#000000" font-family="sans-serif" font-size="13" lengthAdjust="spacing" textLength="195" x="121" y="373.5186">récupère les Questions de la map</text><text fill="#000000" font-family="sans-serif" font-size="13" lengthAdjust="spacing" textLength="150" x="121" y="389.8701">et les mets dans une liste</text><!--MD5=[3cbd1623c8601d047bbedf60a8bd947b]
@startuml RDCU CU02a
skinparam style strictuml
hide empty members
title RDCU CU02a - postCoursSelectionne(group_id : string, token : string)

participant "ControleurQuestion" as cq
participant "enseignant:\nMap<String,Cours>" as mc
participant "cours:Cours" as c

->cq : postCoursSelectionne(group_id : string, token : string)
note right : selon Contrôleur
cq->cq : recupererEnseignantAvecToken(token : string)
note right : etape de verification de token
cq->mc : get(group_id)
note right : selon Expert\nControleurQuestion a accès\nà l'utilisateur
mc- ->>cq : cours : Cours
cq->c : getlisteQuestion()
note right : selon Expert\nControleurQuestion à accès\nà l'instance cours
c- ->>cq : [Question]
note left : récupère les Questions de la map\net les mets dans une liste
@enduml

PlantUML version 1.2021.14(Fri Nov 12 11:46:50 EST 2021)
(GPL source distribution)
Java Runtime: OpenJDK Runtime Environment
JVM: OpenJDK 64-Bit Server VM
Default Encoding: Cp1252
Language: fr
Country: CA
--></g></svg>