<?xml version="1.0" encoding="UTF-8" standalone="no"?><svg xmlns="http://www.w3.org/2000/svg" xmlns:xlink="http://www.w3.org/1999/xlink" contentScriptType="application/ecmascript" contentStyleType="text/css" height="229px" preserveAspectRatio="none" style="width:653px;height:229px;background:#FFFFFF;" version="1.1" viewBox="0 0 653 229" width="653px" zoomAndPan="magnify"><defs/><g><text fill="#000000" font-family="Verdana" font-size="18" lengthAdjust="spacing" textLength="270" x="191.25" y="30.0967">DSS CU01b - Récupérer cours</text><line style="stroke:#A80036;stroke-width:1.0;stroke-dasharray:5.0,5.0;" x1="313" x2="313" y1="120.8906" y2="222.2886"/><line style="stroke:#A80036;stroke-width:1.0;stroke-dasharray:5.0,5.0;" x1="606.5" x2="606.5" y1="120.8906" y2="222.2886"/><text fill="#000000" font-family="Verdana" font-size="14" lengthAdjust="spacing" textLength="84" x="268" y="117.9512">:Enseignant</text><ellipse cx="313" cy="50.876" fill="#FEFECE" rx="8" ry="8" style="stroke:#A80036;stroke-width:2.0;"/><path d="M313,58.876 L313,85.876 M300,66.876 L326,66.876 M313,85.876 L300,100.876 M313,85.876 L326,100.876 " fill="none" style="stroke:#A80036;stroke-width:2.0;"/><rect fill="#FEFECE" height="31.0146" style="stroke:#A80036;stroke-width:1.5;" width="81" x="566.5" y="88.876"/><text fill="#000000" font-family="Verdana" font-size="14" lengthAdjust="spacing" textLength="67" x="573.5" y="109.9512">:Systeme</text><polygon fill="#A80036" points="595,148.6899,605,152.6899,595,156.6899" style="stroke:#A80036;stroke-width:1.0;"/><line style="stroke:#A80036;stroke-width:1.0;" x1="313" x2="601" y1="152.6899" y2="152.6899"/><text fill="#000000" font-family="Verdana" font-size="13" lengthAdjust="spacing" textLength="227" x="346.5" y="147.9604">getCoursUtilisateur(token : string)</text><line style="stroke:#A80036;stroke-width:1.0;" x1="313" x2="323" y1="193.3889" y2="189.3889"/><line style="stroke:#A80036;stroke-width:1.0;" x1="313" x2="323" y1="193.3889" y2="197.3889"/><line style="stroke:#A80036;stroke-width:1.0;stroke-dasharray:2.0,2.0;" x1="313" x2="606" y1="193.3889" y2="193.3889"/><text fill="#000000" font-family="Verdana" font-size="13" lengthAdjust="spacing" textLength="270" x="325" y="188.6594">liste des cours de l'enseignant utilisateur</text><path d="M5,165.6899 L5,206.6899 L308,206.6899 L308,175.6899 L298,165.6899 L5,165.6899 " fill="#FBFB77" style="stroke:#A80036;stroke-width:1.0;"/><path d="M298,165.6899 L298,175.6899 L308,175.6899 L298,165.6899 " fill="#FBFB77" style="stroke:#A80036;stroke-width:1.0;"/><text fill="#000000" font-family="Verdana" font-size="13" lengthAdjust="spacing" textLength="198" x="11" y="183.7598">dans UI : selectionne le cours</text><text fill="#000000" font-family="Verdana" font-size="13" lengthAdjust="spacing" textLength="282" x="11" y="199.5591">et affiche son détail et sa liste d'étudiants</text><!--MD5=[9b540ca35bcb998943c1b1785602a69c]
@startuml DSS
skinparam style strictuml
skinparam defaultfontname Verdana
skinparam sequence {
    MessageAlign center
}
hide empty members
title DSS CU01b - Récupérer cours

actor ":Enseignant" as e
participant ":Systeme" as s

e -> s : getCoursUtilisateur(token : string)
e <<- - s : liste des cours de l'enseignant utilisateur
note left : dans UI : selectionne le cours\net affiche son détail et sa liste d'étudiants
@enduml

PlantUML version 1.2021.14(Fri Nov 12 11:46:50 EST 2021)
(GPL source distribution)
Java Runtime: OpenJDK Runtime Environment
JVM: OpenJDK 64-Bit Server VM
Default Encoding: Cp1252
Language: fr
Country: CA
--></g></svg>