<?xml version="1.0" encoding="UTF-8" standalone="no"?><svg xmlns="http://www.w3.org/2000/svg" xmlns:xlink="http://www.w3.org/1999/xlink" contentScriptType="application/ecmascript" contentStyleType="text/css" height="270px" preserveAspectRatio="none" style="width:661px;height:270px;background:#FFFFFF;" version="1.1" viewBox="0 0 661 270" width="661px" zoomAndPan="magnify"><defs/><g><text fill="#000000" font-family="sans-serif" font-size="18" lengthAdjust="spacing" textLength="486" x="89" y="28.708">RDCU CU02b - getListeQuestion(enseignant : String)</text><line style="stroke:#A80036;stroke-width:1.0;stroke-dasharray:5.0,5.0;" x1="262.5" x2="262.5" y1="71.25" y2="263.0469"/><line style="stroke:#A80036;stroke-width:1.0;stroke-dasharray:5.0,5.0;" x1="533" x2="533" y1="71.25" y2="263.0469"/><rect fill="#FEFECE" height="30.2969" style="stroke:#A80036;stroke-width:1.5;" width="91" x="217.5" y="39.9531"/><text fill="#000000" font-family="sans-serif" font-size="14" lengthAdjust="spacing" textLength="77" x="224.5" y="59.9482">Controleur</text><rect fill="#FEFECE" height="30.2969" style="stroke:#A80036;stroke-width:1.5;" width="64" x="501" y="39.9531"/><text fill="#000000" font-family="sans-serif" font-size="14" lengthAdjust="spacing" textLength="50" x="508" y="59.9482">[Cours]</text><polygon fill="#A80036" points="251,101.3828,261,105.3828,251,109.3828" style="stroke:#A80036;stroke-width:1.0;"/><line style="stroke:#A80036;stroke-width:1.0;" x1="0" x2="257" y1="105.3828" y2="105.3828"/><text fill="#000000" font-family="sans-serif" font-size="13" lengthAdjust="spacing" textLength="239" x="7" y="100.3169">getListeQuestion(enseignant : String)</text><path d="M268,86.25 L268,111.25 L394,111.25 L394,96.25 L384,86.25 L268,86.25 " fill="#FBFB77" style="stroke:#A80036;stroke-width:1.0;"/><path d="M384,86.25 L384,96.25 L394,96.25 L384,86.25 " fill="#FBFB77" style="stroke:#A80036;stroke-width:1.0;"/><text fill="#000000" font-family="sans-serif" font-size="13" lengthAdjust="spacing" textLength="105" x="274" y="103.3169">selon Contrôleur</text><line style="stroke:#A80036;stroke-width:1.0;" x1="263" x2="305" y1="137.5156" y2="137.5156"/><line style="stroke:#A80036;stroke-width:1.0;" x1="305" x2="305" y1="137.5156" y2="150.5156"/><line style="stroke:#A80036;stroke-width:1.0;" x1="264" x2="305" y1="150.5156" y2="150.5156"/><polygon fill="#A80036" points="274,146.5156,264,150.5156,274,154.5156" style="stroke:#A80036;stroke-width:1.0;"/><text fill="#000000" font-family="sans-serif" font-size="13" lengthAdjust="spacing" textLength="256" x="270" y="132.4497">getListeNomsCours(enseignant : String)</text><path d="M117,124.8828 L117,149.8828 L258,149.8828 L258,134.8828 L248,124.8828 L117,124.8828 " fill="#FBFB77" style="stroke:#A80036;stroke-width:1.0;"/><path d="M248,124.8828 L248,134.8828 L258,134.8828 L248,124.8828 " fill="#FBFB77" style="stroke:#A80036;stroke-width:1.0;"/><text fill="#000000" font-family="sans-serif" font-size="13" lengthAdjust="spacing" textLength="120" x="123" y="141.9497">Fonction de CU01b</text><polygon fill="#A80036" points="521,193.7813,531,197.7813,521,201.7813" style="stroke:#A80036;stroke-width:1.0;"/><line style="stroke:#A80036;stroke-width:1.0;" x1="263" x2="527" y1="197.7813" y2="197.7813"/><text fill="#000000" font-family="sans-serif" font-size="13" lengthAdjust="spacing" textLength="95" x="270" y="192.7153">getQuestions()</text><path d="M538,163.5156 L538,218.5156 L654,218.5156 L654,173.5156 L644,163.5156 L538,163.5156 " fill="#FBFB77" style="stroke:#A80036;stroke-width:1.0;"/><path d="M644,163.5156 L644,173.5156 L654,173.5156 L644,163.5156 " fill="#FBFB77" style="stroke:#A80036;stroke-width:1.0;"/><text fill="#000000" font-family="sans-serif" font-size="13" lengthAdjust="spacing" textLength="80" x="544" y="180.5825">selon Expert</text><text fill="#000000" font-family="sans-serif" font-size="13" lengthAdjust="spacing" textLength="95" x="544" y="195.7153">Cours possède</text><text fill="#000000" font-family="sans-serif" font-size="13" lengthAdjust="spacing" textLength="91" x="544" y="210.8481">des Questions</text><polygon fill="#A80036" points="274,241.0469,264,245.0469,274,249.0469" style="stroke:#A80036;stroke-width:1.0;"/><line style="stroke:#A80036;stroke-width:1.0;stroke-dasharray:2.0,2.0;" x1="268" x2="532" y1="245.0469" y2="245.0469"/><text fill="#000000" font-family="sans-serif" font-size="13" lengthAdjust="spacing" textLength="67" x="280" y="239.981">[Question]</text><!--MD5=[5e09161bf3c767b978a3e7ad63f1d556]
@startuml
skinparam style strictuml
hide empty members
title RDCU CU02b - getListeQuestion(enseignant : String)

participant "Controleur" as cc
participant "[Cours]" as c

->cc : getListeQuestion(enseignant : String)
note right : selon Contrôleur
cc->cc : getListeNomsCours(enseignant : String)
note left : Fonction de CU01b
cc->c : getQuestions()
note right : selon Expert\nCours possède\ndes Questions
c- ->cc : [Question]
@enduml

PlantUML version 1.2021.14beta3(Unknown compile time)
(GPL source distribution)
Java Runtime: Java(TM) SE Runtime Environment
JVM: Java HotSpot(TM) 64-Bit Server VM
Default Encoding: UTF-8
Language: en
Country: US
--></g></svg>