<?xml version="1.0" encoding="UTF-8" standalone="no"?><svg xmlns="http://www.w3.org/2000/svg" xmlns:xlink="http://www.w3.org/1999/xlink" contentScriptType="application/ecmascript" contentStyleType="text/css" height="628px" preserveAspectRatio="none" style="width:1585px;height:628px;background:#FFFFFF;" version="1.1" viewBox="0 0 1585 628" width="1585px" zoomAndPan="magnify"><defs/><g><text fill="#000000" font-family="sans-serif" font-size="18" lengthAdjust="spacing" textLength="602" x="493" y="30.6855">RDCU CU05a - addQuestion(listeQuestions : string[], questionnaire : string)</text><line style="stroke:#A80036;stroke-width:1.0;stroke-dasharray:5.0,5.0;" x1="453" x2="453" y1="91.8594" y2="621.8906"/><line style="stroke:#A80036;stroke-width:1.0;stroke-dasharray:5.0,5.0;" x1="822" x2="822" y1="91.8594" y2="621.8906"/><line style="stroke:#A80036;stroke-width:1.0;stroke-dasharray:5.0,5.0;" x1="1006.5" x2="1006.5" y1="91.8594" y2="621.8906"/><line style="stroke:#A80036;stroke-width:1.0;stroke-dasharray:5.0,5.0;" x1="1187.5" x2="1187.5" y1="91.8594" y2="621.8906"/><line style="stroke:#A80036;stroke-width:1.0;stroke-dasharray:5.0,5.0;" x1="1387.5" x2="1387.5" y1="91.8594" y2="621.8906"/><rect fill="#FEFECE" height="31.6094" style="stroke:#A80036;stroke-width:1.5;" width="170" x="368" y="59.25"/><text fill="#000000" font-family="sans-serif" font-size="14" lengthAdjust="spacing" textLength="156" x="375" y="80.7832">ControleurQuestionnaire</text><rect fill="#FEFECE" height="31.6094" style="stroke:#A80036;stroke-width:1.5;" width="150" x="747" y="59.25"/><text fill="#000000" font-family="sans-serif" font-size="14" lengthAdjust="spacing" textLength="136" x="754" y="80.7832">utilisateur:Enseignant</text><rect fill="#FEFECE" height="49.2188" style="stroke:#A80036;stroke-width:1.5;" width="155" x="929.5" y="41.6406"/><text fill="#000000" font-family="sans-serif" font-size="14" lengthAdjust="spacing" textLength="39" x="987.5" y="63.1738">cours:</text><text fill="#000000" font-family="sans-serif" font-size="14" lengthAdjust="spacing" textLength="141" x="936.5" y="80.7832">Map&lt;String,Question&gt;</text><rect fill="#FEFECE" height="49.2188" style="stroke:#A80036;stroke-width:1.5;" width="187" x="1094.5" y="41.6406"/><text fill="#000000" font-family="sans-serif" font-size="14" lengthAdjust="spacing" textLength="39" x="1168.5" y="63.1738">cours:</text><text fill="#000000" font-family="sans-serif" font-size="14" lengthAdjust="spacing" textLength="173" x="1101.5" y="80.7832">Map&lt;String,Questionnaire&gt;</text><rect fill="#FEFECE" height="31.6094" style="stroke:#A80036;stroke-width:1.5;" width="193" x="1291.5" y="59.25"/><text fill="#000000" font-family="sans-serif" font-size="14" lengthAdjust="spacing" textLength="179" x="1298.5" y="80.7832">questionnaire:Questionnaire</text><polygon fill="#A80036" points="441,123.2109,451,127.2109,441,131.2109" style="stroke:#A80036;stroke-width:1.0;"/><line style="stroke:#A80036;stroke-width:1.0;" x1="0" x2="447" y1="127.2109" y2="127.2109"/><text fill="#000000" font-family="sans-serif" font-size="13" lengthAdjust="spacing" textLength="429" x="7" y="122.3545">addQuestion(listeQuestions : string[], questionnaire : string, token : string)</text><path d="M458,106.8594 L458,132.8594 L573,132.8594 L573,116.8594 L563,106.8594 L458,106.8594 " fill="#FBFB77" style="stroke:#A80036;stroke-width:1.0;"/><path d="M563,106.8594 L563,116.8594 L573,116.8594 L563,106.8594 " fill="#FBFB77" style="stroke:#A80036;stroke-width:1.0;"/><text fill="#000000" font-family="sans-serif" font-size="13" lengthAdjust="spacing" textLength="94" x="464" y="125.3545">selon Contrôleur</text><line style="stroke:#A80036;stroke-width:1.0;" x1="453" x2="495" y1="160.5625" y2="160.5625"/><line style="stroke:#A80036;stroke-width:1.0;" x1="495" x2="495" y1="160.5625" y2="173.5625"/><line style="stroke:#A80036;stroke-width:1.0;" x1="454" x2="495" y1="173.5625" y2="173.5625"/><polygon fill="#A80036" points="464,169.5625,454,173.5625,464,177.5625" style="stroke:#A80036;stroke-width:1.0;"/><text fill="#000000" font-family="sans-serif" font-size="13" lengthAdjust="spacing" textLength="266" x="460" y="155.7061">recupererEnseignantAvecToken(token : string)</text><path d="M738,146.7109 L738,172.7109 L927,172.7109 L927,156.7109 L917,146.7109 L738,146.7109 " fill="#FBFB77" style="stroke:#A80036;stroke-width:1.0;"/><path d="M917,146.7109 L917,156.7109 L927,156.7109 L917,146.7109 " fill="#FBFB77" style="stroke:#A80036;stroke-width:1.0;"/><text fill="#000000" font-family="sans-serif" font-size="13" lengthAdjust="spacing" textLength="168" x="744" y="165.2061">etape de verification de token</text><polygon fill="#A80036" points="810,219.2656,820,223.2656,810,227.2656" style="stroke:#A80036;stroke-width:1.0;"/><line style="stroke:#A80036;stroke-width:1.0;" x1="453" x2="816" y1="223.2656" y2="223.2656"/><text fill="#000000" font-family="sans-serif" font-size="13" lengthAdjust="spacing" textLength="345" x="460" y="218.4092">addQuestion(listeQuestions : string[], questionnaire : string)</text><path d="M827,186.5625 L827,245.5625 L1040,245.5625 L1040,196.5625 L1030,186.5625 L827,186.5625 " fill="#FBFB77" style="stroke:#A80036;stroke-width:1.0;"/><path d="M1030,186.5625 L1030,196.5625 L1040,196.5625 L1030,186.5625 " fill="#FBFB77" style="stroke:#A80036;stroke-width:1.0;"/><text fill="#000000" font-family="sans-serif" font-size="13" lengthAdjust="spacing" textLength="73" x="833" y="205.0576">selon Expert</text><text fill="#000000" font-family="sans-serif" font-size="13" lengthAdjust="spacing" textLength="192" x="833" y="221.4092">ControleurQuestionnaire possède</text><text fill="#000000" font-family="sans-serif" font-size="13" lengthAdjust="spacing" textLength="91" x="833" y="237.7607">les enseignants</text><polygon fill="#A80036" points="995,296.4961,1005,300.4961,995,304.4961" style="stroke:#A80036;stroke-width:1.0;"/><line style="stroke:#A80036;stroke-width:1.0;" x1="822" x2="1001" y1="300.4961" y2="300.4961"/><text fill="#000000" font-family="sans-serif" font-size="13" lengthAdjust="spacing" textLength="161" x="829" y="295.6396">get(listeQuestions : string[])</text><path d="M1012,255.6172 L1012,330.6172 L1157,330.6172 L1157,265.6172 L1147,255.6172 L1012,255.6172 " fill="#FBFB77" style="stroke:#A80036;stroke-width:1.0;"/><path d="M1147,255.6172 L1147,265.6172 L1157,265.6172 L1147,255.6172 " fill="#FBFB77" style="stroke:#A80036;stroke-width:1.0;"/><text fill="#000000" font-family="sans-serif" font-size="13" lengthAdjust="spacing" textLength="73" x="1018" y="274.1123">selon Expert</text><text fill="#000000" font-family="sans-serif" font-size="13" lengthAdjust="spacing" textLength="113" x="1018" y="290.4639">enseignant a accès</text><text fill="#000000" font-family="sans-serif" font-size="13" lengthAdjust="spacing" textLength="78" x="1018" y="306.8154">aux cours qui</text><text fill="#000000" font-family="sans-serif" font-size="13" lengthAdjust="spacing" textLength="124" x="1018" y="323.167">contiennent les maps</text><polygon fill="#A80036" points="833,354.375,823,358.375,833,362.375" style="stroke:#A80036;stroke-width:1.0;"/><line style="stroke:#A80036;stroke-width:1.0;stroke-dasharray:2.0,2.0;" x1="827" x2="1006" y1="358.375" y2="358.375"/><text fill="#000000" font-family="sans-serif" font-size="13" lengthAdjust="spacing" textLength="155" x="839" y="353.5186">listeQuestions : [Question]</text><polygon fill="#A80036" points="1176,412.2539,1186,416.2539,1176,420.2539" style="stroke:#A80036;stroke-width:1.0;"/><line style="stroke:#A80036;stroke-width:1.0;" x1="822" x2="1182" y1="416.2539" y2="416.2539"/><text fill="#000000" font-family="sans-serif" font-size="13" lengthAdjust="spacing" textLength="103" x="829" y="411.3975">get(questionnaire)</text><path d="M1193,371.375 L1193,446.375 L1338,446.375 L1338,381.375 L1328,371.375 L1193,371.375 " fill="#FBFB77" style="stroke:#A80036;stroke-width:1.0;"/><path d="M1328,371.375 L1328,381.375 L1338,381.375 L1328,371.375 " fill="#FBFB77" style="stroke:#A80036;stroke-width:1.0;"/><text fill="#000000" font-family="sans-serif" font-size="13" lengthAdjust="spacing" textLength="73" x="1199" y="389.8701">selon Expert</text><text fill="#000000" font-family="sans-serif" font-size="13" lengthAdjust="spacing" textLength="113" x="1199" y="406.2217">enseignant a accès</text><text fill="#000000" font-family="sans-serif" font-size="13" lengthAdjust="spacing" textLength="78" x="1199" y="422.5732">aux cours qui</text><text fill="#000000" font-family="sans-serif" font-size="13" lengthAdjust="spacing" textLength="124" x="1199" y="438.9248">contiennent les maps</text><polygon fill="#A80036" points="833,470.1328,823,474.1328,833,478.1328" style="stroke:#A80036;stroke-width:1.0;"/><line style="stroke:#A80036;stroke-width:1.0;stroke-dasharray:2.0,2.0;" x1="827" x2="1187" y1="474.1328" y2="474.1328"/><text fill="#000000" font-family="sans-serif" font-size="13" lengthAdjust="spacing" textLength="169" x="839" y="469.2764">questionnaire : Questionnaire</text><polygon fill="#A80036" points="1376,519.8359,1386,523.8359,1376,527.8359" style="stroke:#A80036;stroke-width:1.0;"/><line style="stroke:#A80036;stroke-width:1.0;" x1="822" x2="1382" y1="523.8359" y2="523.8359"/><text fill="#000000" font-family="sans-serif" font-size="13" lengthAdjust="spacing" textLength="164" x="829" y="518.9795">addQuestion(listeQuestions)</text><path d="M1393,487.1328 L1393,546.1328 L1578,546.1328 L1578,497.1328 L1568,487.1328 L1393,487.1328 " fill="#FBFB77" style="stroke:#A80036;stroke-width:1.0;"/><path d="M1568,487.1328 L1568,497.1328 L1578,497.1328 L1568,487.1328 " fill="#FBFB77" style="stroke:#A80036;stroke-width:1.0;"/><text fill="#000000" font-family="sans-serif" font-size="13" lengthAdjust="spacing" textLength="73" x="1399" y="505.6279">selon Expert</text><text fill="#000000" font-family="sans-serif" font-size="13" lengthAdjust="spacing" textLength="113" x="1399" y="521.9795">enseignant a accès</text><text fill="#000000" font-family="sans-serif" font-size="13" lengthAdjust="spacing" textLength="164" x="1399" y="538.3311">à l'instance de questionnaire</text><polygon fill="#A80036" points="833,569.5391,823,573.5391,833,577.5391" style="stroke:#A80036;stroke-width:1.0;"/><line style="stroke:#A80036;stroke-width:1.0;stroke-dasharray:2.0,2.0;" x1="827" x2="1387" y1="573.5391" y2="573.5391"/><text fill="#000000" font-family="sans-serif" font-size="13" lengthAdjust="spacing" textLength="221" x="839" y="568.6826">"Questions ajoutées au questionnaire"</text><polygon fill="#A80036" points="464,599.8906,454,603.8906,464,607.8906" style="stroke:#A80036;stroke-width:1.0;"/><line style="stroke:#A80036;stroke-width:1.0;stroke-dasharray:2.0,2.0;" x1="458" x2="821" y1="603.8906" y2="603.8906"/><text fill="#000000" font-family="sans-serif" font-size="13" lengthAdjust="spacing" textLength="221" x="470" y="599.0342">"Questions ajoutées au questionnaire"</text><!--MD5=[263bf737bf6ab86fe3d0ee8eb40e1cf8]
@startuml RDCU CU05a
skinparam style strictuml
hide empty members
title RDCU CU05a - addQuestion(listeQuestions : string[], questionnaire : string)

participant "ControleurQuestionnaire" as cq
participant "utilisateur:Enseignant" as e
participant "cours:\nMap<String,Question>" as mq
participant "cours:\nMap<String,Questionnaire>" as mqu
participant "questionnaire:Questionnaire" as q

->cq : addQuestion(listeQuestions : string[], questionnaire : string, token : string)
note right : selon Contrôleur
cq->cq : recupererEnseignantAvecToken(token : string)
note right : etape de verification de token
cq->e : addQuestion(listeQuestions : string[], questionnaire : string)
note right : selon Expert\nControleurQuestionnaire possède\nles enseignants
e->mq : get(listeQuestions : string[])
note right : selon Expert\nenseignant a accès\naux cours qui\ncontiennent les maps
mq- ->e : listeQuestions : [Question]
e->mqu : get(questionnaire)
note right : selon Expert\nenseignant a accès\naux cours qui\ncontiennent les maps
mqu- ->e : questionnaire : Questionnaire
e->q : addQuestion(listeQuestions)
note right : selon Expert\nenseignant a accès\nà l'instance de questionnaire
q- ->e : "Questions ajoutées au questionnaire"
e- ->cq : "Questions ajoutées au questionnaire"
@enduml

PlantUML version 1.2021.14(Fri Nov 12 11:46:50 EST 2021)
(GPL source distribution)
Java Runtime: OpenJDK Runtime Environment
JVM: OpenJDK 64-Bit Server VM
Default Encoding: Cp1252
Language: fr
Country: CA
--></g></svg>