<?xml version="1.0" encoding="UTF-8" standalone="no"?><svg xmlns="http://www.w3.org/2000/svg" xmlns:xlink="http://www.w3.org/1999/xlink" contentScriptType="application/ecmascript" contentStyleType="text/css" height="427px" preserveAspectRatio="none" style="width:1576px;height:427px;background:#FFFFFF;" version="1.1" viewBox="0 0 1576 427" width="1576px" zoomAndPan="magnify"><defs/><g><text fill="#000000" font-family="Verdana" font-size="18" lengthAdjust="spacing" textLength="961" x="309.25" y="30.0967">RDCU CU02c - modifierQuestion(questionOriginale : string,type:string,tags:string ... (autres paramètres))</text><line style="stroke:#A80036;stroke-width:1.0;stroke-dasharray:5.0,5.0;" x1="623" x2="623" y1="89.9053" y2="420.4971"/><line style="stroke:#A80036;stroke-width:1.0;stroke-dasharray:5.0,5.0;" x1="946.5" x2="946.5" y1="89.9053" y2="420.4971"/><line style="stroke:#A80036;stroke-width:1.0;stroke-dasharray:5.0,5.0;" x1="1131.5" x2="1131.5" y1="89.9053" y2="420.4971"/><line style="stroke:#A80036;stroke-width:1.0;stroke-dasharray:5.0,5.0;" x1="1301.5" x2="1301.5" y1="89.9053" y2="420.4971"/><rect fill="#FEFECE" height="31.0146" style="stroke:#A80036;stroke-width:1.5;" width="152" x="547" y="57.8906"/><text fill="#000000" font-family="Verdana" font-size="14" lengthAdjust="spacing" textLength="138" x="554" y="78.9658">ControleurQuestion</text><rect fill="#FEFECE" height="31.0146" style="stroke:#A80036;stroke-width:1.5;" width="175" x="859.5" y="57.8906"/><text fill="#000000" font-family="Verdana" font-size="14" lengthAdjust="spacing" textLength="161" x="866.5" y="78.9658">enseignant:Enseignant</text><rect fill="#FEFECE" height="48.0293" style="stroke:#A80036;stroke-width:1.5;" width="175" x="1044.5" y="40.876"/><text fill="#000000" font-family="Verdana" font-size="14" lengthAdjust="spacing" textLength="76" x="1094" y="61.9512">listeCours:</text><text fill="#000000" font-family="Verdana" font-size="14" lengthAdjust="spacing" textLength="161" x="1051.5" y="78.9658">Map&lt;String,Question&gt;</text><rect fill="#FEFECE" height="31.0146" style="stroke:#A80036;stroke-width:1.5;" width="144" x="1229.5" y="57.8906"/><text fill="#000000" font-family="Verdana" font-size="14" lengthAdjust="spacing" textLength="130" x="1236.5" y="78.9658">listeCours:[Cours]</text><polygon fill="#A80036" points="611,120.7046,621,124.7046,611,128.7046" style="stroke:#A80036;stroke-width:1.0;"/><line style="stroke:#A80036;stroke-width:1.0;" x1="0" x2="617" y1="124.7046" y2="124.7046"/><text fill="#000000" font-family="Verdana" font-size="13" lengthAdjust="spacing" textLength="599" x="12" y="119.9751">modifierQuestion(questionOriginale : string,type:string,tags:string ... (autres paramètres))</text><path d="M628,104.9053 L628,129.9053 L756,129.9053 L756,114.9053 L746,104.9053 L628,104.9053 " fill="#FBFB77" style="stroke:#A80036;stroke-width:1.0;"/><path d="M746,104.9053 L746,114.9053 L756,114.9053 L746,104.9053 " fill="#FBFB77" style="stroke:#A80036;stroke-width:1.0;"/><text fill="#000000" font-family="Verdana" font-size="13" lengthAdjust="spacing" textLength="107" x="634" y="122.9751">selon Contrôleur</text><line style="stroke:#A80036;stroke-width:1.0;" x1="623" x2="665" y1="157.5039" y2="157.5039"/><line style="stroke:#A80036;stroke-width:1.0;" x1="665" x2="665" y1="157.5039" y2="170.5039"/><line style="stroke:#A80036;stroke-width:1.0;" x1="624" x2="665" y1="170.5039" y2="170.5039"/><polygon fill="#A80036" points="634,166.5039,624,170.5039,634,174.5039" style="stroke:#A80036;stroke-width:1.0;"/><text fill="#000000" font-family="Verdana" font-size="13" lengthAdjust="spacing" textLength="310" x="630" y="152.7744">recupererEnseignantAvecToken(token : string)</text><path d="M952,144.2046 L952,169.2046 L1173,169.2046 L1173,154.2046 L1163,144.2046 L952,144.2046 " fill="#FBFB77" style="stroke:#A80036;stroke-width:1.0;"/><path d="M1163,144.2046 L1163,154.2046 L1173,154.2046 L1163,144.2046 " fill="#FBFB77" style="stroke:#A80036;stroke-width:1.0;"/><text fill="#000000" font-family="Verdana" font-size="13" lengthAdjust="spacing" textLength="200" x="958" y="162.2744">etape de verification de token</text><polygon fill="#A80036" points="935,215.1025,945,219.1025,935,223.1025" style="stroke:#A80036;stroke-width:1.0;"/><line style="stroke:#A80036;stroke-width:1.0;" x1="623" x2="941" y1="219.1025" y2="219.1025"/><text fill="#000000" font-family="Verdana" font-size="13" lengthAdjust="spacing" textLength="98" x="736" y="214.373">getlisteCours()</text><path d="M952,183.5039 L952,240.5039 L1156,240.5039 L1156,193.5039 L1146,183.5039 L952,183.5039 " fill="#FBFB77" style="stroke:#A80036;stroke-width:1.0;"/><path d="M1146,183.5039 L1146,193.5039 L1156,193.5039 L1146,183.5039 " fill="#FBFB77" style="stroke:#A80036;stroke-width:1.0;"/><text fill="#000000" font-family="Verdana" font-size="13" lengthAdjust="spacing" textLength="81" x="958" y="201.5737">selon Expert</text><text fill="#000000" font-family="Verdana" font-size="13" lengthAdjust="spacing" textLength="183" x="958" y="217.373">ControleurQuestion a accès</text><text fill="#000000" font-family="Verdana" font-size="13" lengthAdjust="spacing" textLength="84" x="958" y="233.1724">à l'utilisateur</text><line style="stroke:#A80036;stroke-width:1.0;" x1="623" x2="633" y1="267.7012" y2="263.7012"/><line style="stroke:#A80036;stroke-width:1.0;" x1="623" x2="633" y1="267.7012" y2="271.7012"/><line style="stroke:#A80036;stroke-width:1.0;stroke-dasharray:2.0,2.0;" x1="623" x2="946" y1="267.7012" y2="267.7012"/><text fill="#000000" font-family="Verdana" font-size="13" lengthAdjust="spacing" textLength="129" x="720.5" y="262.9717">listeCours : [Cours]</text><polygon fill="#A80036" points="1120,331.0991,1130,335.0991,1120,339.0991" style="stroke:#A80036;stroke-width:1.0;"/><line style="stroke:#A80036;stroke-width:1.0;" x1="623" x2="1126" y1="335.0991" y2="335.0991"/><text fill="#000000" font-family="Verdana" font-size="13" lengthAdjust="spacing" textLength="165" x="795" y="330.3696">delete(questionOriginale)</text><path d="M1137,280.7012 L1137,337.7012 L1400,337.7012 L1400,290.7012 L1390,280.7012 L1137,280.7012 " fill="#FBFB77" style="stroke:#A80036;stroke-width:1.0;"/><path d="M1390,280.7012 L1390,290.7012 L1400,290.7012 L1390,280.7012 " fill="#FBFB77" style="stroke:#A80036;stroke-width:1.0;"/><text fill="#000000" font-family="Verdana" font-size="13" lengthAdjust="spacing" textLength="81" x="1143" y="298.771">selon Expert</text><text fill="#000000" font-family="Verdana" font-size="13" lengthAdjust="spacing" textLength="183" x="1143" y="314.5703">ControleurQuestion a accès</text><text fill="#000000" font-family="Verdana" font-size="13" lengthAdjust="spacing" textLength="242" x="1143" y="330.3696">à l'attribut listeCours de l'enseignant</text><path d="M414,288.6008 L414,329.6008 L618,329.6008 L618,298.6008 L608,288.6008 L414,288.6008 " fill="#FBFB77" style="stroke:#A80036;stroke-width:1.0;"/><path d="M608,288.6008 L608,298.6008 L618,298.6008 L608,288.6008 " fill="#FBFB77" style="stroke:#A80036;stroke-width:1.0;"/><text fill="#000000" font-family="Verdana" font-size="13" lengthAdjust="spacing" textLength="121" x="420" y="306.6707">appelle la fonction</text><text fill="#000000" font-family="Verdana" font-size="13" lengthAdjust="spacing" textLength="183" x="420" y="322.47">sur chaque cours de la liste</text><polygon fill="#A80036" points="1289.5,398.4971,1299.5,402.4971,1289.5,406.4971" style="stroke:#A80036;stroke-width:1.0;"/><line style="stroke:#A80036;stroke-width:1.0;" x1="623" x2="1295.5" y1="402.4971" y2="402.4971"/><text fill="#000000" font-family="Verdana" font-size="13" lengthAdjust="spacing" textLength="645" x="639.75" y="397.7676">addQuestion(type,tags,nom,enonce,verite,retroaction_reponse_vrai,retroaction_reponse_fausse)</text><path d="M1306,348.0991 L1306,405.0991 L1569,405.0991 L1569,358.0991 L1559,348.0991 L1306,348.0991 " fill="#FBFB77" style="stroke:#A80036;stroke-width:1.0;"/><path d="M1559,348.0991 L1559,358.0991 L1569,358.0991 L1559,348.0991 " fill="#FBFB77" style="stroke:#A80036;stroke-width:1.0;"/><text fill="#000000" font-family="Verdana" font-size="13" lengthAdjust="spacing" textLength="81" x="1312" y="366.1689">selon Expert</text><text fill="#000000" font-family="Verdana" font-size="13" lengthAdjust="spacing" textLength="183" x="1312" y="381.9683">ControleurQuestion a accès</text><text fill="#000000" font-family="Verdana" font-size="13" lengthAdjust="spacing" textLength="242" x="1312" y="397.7676">à l'attribut listeCours de l'enseignant</text><path d="M414,355.9988 L414,396.9988 L618,396.9988 L618,365.9988 L608,355.9988 L414,355.9988 " fill="#FBFB77" style="stroke:#A80036;stroke-width:1.0;"/><path d="M608,355.9988 L608,365.9988 L618,365.9988 L608,355.9988 " fill="#FBFB77" style="stroke:#A80036;stroke-width:1.0;"/><text fill="#000000" font-family="Verdana" font-size="13" lengthAdjust="spacing" textLength="121" x="420" y="374.0686">appelle la fonction</text><text fill="#000000" font-family="Verdana" font-size="13" lengthAdjust="spacing" textLength="183" x="420" y="389.8679">sur chaque cours de la liste</text><!--MD5=[4fc0fc58052da44ac90483899b1bfb8b]
@startuml RDCU
skinparam style strictuml
skinparam defaultfontname Verdana
skinparam sequence {
    MessageAlign center
}
hide empty members
title RDCU CU02c - modifierQuestion(questionOriginale : string,type:string,tags:string ... (autres paramètres))


participant "ControleurQuestion" as cq
participant "enseignant:Enseignant" as e
participant "listeCours:\nMap<String,Question>" as mq
participant "listeCours:[Cours]" as c

->cq : modifierQuestion(questionOriginale : string,type:string,tags:string ... (autres paramètres))
note right : selon Contrôleur
cq->cq : recupererEnseignantAvecToken(token : string)
note right : etape de verification de token
cq->e : getlisteCours()
note right : selon Expert\nControleurQuestion a accès\nà l'utilisateur
e- ->>cq : listeCours : [Cours]
cq->mq : delete(questionOriginale)
note right : selon Expert\nControleurQuestion a accès\nà l'attribut listeCours de l'enseignant
note left : appelle la fonction\nsur chaque cours de la liste
cq->c : addQuestion(type,tags,nom,enonce,verite,retroaction_reponse_vrai,retroaction_reponse_fausse)
note right : selon Expert\nControleurQuestion a accès\nà l'attribut listeCours de l'enseignant
note left : appelle la fonction\nsur chaque cours de la liste
@enduml

PlantUML version 1.2021.14(Fri Nov 12 11:46:50 EST 2021)
(GPL source distribution)
Java Runtime: OpenJDK Runtime Environment
JVM: OpenJDK 64-Bit Server VM
Default Encoding: Cp1252
Language: fr
Country: CA
--></g></svg>