<?xml version="1.0" encoding="UTF-8" standalone="no"?><svg xmlns="http://www.w3.org/2000/svg" xmlns:xlink="http://www.w3.org/1999/xlink" contentScriptType="application/ecmascript" contentStyleType="text/css" height="270px" preserveAspectRatio="none" style="width:841px;height:270px;background:#FFFFFF;" version="1.1" viewBox="0 0 841 270" width="841px" zoomAndPan="magnify"><defs/><g><text fill="#000000" font-family="Verdana" font-size="18" lengthAdjust="spacing" textLength="649" x="97.5" y="30.0967">RDCU recupererEtudiantsGroupeCours(group_id : string, token : string)</text><line style="stroke:#A80036;stroke-width:1.0;stroke-dasharray:5.0,5.0;" x1="452.5" x2="452.5" y1="72.8906" y2="263.4858"/><line style="stroke:#A80036;stroke-width:1.0;stroke-dasharray:5.0,5.0;" x1="644.5" x2="644.5" y1="72.8906" y2="263.4858"/><rect fill="#FEFECE" height="31.0146" style="stroke:#A80036;stroke-width:1.5;" width="131" x="387.5" y="40.876"/><text fill="#000000" font-family="Verdana" font-size="14" lengthAdjust="spacing" textLength="117" x="394.5" y="61.9512">ControleurCours</text><rect fill="#FEFECE" height="31.0146" style="stroke:#A80036;stroke-width:1.5;" width="93" x="598.5" y="40.876"/><text fill="#000000" font-family="Verdana" font-size="14" lengthAdjust="spacing" textLength="79" x="605.5" y="61.9512">FacadeSGB</text><polygon fill="#A80036" points="441,103.6899,451,107.6899,441,111.6899" style="stroke:#A80036;stroke-width:1.0;"/><line style="stroke:#A80036;stroke-width:1.0;" x1="0" x2="447" y1="107.6899" y2="107.6899"/><text fill="#000000" font-family="Verdana" font-size="13" lengthAdjust="spacing" textLength="429" x="12" y="102.9604">recupererEtudiantsGroupeCours(group_id : string, token : string)</text><path d="M458,87.8906 L458,112.8906 L586,112.8906 L586,97.8906 L576,87.8906 L458,87.8906 " fill="#FBFB77" style="stroke:#A80036;stroke-width:1.0;"/><path d="M576,87.8906 L576,97.8906 L586,97.8906 L576,87.8906 " fill="#FBFB77" style="stroke:#A80036;stroke-width:1.0;"/><text fill="#000000" font-family="Verdana" font-size="13" lengthAdjust="spacing" textLength="107" x="464" y="105.9604">selon Contrôleur</text><polygon fill="#A80036" points="633,155.2886,643,159.2886,633,163.2886" style="stroke:#A80036;stroke-width:1.0;"/><line style="stroke:#A80036;stroke-width:1.0;" x1="453" x2="639" y1="159.2886" y2="159.2886"/><text fill="#000000" font-family="Verdana" font-size="13" lengthAdjust="spacing" textLength="168" x="465" y="154.5591">getLienEtudiantsGroupe()</text><path d="M650,123.6899 L650,180.6899 L834,180.6899 L834,133.6899 L824,123.6899 L650,123.6899 " fill="#FBFB77" style="stroke:#A80036;stroke-width:1.0;"/><path d="M824,123.6899 L824,133.6899 L834,133.6899 L824,123.6899 " fill="#FBFB77" style="stroke:#A80036;stroke-width:1.0;"/><text fill="#000000" font-family="Verdana" font-size="13" lengthAdjust="spacing" textLength="81" x="656" y="141.7598">selon Expert</text><text fill="#000000" font-family="Verdana" font-size="13" lengthAdjust="spacing" textLength="127" x="656" y="157.5591">FacadeSGB accède</text><text fill="#000000" font-family="Verdana" font-size="13" lengthAdjust="spacing" textLength="163" x="656" y="173.3584">aux GroupeCours du SGB</text><line style="stroke:#A80036;stroke-width:1.0;" x1="453" x2="463" y1="226.6865" y2="222.6865"/><line style="stroke:#A80036;stroke-width:1.0;" x1="453" x2="463" y1="226.6865" y2="230.6865"/><line style="stroke:#A80036;stroke-width:1.0;stroke-dasharray:2.0,2.0;" x1="453" x2="644" y1="226.6865" y2="226.6865"/><text fill="#000000" font-family="Verdana" font-size="13" lengthAdjust="spacing" textLength="152" x="473" y="221.957">allEtudiant : [Etudiant]</text><path d="M214,191.0879 L214,248.0879 L448,248.0879 L448,201.0879 L438,191.0879 L214,191.0879 " fill="#FBFB77" style="stroke:#A80036;stroke-width:1.0;"/><path d="M438,191.0879 L438,201.0879 L448,201.0879 L438,191.0879 " fill="#FBFB77" style="stroke:#A80036;stroke-width:1.0;"/><text fill="#000000" font-family="Verdana" font-size="13" lengthAdjust="spacing" textLength="181" x="220" y="209.1577">parcours tous les Etudiants</text><text fill="#000000" font-family="Verdana" font-size="13" lengthAdjust="spacing" textLength="213" x="220" y="224.957">et renvoie ceux qui sont inscrits</text><text fill="#000000" font-family="Verdana" font-size="13" lengthAdjust="spacing" textLength="77" x="220" y="240.7563">au group_id</text><!--MD5=[22c656276d9ffdb6f7d4a04eddc9b07c]
@startuml RDCU
skinparam style strictuml
skinparam defaultfontname Verdana
skinparam sequence {
    MessageAlign center
}
hide empty members
title RDCU recupererEtudiantsGroupeCours(group_id : string, token : string)

participant "ControleurCours" as cc
participant "FacadeSGB" as sgb

->cc : recupererEtudiantsGroupeCours(group_id : string, token : string)
note right : selon Contrôleur
cc->sgb : getLienEtudiantsGroupe()
note right : selon Expert\nFacadeSGB accède\naux GroupeCours du SGB
cc<<- -sgb : allEtudiant : [Etudiant]
note left : parcours tous les Etudiants\net renvoie ceux qui sont inscrits\nau group_id
@enduml

PlantUML version 1.2021.14(Fri Nov 12 11:46:50 EST 2021)
(GPL source distribution)
Java Runtime: OpenJDK Runtime Environment
JVM: OpenJDK 64-Bit Server VM
Default Encoding: Cp1252
Language: fr
Country: CA
--></g></svg>