<?xml version="1.0" encoding="UTF-8" standalone="no"?><svg xmlns="http://www.w3.org/2000/svg" xmlns:xlink="http://www.w3.org/1999/xlink" contentScriptType="application/ecmascript" contentStyleType="text/css" height="529px" preserveAspectRatio="none" style="width:1353px;height:529px;background:#FFFFFF;" version="1.1" viewBox="0 0 1353 529" width="1353px" zoomAndPan="magnify"><defs/><g><text fill="#000000" font-family="sans-serif" font-size="18" lengthAdjust="spacing" textLength="619" x="368.75" y="30.6855">RDCU CU02a - setQuestion(group_id:string,type:string,tags:string,nom:string,</text><text fill="#000000" font-family="sans-serif" font-size="18" lengthAdjust="spacing" textLength="484" x="436.25" y="53.3262">enonce:string,verite:boolean,retroaction_reponse_vrai:string,</text><text fill="#000000" font-family="sans-serif" font-size="18" lengthAdjust="spacing" textLength="391" x="482.75" y="75.9668">retroaction_reponse_fausse:string, token : string)</text><line style="stroke:#A80036;stroke-width:1.0;stroke-dasharray:5.0,5.0;" x1="382" x2="382" y1="137.1406" y2="522.0625"/><line style="stroke:#A80036;stroke-width:1.0;stroke-dasharray:5.0,5.0;" x1="662" x2="662" y1="137.1406" y2="522.0625"/><line style="stroke:#A80036;stroke-width:1.0;stroke-dasharray:5.0,5.0;" x1="785" x2="785" y1="137.1406" y2="522.0625"/><line style="stroke:#A80036;stroke-width:1.0;stroke-dasharray:5.0,5.0;" x1="1191.5" x2="1191.5" y1="444.1836" y2="522.0625"/><rect fill="#FEFECE" height="31.6094" style="stroke:#A80036;stroke-width:1.5;" width="138" x="313" y="104.5313"/><text fill="#000000" font-family="sans-serif" font-size="14" lengthAdjust="spacing" textLength="124" x="320" y="126.0645">ControleurQuestion</text><rect fill="#FEFECE" height="49.2188" style="stroke:#A80036;stroke-width:1.5;" width="136" x="594" y="86.9219"/><text fill="#000000" font-family="sans-serif" font-size="14" lengthAdjust="spacing" textLength="74" x="625" y="108.4551">enseignant:</text><text fill="#000000" font-family="sans-serif" font-size="14" lengthAdjust="spacing" textLength="122" x="601" y="126.0645">Map&lt;String,Cours&gt;</text><rect fill="#FEFECE" height="31.6094" style="stroke:#A80036;stroke-width:1.5;" width="91" x="740" y="104.5313"/><text fill="#000000" font-family="sans-serif" font-size="14" lengthAdjust="spacing" textLength="77" x="747" y="126.0645">cours:Cours</text><polygon fill="#A80036" points="370,198.1953,380,202.1953,370,206.1953" style="stroke:#A80036;stroke-width:1.0;"/><line style="stroke:#A80036;stroke-width:1.0;" x1="0" x2="376" y1="202.1953" y2="202.1953"/><text fill="#000000" font-family="sans-serif" font-size="13" lengthAdjust="spacing" textLength="358" x="7" y="164.6357">setQuestion(group_id:string,type:string,tags:string,nom:string,</text><text fill="#000000" font-family="sans-serif" font-size="13" lengthAdjust="spacing" textLength="345" x="7" y="180.9873">enonce:string,verite:boolean,retroaction_reponse_vrai:string,</text><text fill="#000000" font-family="sans-serif" font-size="13" lengthAdjust="spacing" textLength="283" x="7" y="197.3389">retroaction_reponse_fausse:string, token : string)</text><path d="M387,165.4922 L387,191.4922 L502,191.4922 L502,175.4922 L492,165.4922 L387,165.4922 " fill="#FBFB77" style="stroke:#A80036;stroke-width:1.0;"/><path d="M492,165.4922 L492,175.4922 L502,175.4922 L492,165.4922 " fill="#FBFB77" style="stroke:#A80036;stroke-width:1.0;"/><text fill="#000000" font-family="sans-serif" font-size="13" lengthAdjust="spacing" textLength="94" x="393" y="183.9873">selon Contrôleur</text><line style="stroke:#A80036;stroke-width:1.0;" x1="382" x2="424" y1="232.5469" y2="232.5469"/><line style="stroke:#A80036;stroke-width:1.0;" x1="424" x2="424" y1="232.5469" y2="245.5469"/><line style="stroke:#A80036;stroke-width:1.0;" x1="383" x2="424" y1="245.5469" y2="245.5469"/><polygon fill="#A80036" points="393,241.5469,383,245.5469,393,249.5469" style="stroke:#A80036;stroke-width:1.0;"/><text fill="#000000" font-family="sans-serif" font-size="13" lengthAdjust="spacing" textLength="266" x="389" y="227.6904">recupererEnseignantAvecToken(token : string)</text><path d="M667,218.6953 L667,244.6953 L856,244.6953 L856,228.6953 L846,218.6953 L667,218.6953 " fill="#FBFB77" style="stroke:#A80036;stroke-width:1.0;"/><path d="M846,218.6953 L846,228.6953 L856,228.6953 L846,218.6953 " fill="#FBFB77" style="stroke:#A80036;stroke-width:1.0;"/><text fill="#000000" font-family="sans-serif" font-size="13" lengthAdjust="spacing" textLength="168" x="673" y="237.1904">etape de verification de token</text><polygon fill="#A80036" points="650,291.25,660,295.25,650,299.25" style="stroke:#A80036;stroke-width:1.0;"/><line style="stroke:#A80036;stroke-width:1.0;" x1="382" x2="656" y1="295.25" y2="295.25"/><text fill="#000000" font-family="sans-serif" font-size="13" lengthAdjust="spacing" textLength="75" x="389" y="290.3936">get(group_id)</text><path d="M667,258.5469 L667,317.5469 L849,317.5469 L849,268.5469 L839,258.5469 L667,258.5469 " fill="#FBFB77" style="stroke:#A80036;stroke-width:1.0;"/><path d="M839,258.5469 L839,268.5469 L849,268.5469 L839,258.5469 " fill="#FBFB77" style="stroke:#A80036;stroke-width:1.0;"/><text fill="#000000" font-family="sans-serif" font-size="13" lengthAdjust="spacing" textLength="73" x="673" y="277.042">selon Expert</text><text fill="#000000" font-family="sans-serif" font-size="13" lengthAdjust="spacing" textLength="161" x="673" y="293.3936">ControleurQuestion a accès</text><text fill="#000000" font-family="sans-serif" font-size="13" lengthAdjust="spacing" textLength="72" x="673" y="309.7451">à l'utilisateur</text><line style="stroke:#A80036;stroke-width:1.0;" x1="382" x2="392" y1="344.9531" y2="340.9531"/><line style="stroke:#A80036;stroke-width:1.0;" x1="382" x2="392" y1="344.9531" y2="348.9531"/><line style="stroke:#A80036;stroke-width:1.0;stroke-dasharray:2.0,2.0;" x1="382" x2="661" y1="344.9531" y2="344.9531"/><text fill="#000000" font-family="sans-serif" font-size="13" lengthAdjust="spacing" textLength="78" x="399" y="340.0967">cours : Cours</text><polygon fill="#A80036" points="773.5,387.6563,783.5,391.6563,773.5,395.6563" style="stroke:#A80036;stroke-width:1.0;"/><line style="stroke:#A80036;stroke-width:1.0;" x1="382" x2="779.5" y1="391.6563" y2="391.6563"/><text fill="#000000" font-family="sans-serif" font-size="13" lengthAdjust="spacing" textLength="210" x="389" y="370.4482">addQuestion(type,tags,nom,enonce,</text><text fill="#000000" font-family="sans-serif" font-size="13" lengthAdjust="spacing" textLength="341" x="389" y="386.7998">verite,retroaction_reponse_vrai,retroaction_reponse_fausse)</text><polygon fill="#A80036" points="1138.5,434.3594,1148.5,438.3594,1138.5,442.3594" style="stroke:#A80036;stroke-width:1.0;"/><line style="stroke:#A80036;stroke-width:1.0;stroke-dasharray:2.0,2.0;" x1="785.5" x2="1144.5" y1="438.3594" y2="438.3594"/><text fill="#000000" font-family="sans-serif" font-size="13" lengthAdjust="spacing" textLength="196" x="792.5" y="417.1514">q = create(type,tags,nom,enonce,</text><text fill="#000000" font-family="sans-serif" font-size="13" lengthAdjust="spacing" textLength="341" x="792.5" y="433.5029">verite,retroaction_reponse_vrai,retroaction_reponse_fausse)</text><rect fill="#FEFECE" height="31.6094" style="stroke:#A80036;stroke-width:1.5;" width="83" x="1150.5" y="414.9258"/><text fill="#000000" font-family="sans-serif" font-size="14" lengthAdjust="spacing" textLength="69" x="1157.5" y="436.459">q:Question</text><path d="M1238.5,404.6563 L1238.5,463.6563 L1346.5,463.6563 L1346.5,414.6563 L1336.5,404.6563 L1238.5,404.6563 " fill="#FBFB77" style="stroke:#A80036;stroke-width:1.0;"/><path d="M1336.5,404.6563 L1336.5,414.6563 L1346.5,414.6563 L1336.5,404.6563 " fill="#FBFB77" style="stroke:#A80036;stroke-width:1.0;"/><text fill="#000000" font-family="sans-serif" font-size="13" lengthAdjust="spacing" textLength="84" x="1244.5" y="423.1514">selon Créateur</text><text fill="#000000" font-family="sans-serif" font-size="13" lengthAdjust="spacing" textLength="87" x="1244.5" y="439.5029">Cours possède</text><text fill="#000000" font-family="sans-serif" font-size="13" lengthAdjust="spacing" textLength="84" x="1244.5" y="455.8545">des Questions</text><line style="stroke:#A80036;stroke-width:1.0;" x1="785.5" x2="827.5" y1="491.0625" y2="491.0625"/><line style="stroke:#A80036;stroke-width:1.0;" x1="827.5" x2="827.5" y1="491.0625" y2="504.0625"/><line style="stroke:#A80036;stroke-width:1.0;" x1="786.5" x2="827.5" y1="504.0625" y2="504.0625"/><polygon fill="#A80036" points="796.5,500.0625,786.5,504.0625,796.5,508.0625" style="stroke:#A80036;stroke-width:1.0;"/><text fill="#000000" font-family="sans-serif" font-size="13" lengthAdjust="spacing" textLength="66" x="792.5" y="486.2061">set(nom, q)</text><!--MD5=[c35a2535d5f451ce4656647fc8552cdc]
@startuml RDCU CU02a
skinparam style strictuml
hide empty members
title RDCU CU02a - setQuestion(group_id:string,type:string,tags:string,nom:string,\nenonce:string,verite:boolean,retroaction_reponse_vrai:string,\nretroaction_reponse_fausse:string, token : string)

participant "ControleurQuestion" as cq
participant "enseignant:\nMap<String,Cours>" as mc
participant "cours:Cours" as c
participant "q:Question" as q

->cq : setQuestion(group_id:string,type:string,tags:string,nom:string,\nenonce:string,verite:boolean,retroaction_reponse_vrai:string,\nretroaction_reponse_fausse:string, token : string)
note right : selon Contrôleur
cq->cq : recupererEnseignantAvecToken(token : string)
note right : etape de verification de token
cq->mc : get(group_id)
note right : selon Expert\nControleurQuestion a accès\nà l'utilisateur
mc- ->>cq : cours : Cours
cq->c : addQuestion(type,tags,nom,enonce,\nverite,retroaction_reponse_vrai,retroaction_reponse_fausse)
create q
c- ->q : q = create(type,tags,nom,enonce,\nverite,retroaction_reponse_vrai,retroaction_reponse_fausse)
note right : selon Créateur\nCours possède\ndes Questions
c -> c : set(nom, q)
@enduml

PlantUML version 1.2021.14(Fri Nov 12 11:46:50 EST 2021)
(GPL source distribution)
Java Runtime: OpenJDK Runtime Environment
JVM: OpenJDK 64-Bit Server VM
Default Encoding: Cp1252
Language: fr
Country: CA
--></g></svg>